<?xml version="1.0" encoding="utf-8"?>
<!-- Generator: Adobe Illustrator 25.4.1, SVG Export Plug-In . SVG Version: 6.00 Build 0)  -->
<svg version="1.0" id="Layer_1" xmlns="http://www.w3.org/2000/svg" xmlns:xlink="http://www.w3.org/1999/xlink" x="0px" y="0px"
	 viewBox="0 0 428 328" style="enable-background:new 0 0 428 328;" xml:space="preserve">
<style type="text/css">
	.st0{fill-rule:evenodd;clip-rule:evenodd;fill:#FFFFFF;fill-opacity:0.04;}
	.st1{fill-rule:evenodd;clip-rule:evenodd;fill:#FFFFFF;fill-opacity:0.24;}
	.st2{fill-rule:evenodd;clip-rule:evenodd;fill:#FFFFFF;fill-opacity:0.12;}
	.st3{fill-rule:evenodd;clip-rule:evenodd;fill:#FFFFFF;fill-opacity:0.64;}
	.st4{fill-rule:evenodd;clip-rule:evenodd;fill:#FFFFFF;fill-opacity:0.48;}
	.st5{fill-rule:evenodd;clip-rule:evenodd;fill:url(#SVGID_1_);}
	.st6{fill:#DA2F3C;}
	.st7{fill:#9BD8F9;}
	.st8{fill:#C0ECFF;}
	.st9{fill:#D9F3FC;}
	.st10{fill:#168C80;}
	.st11{fill:#1BA552;}
	.st12{fill:#68C37D;}
	.st13{fill:#9ED369;}
	.st14{fill:#CBED74;}
	.st15{fill:#E04955;}
	.st16{fill:#8A58BB;}
	.st17{fill:#AF7FDF;}
	.st18{fill:#5C45BF;}
</style>
<g>
	<g>
		<ellipse class="st0" cx="185" cy="15.58" rx="16" ry="15.58"/>
		<ellipse class="st1" cx="100" cy="68.4" rx="24" ry="23.36"/>
		<ellipse class="st2" cx="29" cy="251.23" rx="29" ry="28.23"/>
		<ellipse class="st3" cx="29" cy="251.23" rx="8" ry="7.79"/>
		<ellipse class="st2" cx="342" cy="31.3" rx="8" ry="7.79"/>
		<ellipse class="st4" cx="62" cy="126.81" rx="2" ry="1.95"/>
		<ellipse class="st2" cx="78" cy="7.07" rx="2" ry="1.95"/>
		<ellipse class="st3" cx="185" cy="15.58" rx="6" ry="5.84"/>
	</g>
	
		<radialGradient id="SVGID_1_" cx="-205.1296" cy="461.5975" r="0.9603" gradientTransform="matrix(400 0 0 -400 82270 184814.2344)" gradientUnits="userSpaceOnUse">
		<stop  offset="0" style="stop-color:#DFDFDF"/>
		<stop  offset="0.4432" style="stop-color:#4C4C4C"/>
		<stop  offset="1" style="stop-color:#333333"/>
	</radialGradient>
	<circle class="st5" cx="276" cy="237" r="200"/>
</g>
<g>
	<path class="st6" d="M274.79,35.46c-111.12,0-201.21,90.21-201.21,201.5c0,52.83,20.31,100.9,53.53,136.83l229.03,47.5
		C426.74,390,476,319.25,476,236.96C476,125.67,385.92,35.46,274.79,35.46L274.79,35.46z"/>
	<ellipse class="st7" cx="252.91" cy="95.31" rx="44.81" ry="14.28"/>
	<path class="st8" d="M252.91,109.59c-17.47,0-32.6-3.19-39.99-7.84v141.36l0,0c25.29,12.1,54.69,12.1,79.98,0V101.75
		C285.51,106.4,270.38,109.59,252.91,109.59L252.91,109.59z"/>
	<path class="st7" d="M252.91,109.59c-17.47,0-32.6-3.19-39.99-7.84v141.36l0,0c10.99,5.26,22.76,8.23,34.63,8.91
		c0.54-0.49,0.86-0.76,0.86-0.76s0-67.7,0-87.53s20.4-21.5,20.4-21.5l6.61-34.58C268.8,108.88,261.12,109.59,252.91,109.59z"/>
	<path class="st9" d="M252.91,348.84c64.92,46.5,119.04-2.49,126.87-10.19c-6.2-45.24-41.26-82.37-87.98-95.86
		c-24.67,11.41-53.1,11.41-77.78,0c-50.17,14.48-86.88,56.22-88.87,105.98C127.57,346.7,184.18,299.61,252.91,348.84L252.91,348.84z
		"/>
	<path class="st8" d="M214.02,242.79c-50.17,14.48-86.88,56.22-88.87,105.98c1.91-1.63,37.79-31.47,86.74-19.42
		c0.63-0.83,1.03-1.27,1.03-1.27c-1.92-9.84,6.06-15.02,6.06-15.02l9.97-26c1.79-21.24,19.46-35.79,19.46-35.79s0-0.02,0-0.04
		C236.65,250.66,224.97,247.85,214.02,242.79L214.02,242.79z"/>
	<path class="st10" d="M252.91,348.08c63.69,45.62,116.96-0.65,126.36-9.7l0.31-1.06c0,0-62.22-46.93-130.31,8.24
		C250.48,346.38,251.69,347.21,252.91,348.08L252.91,348.08z"/>
	<path class="st11" d="M312.63,318.96c-19.14,1.34-40.93,8.44-63.35,26.61c1.21,0.81,2.42,1.64,3.63,2.51
		c23.6,16.9,45.76,21.18,64.8,19.42c-0.25-0.23-0.5-0.46-0.77-0.69C291.64,345.23,310.39,321.6,312.63,318.96L312.63,318.96z"/>
	<g>
		<path class="st9" d="M219.5,110.83c-14.12-4.5-17.08-10.92-17.08-15.52s2.96-11.02,17.08-15.52c18.63-5.94,48.18-5.94,66.82,0
			c14.12,4.5,17.08,10.92,17.08,15.52s-2.96,11.02-17.08,15.52C267.7,116.77,238.14,116.77,219.5,110.83L219.5,110.83z M213.9,95.31
			c1.89,2.69,15.06,8.6,39.01,8.6s37.11-5.9,39.01-8.6c-1.89-2.69-15.06-8.6-39.01-8.6S215.8,92.62,213.9,95.31L213.9,95.31z
			 M292.09,95.6L292.09,95.6L292.09,95.6z"/>
	</g>
	<path class="st12" d="M252.91,347.33c-68.06-48.75-124.24-3.05-127.68-0.14c-0.11,1.94-0.17,3.89-0.17,5.85
		c0,7.09,0.71,14.02,2.06,20.76c36.75,39.76,89.31,64.66,147.68,64.66c28.95,0,56.47-6.14,81.35-17.16
		c15.48-19.14,24.62-42.73,24.62-68.26c0-5.33-0.4-10.57-1.18-15.71C371.1,345.6,317.32,393.47,252.91,347.33L252.91,347.33z"/>
	<path class="st10" d="M208.88,383.98l-2.06-13.18c-9.85-25.26,6.04-42.66,6.09-42.72c-48.88-12.56-84.95,16.8-87.69,19.1
		c-0.11,1.94-0.17,3.89-0.17,5.85c0,7.09,0.71,14.02,2.06,20.76c21.45,23.2,48.28,41.33,78.51,52.42
		C196.86,402.25,208.88,383.98,208.88,383.98L208.88,383.98z"/>
	<ellipse class="st12" cx="228.84" cy="301.94" rx="14.89" ry="14.91"/>
	<g>
		<ellipse class="st13" cx="231.56" cy="299.18" rx="7.45" ry="7.46"/>
		<ellipse class="st13" cx="213.22" cy="376.61" rx="8.65" ry="8.66"/>
		
			<ellipse transform="matrix(1 -5.001972e-03 5.001972e-03 1 -2.015 1.2475)" class="st13" cx="248.39" cy="403.46" rx="18.37" ry="18.39"/>
	</g>
	<ellipse class="st14" cx="251.97" cy="399.94" rx="8.01" ry="8.02"/>
	<path class="st15" d="M182.82,131.07c-25.87-42.36,18.48-62.09,47.22-74.02c13.79-5.72,19.61-13.62,21.94-20.3
		C151.6,48.11,73.59,133.4,73.59,236.96c0,33.58,8.21,65.23,22.72,93.06c4.11-25.57,19.79-51.1,48.32-69.83
		C196.19,226.34,208.68,173.43,182.82,131.07L182.82,131.07z"/>
	<path class="st15" d="M476,236.96c0-10.82-0.86-21.44-2.5-31.8c-44.79,9.54-109.75,29.42-87.01,61.63
		c31.09,44.03,24.39,75.38,22.55,81.71c-0.62,2.15-1.11,4.35-1.35,6.59c-0.71,6.51-0.43,17.63,7.47,26.23
		C452.69,344.72,476,293.57,476,236.96L476,236.96z"/>
	<g>
		<ellipse class="st16" cx="351.37" cy="118.23" rx="100.68" ry="100.82"/>
		<path class="st17" d="M451.91,111.92c-2.5-40.59-28.96-74.68-65.4-88.25l-0.8,8.06c-0.75,7.49,2.64,14.81,8.86,19.02
			c10.99,7.42,27.74,22.38,33.86,47.29c2.01,8.17,9.37,13.89,17.77,13.89H451.91z"/>
		<path class="st18" d="M399.11,156.73l-14.37-22.3c-2.49-0.71-1.58-3.46-1.58-3.46l-12.67-23.06c-3.27,0.22-2.89-3.17-2.89-3.17
			l-3.91-0.77l-14.77-30.6l-12.2-10.69c-35.3,5.45-44.08-26.35-44.08-26.35c-25.38,18.31-41.91,48.16-41.91,81.88
			c0,55.69,45.08,100.84,100.69,100.84c27.3,0,52.05-10.88,70.19-28.55C392.1,184.16,399.11,156.73,399.11,156.73L399.11,156.73z"/>
		<path class="st10" d="M434.02,142.23c-1.35-0.87-4.31-2.5-8.79-3.34c-0.5-0.1-0.78-0.64-0.57-1.1c0.22-0.46-0.06-1.01-0.56-1.1
			c-1.55-0.28-4.88-0.73-9.62-0.56c-0.54,0.02-0.92-0.5-0.78-1.02c0.16-0.6-0.28-1.19-0.9-1.22c-2.27-0.07-7.33-0.05-12.46,1.28
			c-0.56,0.14-1.11-0.26-1.14-0.83l-0.01-0.24c-0.04-0.73-0.66-1.25-1.39-1.15c-2.04,0.26-5.8,0.98-10.29,2.95
			c-0.5,0.22-1.09-0.11-1.12-0.66c-0.05-0.82-0.96-1.28-1.64-0.82c-3.52,2.38-12.68,8.03-23.06,10.12c-0.7,0.14-1.12-0.75-0.57-1.2
			c10.75-8.86,24.32-13.39,29.69-14.94c1-0.29,1.31-1.54,0.59-2.26c-0.51-0.51-0.4-1.36,0.24-1.68c5.66-2.82,9.47-5.94,11.41-7.73
			c0.68-0.63,0.68-1.68,0-2.32l-0.23-0.21c-0.54-0.51-0.48-1.38,0.13-1.82c5.55-3.97,9.76-8.94,11.56-11.24
			c0.5-0.64,0.26-1.58-0.48-1.91c-0.63-0.28-0.8-1.09-0.34-1.59c4.09-4.53,6.4-8.2,7.4-9.96c0.33-0.57,0.02-1.3-0.62-1.47
			c-0.64-0.17-0.94-0.89-0.62-1.47c2.86-5.11,3.72-9.38,3.97-11.43c0.08-0.68-0.52-1.25-1.19-1.12c-2.03,0.39-6.23,1.52-11.14,4.71
			c-0.55,0.36-1.3,0.11-1.5-0.52c-0.21-0.63-0.95-0.89-1.5-0.52c-1.7,1.12-5.2,3.66-9.45,8.04c-0.48,0.49-1.3,0.38-1.61-0.23
			c-0.37-0.72-1.33-0.9-1.93-0.36c-2.18,1.95-6.86,6.48-10.46,12.28c-0.39,0.63-1.26,0.75-1.8,0.25l-0.23-0.21
			c-0.68-0.64-1.72-0.57-2.31,0.15c-1.66,2.06-4.53,6.07-6.97,11.91c-0.28,0.67-1.12,0.83-1.66,0.35c-0.77-0.68-1.99-0.28-2.22,0.73
			c-1.23,5.66-5.09,20.33-13.86,31.84c-0.43,0.56-1.33,0.19-1.23-0.52c2.2-15.7,9.64-29.89,12.81-35.36
			c0.61-1.05-0.13-2.39-1.32-2.39c-0.79,0-1.31-0.86-1.04-1.62c2.49-6.9,3.23-12.59,3.44-15.67c0.08-1.08-0.73-1.97-1.78-1.97h-0.35
			c-0.84,0-1.46-0.8-1.3-1.64c1.51-7.79,1.14-15.37,0.85-18.76c-0.08-0.95-1.02-1.56-1.89-1.23c-0.72,0.27-1.47-0.3-1.48-1.09
			c-0.13-7.11-1.05-12.06-1.58-14.37c-0.17-0.75-0.99-1.12-1.64-0.75c-0.65,0.37-1.46-0.01-1.64-0.75
			c-1.58-6.63-4.17-10.94-5.55-12.88c-0.45-0.63-1.39-0.63-1.83,0c-1.37,1.94-3.96,6.25-5.55,12.88c-0.18,0.75-0.99,1.12-1.64,0.75
			c-0.65-0.37-1.47,0.01-1.64,0.75c-0.53,2.3-1.46,7.26-1.58,14.37c-0.01,0.79-0.77,1.37-1.48,1.09c-0.87-0.33-1.81,0.28-1.89,1.23
			c-0.29,3.39-0.66,10.97,0.85,18.76c0.17,0.85-0.46,1.64-1.3,1.64h-0.35c-1.05,0-1.86,0.89-1.78,1.97
			c0.21,3.07,0.95,8.77,3.44,15.67c0.28,0.76-0.25,1.62-1.04,1.62c-1.19,0-1.93,1.33-1.32,2.39c3.16,5.47,10.61,19.66,12.81,35.36
			c0.1,0.7-0.8,1.08-1.23,0.52c-8.77-11.52-12.63-26.19-13.86-31.84c-0.22-1.01-1.45-1.41-2.22-0.73c-0.54,0.48-1.38,0.31-1.66-0.35
			c-2.44-5.84-5.3-9.85-6.97-11.91c-0.59-0.72-1.63-0.79-2.31-0.15l-0.23,0.21c-0.54,0.51-1.41,0.39-1.8-0.25
			c-3.59-5.8-8.28-10.33-10.46-12.28c-0.61-0.54-1.56-0.37-1.93,0.36c-0.32,0.61-1.13,0.72-1.61,0.23
			c-4.25-4.38-7.75-6.92-9.45-8.04c-0.55-0.36-1.29-0.11-1.5,0.52c-0.21,0.63-0.95,0.88-1.5,0.52c-4.91-3.19-9.11-4.32-11.14-4.71
			c-0.67-0.13-1.28,0.44-1.19,1.12c0.25,2.05,1.11,6.32,3.97,11.43c0.32,0.58,0.02,1.3-0.62,1.47c-0.64,0.17-0.94,0.89-0.62,1.47
			c1.01,1.77,3.32,5.43,7.4,9.96c0.46,0.51,0.29,1.32-0.34,1.59c-0.74,0.33-0.98,1.27-0.48,1.91c1.8,2.3,6.01,7.28,11.56,11.24
			c0.61,0.43,0.67,1.31,0.13,1.82l-0.23,0.21c-0.68,0.64-0.68,1.68,0,2.32c1.94,1.8,5.76,4.92,11.41,7.73
			c0.65,0.32,0.76,1.17,0.24,1.68c-0.72,0.73-0.41,1.98,0.59,2.26c5.36,1.54,18.94,6.07,29.69,14.94c0.55,0.45,0.13,1.35-0.57,1.2
			c-10.37-2.09-19.54-7.74-23.06-10.12c-0.68-0.46-1.59,0-1.64,0.82c-0.03,0.54-0.62,0.87-1.12,0.66c-4.5-1.97-8.25-2.68-10.29-2.95
			c-0.72-0.09-1.35,0.42-1.39,1.15l-0.01,0.2c-0.03,0.62-0.59,1.02-1.14,0.87c-5.13-1.33-10.19-1.36-12.46-1.28
			c-0.62,0.02-1.06,0.62-0.9,1.22c0.14,0.52-0.24,1.04-0.78,1.02c-4.74-0.18-8.07,0.28-9.62,0.56c-0.5,0.09-0.78,0.64-0.56,1.1
			c0.22,0.46-0.06,1.01-0.57,1.1c-4.48,0.85-7.45,2.47-8.79,3.34c-0.45,0.29-0.48,0.92-0.07,1.26c1.24,1.01,4.01,2.96,8.37,4.3
			c0.49,0.15,0.71,0.72,0.44,1.16c-0.27,0.44-0.05,1.01,0.44,1.16c1.51,0.45,4.77,1.27,9.5,1.62c0.54,0.04,0.86,0.59,0.66,1.1
			c-0.22,0.58,0.15,1.22,0.76,1.31c2.25,0.33,7.28,0.86,12.53,0.11c0.57-0.08,1.08,0.38,1.04,0.95l-0.01,0.24
			c-0.04,0.73,0.52,1.31,1.25,1.3c2.06-0.03,5.87-0.33,10.55-1.79c0.52-0.16,1.07,0.23,1.04,0.78c-0.05,0.82,0.82,1.37,1.54,0.99
			c3.76-1.97,13.45-6.55,23.97-7.5c0.95-0.09,1.31,1.21,0.45,1.62c-4.49,2.12-9.02,3.04-11.09,3.38c-0.5,0.08-0.69,0.69-0.33,1.09
			c0.24,0.26,0.13,0.68-0.18,0.79c-2.85,1.04-4.8,2.34-5.8,3.11c-0.35,0.27-0.38,0.78-0.07,1.13l0.1,0.12
			c0.25,0.28,0.2,0.71-0.11,0.88c-2.83,1.61-5.02,3.8-5.97,4.82c-0.27,0.29-0.17,0.77,0.19,0.97c0.3,0.17,0.35,0.58,0.11,0.8
			c-2.13,1.98-3.36,3.64-3.9,4.44c-0.18,0.26-0.05,0.64,0.26,0.76c0.31,0.12,0.43,0.49,0.26,0.76c-1.54,2.34-2.08,4.38-2.26,5.37
			c-0.06,0.34,0.21,0.64,0.55,0.62c1-0.07,3.09-0.37,5.58-1.64c0.28-0.14,0.64,0.03,0.72,0.35c0.08,0.32,0.44,0.49,0.72,0.35
			c0.86-0.45,2.65-1.49,4.85-3.38c0.24-0.21,0.65-0.11,0.78,0.2c0.16,0.38,0.63,0.53,0.94,0.3c1.12-0.82,3.54-2.76,5.46-5.39
			c0.21-0.29,0.64-0.29,0.89-0.01l0.1,0.12c0.31,0.35,0.83,0.38,1.13,0.06c0.87-0.91,2.38-2.7,3.74-5.42
			c0.15-0.3,0.57-0.36,0.8-0.09c0.36,0.4,0.98,0.28,1.12-0.21c0.75-2.66,3-9.48,7.49-14.58c1.02-1.16,2.51-1.8,4.05-1.8
			c1.54,0,3.03,0.64,4.05,1.8c4.49,5.1,6.74,11.92,7.49,14.58c0.14,0.49,0.77,0.61,1.12,0.21c0.24-0.26,0.65-0.21,0.8,0.09
			c1.36,2.71,2.87,4.51,3.74,5.42c0.31,0.32,0.82,0.29,1.13-0.06l0.1-0.12c0.25-0.28,0.68-0.27,0.89,0.01
			c1.92,2.63,4.34,4.57,5.46,5.39c0.31,0.23,0.78,0.08,0.94-0.3c0.13-0.31,0.53-0.41,0.78-0.2c2.2,1.89,3.99,2.93,4.85,3.38
			c0.28,0.15,0.64-0.03,0.72-0.35c0.08-0.32,0.44-0.49,0.72-0.35c2.49,1.27,4.58,1.58,5.58,1.64c0.34,0.02,0.61-0.28,0.55-0.62
			c-0.18-0.99-0.72-3.03-2.26-5.37c-0.17-0.26-0.05-0.64,0.26-0.76c0.31-0.12,0.44-0.49,0.26-0.76c-0.54-0.81-1.77-2.46-3.9-4.44
			c-0.24-0.22-0.19-0.63,0.11-0.8c0.36-0.2,0.46-0.68,0.19-0.97c-0.95-1.02-3.14-3.21-5.97-4.82c-0.31-0.18-0.36-0.6-0.11-0.88
			l0.1-0.12c0.31-0.35,0.29-0.87-0.07-1.13c-1-0.76-2.95-2.07-5.8-3.11c-0.31-0.12-0.42-0.53-0.18-0.79
			c0.36-0.4,0.17-1.01-0.33-1.09c-2.07-0.34-6.59-1.26-11.09-3.38c-0.86-0.41-0.51-1.71,0.44-1.62c10.52,0.95,20.21,5.53,23.97,7.5
			c0.72,0.38,1.59-0.18,1.54-0.99c-0.03-0.54,0.52-0.94,1.04-0.78c4.68,1.46,8.5,1.75,10.55,1.79c0.73,0.01,1.29-0.57,1.25-1.3
			l-0.01-0.24c-0.03-0.58,0.47-1.04,1.04-0.95c5.25,0.75,10.28,0.22,12.53-0.11c0.62-0.09,0.99-0.73,0.76-1.31
			c-0.2-0.51,0.12-1.06,0.66-1.1c4.73-0.35,7.99-1.17,9.5-1.62c0.49-0.15,0.71-0.72,0.44-1.16c-0.27-0.44-0.05-1.01,0.44-1.16
			c4.36-1.34,7.13-3.28,8.37-4.3C434.5,143.16,434.46,142.52,434.02,142.23L434.02,142.23z"/>
		<path class="st13" d="M354.06,149.05c-0.01-1.54-1.33-2.77-2.91-2.62c-1.37,0.13-2.37,1.36-2.38,2.74
			c-0.12,31.71-2.33,44.28-3.17,47.94c-0.15,0.63,0.34,1.23,0.99,1.23h4.83h4.83c0.65,0,1.13-0.6,0.99-1.23
			C356.38,193.45,354.17,180.85,354.06,149.05L354.06,149.05z"/>
		<g>
			<path class="st12" d="M354.66,173.3c-0.48,1.47-1.93,2.5-3.59,2.34c-1.39-0.13-2.49-1.15-2.9-2.45
				c-0.74,14.54-1.98,21.38-2.57,23.91c-0.15,0.63,0.34,1.23,0.99,1.23h4.83h4.83c0.65,0,1.13-0.6,0.99-1.23
				C356.64,194.58,355.41,187.77,354.66,173.3z"/>
			<path class="st12" d="M356.84,130.28c3.15-11.57,8.28-21.25,10.76-25.54c0.61-1.05-0.13-2.39-1.32-2.39
				c-0.79,0-1.32-0.86-1.04-1.62c2.49-6.9,3.23-12.59,3.44-15.67c0.08-1.08-0.73-1.97-1.78-1.97h-0.35c-0.84,0-1.46-0.8-1.3-1.64
				c1.51-7.79,1.14-15.37,0.85-18.76c-0.08-0.95-1.02-1.56-1.89-1.23c-0.72,0.27-1.47-0.3-1.48-1.09
				c-0.13-7.11-1.05-12.06-1.58-14.37c-0.17-0.75-0.99-1.12-1.64-0.75c-0.65,0.37-1.46-0.01-1.64-0.75
				c-0.22-0.91-0.46-1.78-0.71-2.6c-2.95,1.03-5.76,3.45-5.76,8.93v72.45C351.41,123.26,351.3,129.7,356.84,130.28L356.84,130.28z"
				/>
			<path class="st12" d="M286.64,80.1c4.92,4.93,42.84,45.62,48.66,51.86c0.87,0.94,2.1,1.51,3.38,1.45
				c0.88-0.04,1.86-0.35,2.75-1.26c-5.05-9.44-7.53-19.05-8.48-23.38c-0.22-1.01-1.43-1.4-2.2-0.74c-0.56,0.48-1.39,0.33-1.67-0.34
				c-2.44-5.83-5.3-9.85-6.96-11.9c-0.59-0.73-1.63-0.8-2.31-0.16l-0.19,0.18c-0.58,0.54-1.44,0.43-1.83-0.2
				c-3.59-5.81-8.28-10.34-10.46-12.29c-0.6-0.54-1.54-0.37-1.92,0.33c-0.33,0.61-1.12,0.77-1.6,0.27
				c-4.26-4.39-7.77-6.94-9.47-8.06c-0.55-0.36-1.29-0.11-1.5,0.52c-0.21,0.63-0.95,0.88-1.5,0.52c-2.6-1.69-4.99-2.8-6.98-3.53
				C284.08,75.52,284.5,77.95,286.64,80.1z"/>
			<path class="st12" d="M420.48,86.21c-0.64-0.17-0.94-0.89-0.62-1.47c0.83-1.48,1.48-2.88,2.01-4.18
				c-2.75-0.06-5.76,0.59-8.14,2.97c-4.94,4.95-34.81,36.58-44.41,46.75c-1.7,1.8-1.79,4.58-0.22,6.49l0.54,0.66
				c8.57-5.04,17.15-7.86,21.15-9.01c0.99-0.28,1.31-1.52,0.6-2.25c-0.51-0.52-0.42-1.37,0.23-1.69c5.65-2.82,9.47-5.93,11.41-7.73
				c0.69-0.64,0.69-1.68,0.01-2.32l-0.19-0.18c-0.58-0.54-0.52-1.42,0.08-1.85c5.55-3.97,9.77-8.95,11.57-11.25
				c0.5-0.63,0.27-1.56-0.46-1.9c-0.63-0.29-0.84-1.07-0.38-1.59c4.1-4.54,6.41-8.21,7.42-9.98
				C421.42,87.1,421.12,86.37,420.48,86.21L420.48,86.21z"/>
			<path class="st12" d="M318.09,134.42c-0.66-0.45-1.56-0.02-1.64,0.77c-0.06,0.57-0.61,0.94-1.13,0.71
				c-4.5-1.97-8.26-2.69-10.3-2.95c-0.72-0.09-1.34,0.43-1.38,1.15l-0.01,0.2c-0.03,0.62-0.59,1.02-1.14,0.87
				c-5.13-1.33-10.19-1.36-12.46-1.28c-0.63,0.02-1.07,0.64-0.89,1.25c0.15,0.51-0.3,1.01-0.83,0.99c-4.71-0.17-8.03,0.28-9.57,0.56
				c-0.5,0.09-0.78,0.64-0.56,1.1c0.22,0.46-0.06,1.01-0.57,1.1c-2.12,0.4-3.9,0.98-5.33,1.57c1.04,1.19,2.71,2.28,5.42,2.72
				c5.95,0.96,39.36,2.53,50.65,3.04c2.23,0.1,4.28-1.23,5.1-3.31l0.2-0.5C326.53,139.82,320.73,136.21,318.09,134.42L318.09,134.42
				z"/>
			<path class="st12" d="M384.74,134.42c0.66-0.45,1.56-0.02,1.64,0.77c0.06,0.57,0.61,0.94,1.13,0.71c4.5-1.97,8.26-2.69,10.3-2.95
				c0.72-0.09,1.34,0.43,1.38,1.15l0.01,0.2c0.03,0.62,0.59,1.02,1.14,0.87c5.13-1.33,10.19-1.36,12.46-1.28
				c0.63,0.02,1.08,0.64,0.89,1.25c-0.15,0.51,0.3,1.01,0.83,0.99c4.71-0.17,8.03,0.28,9.57,0.56c0.5,0.09,0.78,0.64,0.56,1.1
				c-0.22,0.46,0.06,1.01,0.57,1.1c2.12,0.4,3.9,0.98,5.33,1.57c-1.04,1.19-2.71,2.28-5.42,2.72c-5.95,0.96-39.36,2.53-50.65,3.04
				c-2.23,0.1-4.28-1.23-5.1-3.31l-0.2-0.5C376.3,139.82,382.1,136.21,384.74,134.42L384.74,134.42z"/>
			<path class="st12" d="M372.98,155.3c0.36-0.4,0.17-1.01-0.33-1.09c-1.71-0.28-5.11-0.96-8.78-2.39c-0.61,1.1-1.18,3,0.66,4.85
				c2.82,2.83,20.65,18.43,20.65,18.43s1.52,1.14,3.73,0.18c-0.24-0.45-0.51-0.92-0.83-1.4c-0.17-0.26-0.05-0.64,0.26-0.76
				c0.31-0.12,0.44-0.49,0.26-0.76c-0.54-0.81-1.77-2.46-3.9-4.44c-0.24-0.22-0.19-0.63,0.11-0.8c0.36-0.2,0.46-0.68,0.19-0.97
				c-0.95-1.02-3.14-3.21-5.97-4.82c-0.31-0.18-0.36-0.6-0.11-0.88l0.1-0.12c0.31-0.35,0.29-0.87-0.07-1.13
				c-1-0.76-2.95-2.07-5.8-3.11C372.85,155.98,372.74,155.57,372.98,155.3L372.98,155.3z"/>
			<path class="st12" d="M338.1,156.23c-3.16,3.17-20.01,18.22-20.01,18.22s-1.98,1.87-0.62,4.28c0.37-0.16,0.75-0.32,1.14-0.52
				c0.28-0.14,0.64,0.03,0.72,0.35c0.08,0.32,0.44,0.49,0.72,0.35c0.86-0.45,2.65-1.49,4.85-3.38c0.24-0.21,0.65-0.11,0.78,0.2
				c0.16,0.38,0.63,0.53,0.94,0.3c1.12-0.82,3.54-2.76,5.46-5.39c0.21-0.29,0.64-0.29,0.89-0.01l0.1,0.12
				c0.31,0.35,0.83,0.38,1.13,0.06c0.87-0.91,2.38-2.7,3.74-5.42c0.15-0.3,0.57-0.36,0.8-0.09c0.36,0.4,0.98,0.28,1.12-0.21
				c0.52-1.84,1.76-5.68,3.96-9.55C342.52,154.82,340.21,154.12,338.1,156.23L338.1,156.23z"/>
		</g>
		<path class="st13" d="M357.25,72.23v24.66c0,0-0.8,9.12,9.03,5.46c-0.79,0-1.32-0.86-1.04-1.62c2.49-6.9,3.23-12.59,3.44-15.67
			c0.08-1.08-0.73-1.97-1.78-1.97h-0.35c-0.84,0-1.46-0.8-1.3-1.64c1.51-7.79,1.14-15.37,0.85-18.76
			C366.11,62.68,357.25,64.35,357.25,72.23L357.25,72.23z"/>
		<path class="st13" d="M404.16,101.51c-3.39,3.39-11.83,12.58-15.78,16.89c-2.27,2.48-0.26,6.47,3.07,6.08
			c0.06-0.01,0.11-0.01,0.17-0.02c5.65-2.82,9.47-5.93,11.41-7.73c0.69-0.64,0.69-1.68,0.01-2.32l-0.19-0.18
			c-0.58-0.54-0.52-1.42,0.08-1.85c5.55-3.97,9.77-8.95,11.57-11.25c0.5-0.63,0.27-1.56-0.46-1.9
			C414.05,99.24,408.65,97.02,404.16,101.51z"/>
		<path class="st13" d="M322.05,110.38c2.76,2.78,7.5,1.61,8.64-2.14c0.02-0.07,0.04-0.14,0.06-0.21c-0.56,0.48-1.39,0.33-1.67-0.34
			c-2.44-5.83-5.3-9.85-6.96-11.9c-0.59-0.73-1.63-0.8-2.31-0.16l-0.19,0.18c-0.58,0.54-1.44,0.43-1.83-0.2
			c-3.59-5.81-8.28-10.34-10.46-12.29c-0.6-0.54-1.54-0.37-1.92,0.33c-0.05,0.1-0.12,0.18-0.2,0.26c-0.78,1.05-3.49,5.17-0.83,8.28
			C306.64,94.83,316.83,105.13,322.05,110.38L322.05,110.38z"/>
	</g>
	<path class="st13" d="M380.76,353.03c0-5.33-0.4-10.57-1.18-15.71c-5.42,5.28-29.31,26.71-62.65,29.49v0
		c0,0-21.37,40.74,12.11,64.2c9.32-2.61,18.37-5.86,27.1-9.73C371.62,402.16,380.76,378.57,380.76,353.03L380.76,353.03z"/>
</g>
</svg>
