<?xml version="1.0" encoding="utf-8"?>
<!-- Generator: Adobe Illustrator 25.4.1, SVG Export Plug-In . SVG Version: 6.00 Build 0)  -->
<svg version="1.0" xmlns="http://www.w3.org/2000/svg" xmlns:xlink="http://www.w3.org/1999/xlink" x="0px" y="0px"
	 viewBox="0 0 3840 900.99" style="enable-background:new 0 0 3840 900.99;" xml:space="preserve">
<style type="text/css">
	.st0{fill:#16A34A;}
	.st1{fill:#1E2C1D;}
</style>
<g id="Background">
</g>
<g id="Main">
	<g>
		<g>
			<path class="st0" d="M570.39,564.36c60.53,4.61,123.43-40.49,123.43-40.49c-38.95-22.18-71.59-29.05-97.93-28.22
				c47.34-53.28,66.14-131.19,66.14-131.19c-66.7,27.75-103.46,64.37-123.72,96.74c13.08-100.14-33.05-214.57-33.05-214.57
				c-35.88,90.52-37.02,161.2-28.65,210.05c-20.8-31.22-57.17-65.75-120.79-92.22c0,0,18.8,77.91,66.14,131.19
				c-26.34-0.83-58.98,6.04-97.93,28.22c0,0,63.96,45.85,124.95,40.36c-15.02,12.17-30.53,31.09-43.05,60.47
				c0,0,90.66-19.11,102.4-78.81h2.55c11.74,59.7,102.4,78.81,102.4,78.81C600.8,595.42,585.36,576.54,570.39,564.36z"/>
			<g>
				<path class="st1" d="M618.55,629.03l-5.92-1.25c-0.94-0.2-23.35-5-47.57-17.29c-29.39-14.91-48.4-34.45-55.45-56.86
					c-7.04,22.41-26.06,41.95-55.45,56.86c-24.22,12.29-46.63,17.09-47.57,17.29l-5.92,1.25l2.37-5.57
					c9.78-22.94,22.22-41.61,37.08-55.64c-0.44,0-0.88,0.01-1.32,0.01c-28.71,0-56.93-9.95-76.45-18.85
					c-23.62-10.78-39.47-22.07-40.13-22.54l-4-2.87l4.27-2.43c32.45-18.48,63.57-28.11,92.59-28.67
					c-44.02-53.01-62.13-126.5-62.31-127.26l-1.46-6.03l5.73,2.38c49.95,20.78,88.42,48.56,114.55,82.69
					c-3.08-24.6-3.21-50.54-0.37-77.29c4.13-38.93,14.6-79.8,31.12-121.48l2.9-7.33l2.95,7.31c0.12,0.29,11.73,29.3,21.57,70.17
					c8.36,34.73,16.98,84.86,13.02,133.28c26.11-36.25,65.75-65.6,118.04-87.36l5.73-2.38l-1.46,6.03
					c-0.18,0.76-18.29,74.26-62.31,127.26c29.03,0.56,60.14,10.19,92.59,28.67l4.27,2.43l-4,2.87
					c-0.65,0.47-16.24,11.57-39.54,22.28c-19.57,8.99-48.05,19.12-77,19.13c14.85,14.03,27.29,32.7,37.06,55.63L618.55,629.03z
					 M459.02,560.16l-8.03,6.51c-15.78,12.79-29.07,30.74-39.54,53.4c8.29-2.25,23.89-7.09,40-15.27
					c21.34-10.84,48-29.98,53.81-59.53l0.5-2.54h7.73l0.5,2.54c9.46,48.1,73.5,69.25,93.8,74.79
					c-10.44-22.58-23.67-40.48-39.38-53.26l-7.8-6.35l10.03,0.76c2.84,0.22,5.68,0.32,8.53,0.32c47.19,0,94.57-28.28,108.65-37.42
					c-32.42-17.71-63.29-26.22-91.81-25.32l-7.32,0.23l4.86-5.47c38.6-43.45,58.22-104.28,63.76-123.66
					c-53.04,23.1-92.15,54.36-116.31,92.97l-7.67,12.26l1.87-14.34c10.9-83.48-20.14-178.14-29.97-205.33
					c-27.39,72.12-35.96,139.6-25.5,200.69l2.51,14.64L474,458.43c-24.37-36.59-62.51-66.35-113.43-88.53
					c5.54,19.38,25.16,80.21,63.76,123.66l4.86,5.47l-7.32-0.23c-28.52-0.9-59.39,7.62-91.81,25.32
					c15.08,9.79,68.32,41.5,118.64,36.97L459.02,560.16z"/>
			</g>
			<g>
				<path class="st1" d="M496.62,663.6l-5.13-3.66c29.7-41.58,15.21-111.36,15.06-112.06l6.16-1.32c0.16,0.74,3.9,18.43,3.86,41.73
					C516.54,609.94,513.05,640.59,496.62,663.6z"/>
			</g>
			<path class="st1" d="M508.94,506.04c-1.41-15.19-2.15-30.38-2.65-45.58c-0.5-15.19-0.76-30.38-0.76-45.58
				c-0.02-15.19,0.25-30.38,0.75-45.58c0.5-15.19,1.24-30.38,2.66-45.58c1.42,15.19,2.16,30.38,2.66,45.58
				c0.49,15.19,0.76,30.38,0.75,45.58c0.01,15.19-0.26,30.38-0.76,45.58C511.08,475.66,510.35,490.85,508.94,506.04z"/>
			<path class="st1" d="M415.71,442.66c7.41,5.03,14.4,10.52,21.24,16.16c6.87,5.62,13.52,11.47,20.06,17.45
				c6.53,5.99,12.93,12.12,19.12,18.48c6.22,6.33,12.28,12.82,17.92,19.78c-7.42-5.02-14.41-10.51-21.25-16.16
				c-6.87-5.62-13.52-11.47-20.05-17.46c-6.52-6-12.92-12.13-19.11-18.48C427.43,456.1,421.36,449.61,415.71,442.66z"/>
			<path class="st1" d="M388.48,526.44c8.54-1.3,17.08-1.99,25.62-2.45c8.54-0.5,17.08-0.69,25.62-0.7c8.54,0,17.08,0.19,25.62,0.69
				c8.54,0.46,17.08,1.15,25.62,2.46c-8.54,1.31-17.08,2-25.62,2.46c-8.54,0.5-17.08,0.69-25.62,0.69
				c-8.54-0.01-17.08-0.2-25.62-0.7C405.56,528.43,397.02,527.75,388.48,526.44z"/>
			<path class="st1" d="M449.56,590.05c3.07-4.41,6.48-8.48,10.01-12.41c3.51-3.96,7.19-7.74,10.97-11.43
				c3.79-3.68,7.67-7.25,11.73-10.64c4.04-3.42,8.2-6.71,12.7-9.65c-3.06,4.42-6.47,8.48-10,12.42c-3.51,3.96-7.19,7.74-10.97,11.42
				c-3.79,3.67-7.68,7.24-11.73,10.64C458.22,583.81,454.06,587.11,449.56,590.05z"/>
			<path class="st1" d="M600.81,442.66c-5.65,6.95-11.71,13.44-17.93,19.77c-6.19,6.36-12.59,12.49-19.11,18.48
				c-6.53,5.99-13.19,11.84-20.05,17.46c-6.84,5.65-13.83,11.13-21.25,16.16c5.64-6.96,11.71-13.45,17.92-19.78
				c6.19-6.36,12.59-12.49,19.12-18.48c6.54-5.98,13.19-11.83,20.06-17.45C586.41,453.18,593.4,447.69,600.81,442.66z"/>
			<path class="st1" d="M628.04,526.44c-8.54,1.3-17.08,1.99-25.62,2.45c-8.54,0.5-17.08,0.69-25.62,0.7
				c-8.54,0-17.08-0.19-25.62-0.69c-8.54-0.46-17.08-1.15-25.62-2.46c8.54-1.31,17.08-2,25.62-2.46c8.54-0.5,17.08-0.69,25.62-0.69
				c8.54,0.01,17.08,0.2,25.62,0.7C610.96,524.46,619.5,525.14,628.04,526.44z"/>
			<path class="st1" d="M566.96,590.05c-4.5-2.94-8.66-6.24-12.69-9.65c-4.06-3.4-7.94-6.97-11.73-10.64
				c-3.78-3.68-7.46-7.46-10.97-11.42c-3.53-3.94-6.94-8-10-12.42c4.5,2.94,8.66,6.23,12.7,9.65c4.06,3.4,7.94,6.97,11.73,10.64
				c3.78,3.69,7.46,7.47,10.97,11.43C560.48,581.58,563.89,585.64,566.96,590.05z"/>
		</g>
		<g>
			<g>
				<path class="st0" d="M1894.32,475.43v128.54c0,33.39,24.87,60.55,55.44,60.55h92.17c30.57,0,55.44-27.16,55.44-60.55V475.43
					H1894.32z"/>
			</g>
			<g>
				<path class="st1" d="M1966.23,299.28v-36.81c0-9.54,7.1-17.3,15.84-17.3h27.54c8.73,0,15.84,7.76,15.84,17.3v36.81h5.04v-36.81
					c0-12.58-9.37-22.81-20.88-22.81h-27.54c-11.51,0-20.88,10.23-20.88,22.81v36.81H1966.23z"/>
			</g>
			<g>
				<path class="st1" d="M1939.75,380.44v-49.55c0-16.53,12.31-29.97,27.44-29.97h57.3c15.13,0,27.44,13.45,27.44,29.97v49.55h5.04
					v-49.55c0-19.56-14.57-35.48-32.48-35.48h-57.3c-17.91,0-32.48,15.92-32.48,35.48v49.55H1939.75z"/>
			</g>
			<g>
				<path class="st1" d="M2052.11,399.98c3.08-5.42,4.86-11.8,4.86-18.64v-11.66h-5.04v11.66c0,7.04-2.24,13.52-5.97,18.64H2052.11z
					"/>
				<path class="st1" d="M1945.72,399.98c-3.73-5.12-5.97-11.6-5.97-18.64v-11.66h-5.04v11.66c0,6.83,1.78,13.22,4.86,18.64H1945.72
					z"/>
			</g>
			<path class="st1" d="M2010.94,395.87v118.89c0,7.39-4.48,13.67-10.62,15.76v5.69c0.02,0,0.04-0.01,0.05-0.02v3
				c0,2.73-2.04,4.96-4.54,4.96s-4.54-2.22-4.54-4.96v-3c0.01,0,0.02,0.01,0.04,0.01v-5.7c-6.14-2.1-10.6-8.37-10.6-15.75V395.87
				h-5.04v118.89c0,8.35,4.28,15.61,10.57,19.34v5.1c0,5.77,4.3,10.47,9.58,10.47s9.58-4.69,9.58-10.47v-5.1
				c6.28-3.73,10.57-10.99,10.57-19.34V395.87H2010.94z"/>
			<g>
				<path class="st1" d="M2041.92,664.52h-92.17c-30.57,0-55.44-27.16-55.44-60.55V454.96c0-33.39,24.87-60.55,55.44-60.55h92.17
					c30.57,0,55.44,27.16,55.44,60.55v149.01C2097.36,637.36,2072.49,664.52,2041.92,664.52z M1949.75,399.92
					c-27.79,0-50.39,24.69-50.39,55.04v149.01c0,30.35,22.61,55.04,50.39,55.04h92.17c27.79,0,50.39-24.69,50.39-55.04V454.96
					c0-30.35-22.61-55.04-50.39-55.04H1949.75z"/>
			</g>
			<rect x="1917.37" y="449.91" class="st1" width="5.26" height="166.06"/>
			
				<rect x="1991.7" y="376.35" transform="matrix(-1.836970e-16 1 -1 -1.836970e-16 2469.7261 -1518.9424)" class="st1" width="5.26" height="198.09"/>
			<rect x="1952.33" y="334.72" class="st1" width="5.26" height="40.02"/>
		</g>
		<g>
			<g>
				<g>
					<path class="st1" d="M1362.25,275.85l25.67-25.67c6.65-6.65,17.02-7.11,23.11-1.02l19.21,19.21
						c6.09,6.09,5.63,16.46-1.02,23.11l-25.67,25.67l3.52,3.52l25.67-25.67c8.77-8.77,9.37-22.44,1.34-30.47l-19.21-19.21
						c-8.03-8.03-21.7-7.43-30.47,1.34l-25.67,25.67L1362.25,275.85z"/>
				</g>
				<g>
					<path class="st1" d="M1287.18,313.98l34.56-34.56c11.53-11.53,29.49-12.32,40.04-1.77l39.96,39.96
						c10.55,10.55,9.76,28.52-1.77,40.04l-34.56,34.56l3.52,3.52l34.56-34.56c13.64-13.64,14.58-34.91,2.09-47.4l-39.96-39.96
						c-12.49-12.49-33.76-11.55-47.4,2.09l-34.56,34.56L1287.18,313.98z"/>
				</g>
				<g>
					<path class="st1" d="M1351.92,405.98c5.93-1.63,11.62-4.84,16.39-9.61l8.13-8.13l-3.52-3.52l-8.13,8.13
						c-4.91,4.91-10.99,7.86-17.16,8.83L1351.92,405.98z"/>
					<path class="st1" d="M1277.71,331.77c0.97-6.18,3.92-12.25,8.83-17.16l8.13-8.13l-3.52-3.52l-8.13,8.13
						c-4.77,4.76-7.97,10.46-9.61,16.39L1277.71,331.77z"/>
				</g>
				<path class="st1" d="M1326.07,374.39l-82.92,82.92c-5.16,5.16-12.65,6.41-18.4,3.58l-3.97,3.97c0.02,0.01,0.03,0.02,0.05,0.03
					l-2.09,2.09c-1.91,1.91-4.88,2.04-6.62,0.29c-1.75-1.75-1.61-4.72,0.29-6.62l2.09-2.09c0.01,0.01,0.01,0.02,0.02,0.03l3.97-3.97
					c-2.82-5.74-1.56-13.23,3.59-18.38l82.92-82.92l-3.52-3.52l-82.92,82.92c-5.82,5.82-7.9,13.87-6.12,20.86l-3.56,3.56
					c-4.02,4.02-4.3,10.3-0.62,13.98c3.68,3.68,9.96,3.41,13.98-0.62l3.56-3.56c6.98,1.78,15.04-0.29,20.86-6.12l82.92-82.92
					L1326.07,374.39z"/>
				<g>
					<path class="st1" d="M1273,328.44c2.69,1.73,5.23,3.76,7.57,6.1l64.28,64.28c2.5,2.5,4.65,5.23,6.46,8.13
						c0.09-0.03,0.17-0.07,0.26-0.1c0.23-0.09,0.45-0.17,0.68-0.26c0.45-0.18,0.3-0.12-0.46,0.18c0.97-0.16,2.18-1.08,2.95-1.62
						c0.44-0.3,0.9-0.52,1.38-0.67c-2.06-3.4-4.53-6.6-7.44-9.51l-64.28-64.28c-2.95-2.95-6.2-5.45-9.65-7.53
						c-0.04,0.3-0.1,0.59-0.19,0.87C1274.09,325.53,1273.54,326.98,1273,328.44z"/>
				</g>
				
					<rect x="1295.99" y="304.06" transform="matrix(0.7071 -0.7071 0.7071 0.7071 168.5269 1020.1722)" class="st1" width="39.47" height="5.19"/>
			</g>
			<g>
				<path class="st0" d="M1254.81,589c0,50.58-21.99,73.2-49.12,73.2c-27.13,0-49.12-22.62-49.12-73.2
					c0-50.58,46.17-109.96,49.12-109.96C1208.96,479.04,1254.81,538.42,1254.81,589z"/>
				<g>
					<path class="st1" d="M1205.69,664.52c-14.93,0-27.58-6.42-36.6-18.57c-9.85-13.27-14.84-32.43-14.84-56.95
						c0-27.17,12.92-55.83,23.75-75.09c7.03-12.5,13.61-21.78,16.91-26.19c8.21-11,9.82-11,10.78-11c1,0,2.68,0,10.92,11
						c3.28,4.39,9.85,13.63,16.9,26.2c10.78,19.22,23.63,47.85,23.63,75.08c0,24.52-4.99,43.68-14.85,56.95
						C1233.27,658.1,1220.61,664.52,1205.69,664.52z M1205.71,481.89c-7.43,7.25-46.82,60.54-46.82,107.11
						c0,44.37,17.49,70.87,46.79,70.87c29.3,0,46.79-26.49,46.79-70.87C1252.48,542.51,1213.01,488.96,1205.71,481.89z
						 M1204.88,481.19L1204.88,481.19L1204.88,481.19z M1206.56,481.16"/>
				</g>
				<g>
					<path class="st1" d="M1206.98,644.1c-3,0-9.4-0.72-15.93-6.02c-10.63-8.62-16.78-25.11-18.27-49l3.87-0.24
						c1.4,22.45,7.23,38.43,16.84,46.23c7.48,6.07,14.62,5.11,14.69,5.09l0.56,3.84C1208.66,644.01,1208.02,644.1,1206.98,644.1z"/>
				</g>
			</g>
		</g>
		<g>
			<g>
				<path class="st0" d="M2713.73,447.44c38.83,2.96,79.19-25.98,79.19-25.98c-24.99-14.23-45.93-18.64-62.83-18.11
					c30.37-34.19,42.44-84.17,42.44-84.17c-42.8,17.81-66.38,41.3-79.38,62.07c8.39-64.25-21.2-137.67-21.2-137.67
					c-23.02,58.08-23.75,103.43-18.38,134.77c-13.35-20.03-36.68-42.19-77.5-59.17c0,0,12.06,49.99,42.44,84.17
					c-16.9-0.53-37.84,3.87-62.83,18.11c0,0,41.04,29.42,80.16,25.89c-9.64,7.81-19.59,19.94-27.62,38.8c0,0,58.16-12.26,65.7-50.56
					h1.63c7.53,38.31,65.7,50.56,65.7,50.56C2733.25,467.37,2723.34,455.25,2713.73,447.44z"/>
				<g>
					<path class="st1" d="M2744.64,488.93l-3.8-0.8c-0.6-0.13-14.98-3.21-30.52-11.09c-18.86-9.56-31.06-22.1-35.58-36.48
						c-4.52,14.38-16.72,26.92-35.58,36.48c-15.54,7.88-29.92,10.96-30.52,11.09l-3.8,0.8l1.52-3.57
						c6.27-14.72,14.26-26.7,23.79-35.7c-0.28,0-0.57,0-0.85,0c-18.42,0-36.53-6.38-49.05-12.1c-15.15-6.92-25.32-14.16-25.75-14.46
						l-2.56-1.84l2.74-1.56c20.82-11.86,40.78-18.04,59.41-18.4c-28.24-34.01-39.86-81.16-39.98-81.65l-0.93-3.87l3.68,1.53
						c32.05,13.33,56.73,31.16,73.5,53.05c-1.98-15.79-2.06-32.42-0.24-49.59c2.65-24.98,9.37-51.2,19.97-77.94l1.86-4.7l1.89,4.69
						c0.07,0.18,7.53,18.8,13.84,45.02c5.36,22.28,10.9,54.44,8.35,85.51c16.75-23.26,42.19-42.09,75.73-56.05l3.68-1.53l-0.93,3.87
						c-0.12,0.49-11.74,47.64-39.98,81.65c18.63,0.36,38.58,6.54,59.41,18.4l2.74,1.56l-2.56,1.84c-0.42,0.3-10.42,7.43-25.37,14.29
						c-12.55,5.77-30.83,12.27-49.4,12.27c9.52,9,17.51,20.98,23.78,35.69L2744.64,488.93z M2642.28,444.75l-5.16,4.18
						c-10.13,8.21-18.65,19.72-25.37,34.26c5.32-1.44,15.33-4.55,25.66-9.8c13.69-6.96,30.8-19.23,34.53-38.19l0.32-1.63h4.96
						l0.32,1.63c6.07,30.86,47.16,44.43,60.18,47.98c-6.7-14.49-15.19-25.97-25.27-34.17l-5.01-4.07l6.44,0.49
						c1.82,0.14,3.65,0.2,5.47,0.2c30.28,0,60.68-18.14,69.71-24.01c-20.8-11.36-40.61-16.82-58.9-16.25l-4.69,0.15l3.12-3.51
						c24.77-27.88,37.35-66.91,40.91-79.34c-34.03,14.82-59.12,34.88-74.62,59.65l-4.92,7.86l1.2-9.2
						c7-53.56-12.92-114.3-19.23-131.74c-17.57,46.27-23.07,89.57-16.36,128.76l1.61,9.4l-5.29-7.93
						c-15.64-23.47-40.11-42.57-72.78-56.8c3.56,12.44,16.14,51.46,40.91,79.34l3.12,3.51l-4.69-0.15
						c-18.3-0.58-38.1,4.89-58.9,16.25c9.67,6.28,43.84,26.63,76.12,23.72L2642.28,444.75z"/>
				</g>
				<g>
					<path class="st1" d="M2664.75,506.31c1.44,0.17,2.87,0.41,4.29,0.73c16.6-28.21,8.07-69.21,7.68-71.02l-3.95,0.85
						C2672.87,437.3,2681.62,479.43,2664.75,506.31z"/>
				</g>
				<path class="st1" d="M2674.31,410.02c-0.9-9.75-1.38-19.49-1.7-29.24c-0.32-9.75-0.49-19.49-0.49-29.24
					c-0.01-9.75,0.16-19.49,0.48-29.24c0.32-9.75,0.8-19.49,1.7-29.24c0.91,9.75,1.38,19.49,1.7,29.24
					c0.32,9.75,0.49,19.49,0.48,29.24c0,9.75-0.17,19.49-0.49,29.24C2675.68,390.53,2675.21,400.28,2674.31,410.02z"/>
				<path class="st1" d="M2614.49,369.36c4.75,3.23,9.24,6.75,13.63,10.37c4.41,3.61,8.68,7.36,12.87,11.2
					c4.19,3.84,8.29,7.78,12.27,11.85c3.99,4.06,7.88,8.23,11.5,12.69c-4.76-3.22-9.24-6.74-13.63-10.37
					c-4.41-3.61-8.68-7.36-12.87-11.2c-4.18-3.85-8.29-7.78-12.26-11.86C2622.01,377.98,2618.12,373.82,2614.49,369.36z"/>
				<path class="st1" d="M2597.02,423.11c5.48-0.84,10.96-1.27,16.44-1.57c5.48-0.32,10.96-0.44,16.44-0.45
					c5.48,0,10.96,0.12,16.44,0.44c5.48,0.3,10.96,0.74,16.44,1.58c-5.48,0.84-10.96,1.28-16.44,1.58
					c-5.48,0.32-10.96,0.44-16.44,0.44c-5.48-0.01-10.96-0.13-16.44-0.45C2607.98,424.39,2602.5,423.95,2597.02,423.11z"/>
				<path class="st1" d="M2636.21,463.92c1.97-2.83,4.16-5.44,6.42-7.97c2.25-2.54,4.61-4.97,7.04-7.33
					c2.43-2.36,4.92-4.65,7.53-6.83c2.59-2.19,5.26-4.3,8.15-6.19c-1.97,2.83-4.15,5.44-6.42,7.97c-2.25,2.54-4.61,4.97-7.04,7.33
					c-2.43,2.36-4.93,4.65-7.53,6.83C2641.77,459.92,2639.1,462.04,2636.21,463.92z"/>
				<path class="st1" d="M2733.26,369.36c-3.62,4.46-7.52,8.62-11.5,12.69c-3.97,4.08-8.08,8.01-12.26,11.86
					c-4.19,3.84-8.46,7.59-12.87,11.2c-4.39,3.62-8.87,7.14-13.63,10.37c3.62-4.46,7.51-8.63,11.5-12.69
					c3.97-4.08,8.08-8.01,12.27-11.85c4.19-3.84,8.46-7.59,12.87-11.2C2724.02,376.11,2728.5,372.59,2733.26,369.36z"/>
				<path class="st1" d="M2750.73,423.11c-5.48,0.84-10.96,1.27-16.44,1.57c-5.48,0.32-10.96,0.44-16.44,0.45
					c-5.48,0-10.96-0.12-16.44-0.44c-5.48-0.3-10.96-0.74-16.44-1.58c5.48-0.84,10.96-1.28,16.44-1.58
					c5.48-0.32,10.96-0.44,16.44-0.44c5.48,0.01,10.96,0.13,16.44,0.45C2739.77,421.84,2745.25,422.28,2750.73,423.11z"/>
				<path class="st1" d="M2711.54,463.92c-2.89-1.89-5.55-4-8.14-6.19c-2.6-2.18-5.1-4.47-7.53-6.83c-2.43-2.36-4.79-4.79-7.04-7.33
					c-2.27-2.53-4.45-5.13-6.42-7.97c2.89,1.89,5.56,4,8.15,6.19c2.6,2.18,5.1,4.47,7.53,6.83c2.42,2.36,4.78,4.79,7.04,7.33
					C2707.38,458.49,2709.57,461.09,2711.54,463.92z"/>
			</g>
			<g>
				<path class="st1" d="M2748.69,532l-15.7,105.09l-0.03,0.41c0,12.59-10.24,22.84-22.84,22.84h-79.04
					c-12.59,0-22.84-10.24-22.84-22.84v-0.2L2592.51,532H2587c0,0.05,0,0.1,0,0.16v0.2l15.74,105.34
					c0.11,15.53,12.78,28.13,28.34,28.13h79.04c15.56,0,28.23-12.6,28.34-28.13l15.71-105.14l0.03-0.41c0-0.05,0-0.1,0-0.16H2748.69
					z"/>
			</g>
			<g>
				<path class="st1" d="M2751.29,535.13h-161.38c-6.73,0-12.2-5.47-12.2-12.2v-6.92c0-6.73,5.47-12.2,12.2-12.2h161.38
					c6.73,0,12.2,5.47,12.2,12.2v6.92C2763.49,529.66,2758.02,535.13,2751.29,535.13z M2589.91,509.32c-3.69,0-6.69,3-6.69,6.69
					v6.92c0,3.69,3,6.69,6.69,6.69h161.38c3.69,0,6.69-3,6.69-6.69v-6.92c0-3.69-3-6.69-6.69-6.69H2589.91z"/>
			</g>
			<g>
				
					<rect x="2616.58" y="551.35" transform="matrix(0.9909 -0.1348 0.1348 0.9909 -56.026 358.5161)" class="st1" width="5.51" height="83.23"/>
			</g>
		</g>
		<g>
			<g>
				<path class="st0" d="M3438.88,392.21c1.28-1.78,2.55-3.72,3.82-5.83c9.39-15.57,10.22-31.83,9.87-40.14
					c-0.5-12.16-3.95-22.21-8.59-25c-4.7-2.84-15.23-1.22-26.2,4.02c0.98-5.09,1.52-10.92,1.52-17.58c0-22.44-9.5-40.16-15.16-48.73
					c-8.23-12.45-18.13-20.81-24.64-20.81c-6.61,0-16.56,8.37-24.75,20.82c-5.62,8.54-15.05,26.24-15.05,48.73
					c0,5.37,0.36,10.2,1.01,14.54c-8.18-2.76-15.22-3.13-18.78-0.98c-4.63,2.8-8.08,12.84-8.59,25c-0.34,8.31,0.49,24.57,9.88,40.14
					c1.27,2.11,2.55,4.05,3.83,5.83c-4.54,0.2-8.12,1.24-10.07,3.11c-4.06,3.89-4.26,14.57-2.65,23.43
					c1.26,6.9,4.85,19.84,14.83,31.1c-4.35,0.91-8.21,2.52-9.91,5.1c-2.9,4.41-0.63,13.69,2.2,20.31
					c2.48,5.79,8.35,16.63,19.85,24.21c7.85,5.17,15.01,7.78,21.35,7.78c1.1,0,2.18-0.08,3.23-0.24
					c6.28-0.94,11.58-4.63,15.75-10.95c0.47-0.72,0.9-1.44,1.3-2.16c0.4,0.72,0.83,1.44,1.3,2.16c4.17,6.32,9.47,10.01,15.75,10.95
					c1.05,0.16,2.13,0.24,3.23,0.24c6.34,0,13.51-2.61,21.35-7.78c19.25-12.68,26.59-37.63,22.06-44.52
					c-1.45-2.2-5.08-4.01-9.97-5.04c10.02-11.27,13.63-24.24,14.89-31.16c1.61-8.86,1.42-19.54-2.64-23.43
					C3447,393.46,3443.42,392.41,3438.88,392.21z"/>
				<path class="st1" d="M3438.88,392.21c1.28-1.78,2.55-3.72,3.82-5.83c9.39-15.57,10.22-31.83,9.87-40.14
					c-0.5-12.16-3.95-22.21-8.59-25c-4.7-2.84-15.23-1.22-26.2,4.02c0.98-5.09,1.52-10.92,1.52-17.58c0-22.44-9.5-40.16-15.16-48.73
					c-8.23-12.45-18.13-20.81-24.64-20.81c-6.61,0-16.56,8.37-24.75,20.82c-5.62,8.54-15.05,26.24-15.05,48.73
					c0,5.37,0.36,10.2,1.01,14.54c-8.18-2.76-15.22-3.13-18.78-0.98c-4.63,2.8-8.08,12.84-8.59,25c-0.34,8.31,0.49,24.57,9.88,40.14
					c1.27,2.11,2.55,4.05,3.83,5.83c-4.54,0.2-8.12,1.24-10.07,3.11c-4.06,3.89-4.26,14.57-2.65,23.43
					c1.26,6.9,4.85,19.84,14.83,31.1c-4.35,0.91-8.21,2.52-9.91,5.1c-2.9,4.41-0.63,13.69,2.2,20.31
					c2.48,5.79,8.35,16.63,19.85,24.21c7.85,5.17,15.01,7.78,21.35,7.78c1.1,0,2.18-0.08,3.23-0.24
					c6.28-0.94,11.58-4.63,15.75-10.95c0.47-0.72,0.9-1.44,1.3-2.16c0.4,0.72,0.83,1.44,1.3,2.16c4.17,6.32,9.47,10.01,15.75,10.95
					c1.05,0.16,2.13,0.24,3.23,0.24c6.34,0,13.51-2.61,21.35-7.78c19.25-12.68,26.59-37.63,22.06-44.52
					c-1.45-2.2-5.08-4.01-9.97-5.04c10.02-11.27,13.63-24.24,14.89-31.16c1.61-8.86,1.42-19.54-2.64-23.43
					C3447,393.46,3443.42,392.41,3438.88,392.21z M3446.01,417.74c-1.2,6.58-4.7,19.15-14.69,29.67c1.6,2.04,1.91,5.02,0.94,7.42
					c5.18,0.58,8.84,1.96,9.68,3.24c2.16,3.27-2.94,25.13-20.44,36.66c-8.01,5.28-14.95,7.52-20.62,6.67
					c-4.69-0.7-8.57-3.47-11.86-8.47c-1.57-2.38-2.61-4.68-3.15-6.94c0.03-0.16,0.06-0.31,0.09-0.47h-0.19
					c-0.02-0.11-0.05-0.21-0.07-0.32c-1.89-0.14-3.81-0.03-5.73,0.1c0.03,0.23,0.08,0.46,0.12,0.68c-0.54,2.26-1.58,4.56-3.15,6.94
					c-3.29,4.99-7.17,7.76-11.86,8.47c-5.68,0.85-12.62-1.39-20.62-6.67c-10.27-6.76-15.53-16.5-17.76-21.71
					c-3.44-8.05-3.44-13.8-2.68-14.95c0.71-1.07,4.76-2.95,11.71-3.4c-1.13-1.95-1.27-4.48-0.43-6.59
					c-0.17-0.17-0.34-0.35-0.51-0.52c-10.1-10.55-13.63-23.21-14.83-29.82c-1.9-10.46-0.3-17.09,0.99-18.32
					c0.89-0.85,3.6-1.57,7.7-1.57c1.27,0,2.68,0.08,4.2,0.24c-0.34-2.03,0.13-4.22,1.39-5.82c-2.07-2.55-4.11-5.47-6.12-8.8
					c-15.07-24.98-8.03-54.46-3.22-57.36c0.64-0.39,1.72-0.59,3.14-0.59c3.19,0,8.12,1.03,13.74,3.25c1.02-0.73,2.32-1.17,3.91-1.17
					c0.68,0,1.31,0.09,1.88,0.24c-1.43-5.72-2.15-12.43-2.15-20.14c0-36.65,26.13-63.87,34.13-63.87c3.16,0,11.67,5.81,19.91,18.27
					c5.31,8.04,14.22,24.65,14.22,45.61c0,8.4-0.86,15.6-2.56,21.64c2.4,0.23,4.06,1.52,4.99,3.23c1.53-0.87,2.94-1.6,4.16-2.18
					c7.51-3.59,13.74-4.88,17.5-4.88c1.56,0,2.7,0.22,3.32,0.6c4.81,2.9,11.85,32.38-3.22,57.36c-1.94,3.21-3.9,6.03-5.89,8.51
					c1.32,1.39,1.92,3.35,1.84,5.28c0.3,0.21,0.58,0.45,0.83,0.7c0.95-0.07,1.85-0.11,2.69-0.11c4.1,0,6.82,0.72,7.7,1.57
					C3446.3,400.65,3447.91,407.28,3446.01,417.74z"/>
				<path class="st1" d="M3350.3,434.7c-1.88-1.33-3.22-2.89-4.42-4.52c-1.18-1.64-2.15-3.36-2.95-5.17
					c-0.8-1.8-1.42-3.69-1.84-5.66c-0.39-1.98-0.64-4.03-0.35-6.32c1.89,1.32,3.23,2.89,4.43,4.52c1.18,1.64,2.15,3.36,2.95,5.17
					c0.8,1.81,1.41,3.69,1.83,5.67C3350.33,430.37,3350.59,432.41,3350.3,434.7z"/>
				<path class="st1" d="M3386.46,458.28c-1.82-1.41-3.09-3.03-4.23-4.7c-1.11-1.69-2.01-3.45-2.73-5.29
					c-0.72-1.84-1.26-3.75-1.59-5.74c-0.31-2-0.47-4.05-0.08-6.33c1.83,1.4,3.1,3.02,4.24,4.7c1.11,1.69,2.01,3.45,2.72,5.29
					c0.72,1.84,1.25,3.75,1.59,5.74C3386.67,453.96,3386.84,456.01,3386.46,458.28z"/>
				<path class="st1" d="M3376.25,393.88c-1.82-1.41-3.09-3.03-4.23-4.7c-1.11-1.69-2.01-3.45-2.73-5.29
					c-0.72-1.84-1.26-3.75-1.59-5.74c-0.31-2-0.47-4.05-0.08-6.33c1.83,1.4,3.1,3.02,4.23,4.7c1.11,1.69,2.01,3.45,2.72,5.29
					c0.72,1.84,1.25,3.75,1.59,5.74C3376.47,389.56,3376.63,391.61,3376.25,393.88z"/>
				<path class="st1" d="M3412.95,429.47c0.21-2.29,0.9-4.23,1.71-6.09c0.83-1.84,1.84-3.55,3.01-5.14
					c1.16-1.59,2.49-3.07,3.99-4.42c1.52-1.33,3.17-2.57,5.3-3.46c-0.21,2.3-0.89,4.24-1.7,6.09c-0.83,1.84-1.84,3.54-3.01,5.13
					c-1.17,1.59-2.5,3.07-4,4.41C3416.72,427.34,3415.07,428.58,3412.95,429.47z"/>
				<path class="st1" d="M3354.39,391.18c-2.11-0.93-3.73-2.2-5.23-3.56c-1.48-1.37-2.78-2.87-3.92-4.48
					c-1.14-1.61-2.12-3.34-2.92-5.19c-0.78-1.87-1.43-3.82-1.59-6.12c2.11,0.93,3.74,2.19,5.24,3.55c1.48,1.37,2.78,2.87,3.91,4.49
					c1.14,1.61,2.11,3.34,2.91,5.19C3353.57,386.93,3354.22,388.88,3354.39,391.18z"/>
				<path class="st1" d="M3361.22,492.47c-2.11-0.93-3.73-2.2-5.23-3.56c-1.48-1.37-2.78-2.87-3.92-4.48
					c-1.14-1.61-2.12-3.34-2.92-5.19c-0.78-1.87-1.43-3.82-1.59-6.12c2.11,0.93,3.74,2.19,5.24,3.55c1.48,1.37,2.77,2.87,3.91,4.49
					c1.14,1.61,2.11,3.34,2.91,5.19C3360.4,488.22,3361.05,490.18,3361.22,492.47z"/>
				<path class="st1" d="M3381.78,351.08c-1.7-1.55-2.84-3.27-3.83-5.03c-0.96-1.77-1.72-3.61-2.29-5.5
					c-0.57-1.89-0.95-3.84-1.12-5.85c-0.14-2.02-0.14-4.08,0.43-6.31c1.71,1.55,2.85,3.27,3.84,5.03c0.96,1.77,1.72,3.61,2.28,5.5
					c0.57,1.89,0.94,3.84,1.11,5.85C3382.34,346.79,3382.34,348.85,3381.78,351.08z"/>
				<path class="st1" d="M3408.4,381.5c0.44-2.26,1.32-4.12,2.3-5.89c1.01-1.75,2.18-3.35,3.5-4.82c1.32-1.47,2.78-2.81,4.41-4
					c1.65-1.17,3.41-2.24,5.62-2.92c-0.43,2.26-1.31,4.13-2.3,5.9c-1.01,1.75-2.18,3.34-3.51,4.81c-1.32,1.47-2.79,2.8-4.41,4
					C3412.36,379.75,3410.6,380.83,3408.4,381.5z"/>
				<path class="st1" d="M3392.15,421.71c-0.56-2.23-0.56-4.29-0.41-6.31c0.18-2.01,0.56-3.96,1.13-5.85
					c0.57-1.89,1.33-3.72,2.3-5.49c1-1.76,2.14-3.48,3.85-5.02c0.57,2.23,0.57,4.3,0.42,6.31c-0.18,2.01-0.56,3.96-1.14,5.84
					c-0.57,1.89-1.33,3.72-2.3,5.49C3395,418.45,3393.86,420.16,3392.15,421.71z"/>
				<path class="st1" d="M3390.94,323.43c-0.56-2.23-0.56-4.29-0.41-6.31c0.18-2.01,0.56-3.96,1.13-5.85
					c0.57-1.89,1.33-3.72,2.3-5.49c1-1.76,2.14-3.48,3.85-5.02c0.57,2.23,0.57,4.3,0.42,6.31c-0.18,2.01-0.56,3.96-1.14,5.84
					c-0.57,1.89-1.33,3.72-2.3,5.49C3393.78,320.17,3392.64,321.89,3390.94,323.43z"/>
				<path class="st1" d="M3410.81,355.49c1.16-1.99,2.6-3.46,4.12-4.8c1.53-1.31,3.17-2.44,4.89-3.39c1.73-0.95,3.55-1.73,5.48-2.32
					c1.94-0.56,3.96-0.99,6.26-0.9c-1.16,1.99-2.6,3.47-4.12,4.81c-1.53,1.31-3.17,2.44-4.9,3.38c-1.73,0.95-3.56,1.73-5.49,2.31
					C3415.12,355.15,3413.11,355.58,3410.81,355.49z"/>
				<path class="st1" d="M3345.94,354.16c-2.23-0.56-4.05-1.53-5.76-2.62c-1.69-1.1-3.22-2.36-4.62-3.75
					c-1.4-1.39-2.66-2.93-3.76-4.62c-1.08-1.71-2.06-3.53-2.61-5.76c2.24,0.55,4.06,1.53,5.76,2.61c1.69,1.1,3.22,2.36,4.62,3.76
					c1.4,1.4,2.65,2.93,3.75,4.62C3344.4,350.11,3345.38,351.93,3345.94,354.16z"/>
				<path class="st1" d="M3364.57,300.76c-1.53-1.72-2.48-3.55-3.28-5.41c-0.77-1.86-1.33-3.77-1.7-5.71
					c-0.37-1.94-0.54-3.91-0.5-5.93c0.07-2.02,0.29-4.07,1.09-6.23c1.54,1.72,2.49,3.55,3.29,5.41c0.77,1.86,1.33,3.77,1.69,5.71
					c0.36,1.94,0.54,3.92,0.5,5.93C3365.58,296.55,3365.37,298.6,3364.57,300.76z"/>
				<path class="st1" d="M3384.92,283.98c-0.73-2.18-0.87-4.24-0.88-6.26c0.03-2.02,0.26-3.99,0.69-5.91
					c0.43-1.93,1.05-3.81,1.88-5.65c0.86-1.83,1.87-3.63,3.47-5.29c0.73,2.19,0.88,4.24,0.89,6.27c-0.03,2.02-0.27,3.99-0.7,5.91
					c-0.43,1.93-1.05,3.81-1.89,5.65C3387.52,280.52,3386.51,282.32,3384.92,283.98z"/>
				<path class="st1" d="M3410.32,486.58c-0.02-2.3,0.47-4.3,1.09-6.23c0.64-1.91,1.47-3.71,2.47-5.42c1-1.7,2.17-3.31,3.52-4.8
					c1.38-1.48,2.9-2.88,4.92-3.97c0.03,2.31-0.46,4.31-1.08,6.23c-0.64,1.91-1.48,3.71-2.48,5.41c-1,1.7-2.17,3.3-3.53,4.79
					C3413.85,484.07,3412.34,485.48,3410.32,486.58z"/>
			</g>
			<g>
				<path class="st0" d="M3388.02,529.57c0.57-2.12,1.08-4.39,1.52-6.8c3.29-17.88-1.68-33.39-4.93-41.04
					c-4.76-11.2-11.54-19.38-16.86-20.36c-5.4-0.99-14.68,4.23-23.09,13.01c-0.88-5.11-2.43-10.75-4.78-16.99
					c-7.92-20.99-23.07-34.23-31.39-40.24c-12.09-8.74-24.31-13.07-30.4-10.77c-6.19,2.33-12.54,13.67-15.81,28.21
					c-2.24,9.98-4.82,29.86,3.12,50.9c1.9,5.03,3.93,9.42,6.08,13.25c-8.63,0.31-15.34,2.44-17.92,5.71
					c-3.35,4.25-3.03,14.87,0.79,26.42c2.61,7.9,9.13,22.82,23.41,34.07c1.94,1.53,3.82,2.89,5.65,4.1
					c-4.18,1.79-7.16,4.03-8.32,6.46c-2.43,5.08,1.16,15.14,5.8,22.85c3.61,6.02,11.54,16.85,24.86,23.86
					c-3.75,2.38-6.8,5.26-7.48,8.27c-1.16,5.15,4.25,13.03,9.23,18.22c4.36,4.54,13.68,12.61,27.12,15.64
					c9.17,2.07,16.79,1.98,22.72-0.26c1.03-0.39,2.01-0.84,2.94-1.36c5.55-3.1,9.2-8.42,10.87-15.81c0.19-0.84,0.34-1.67,0.46-2.48
					c0.63,0.53,1.28,1.06,1.98,1.56c6.13,4.45,12.39,6.02,18.6,4.69c1.04-0.22,2.08-0.53,3.11-0.92
					c5.93-2.24,11.72-7.21,17.23-14.81c13.53-18.66,11.6-44.6,4.92-49.44c-2.13-1.55-6.17-1.95-11.11-1.2
					c5.4-14.09,4.19-27.49,2.93-34.41c-1.62-8.86-5.57-18.78-10.75-20.99C3396.05,527.87,3392.34,528.15,3388.02,529.57z"/>
				<path class="st1" d="M3388.02,529.57c0.57-2.12,1.08-4.39,1.52-6.8c3.29-17.88-1.68-33.39-4.93-41.04
					c-4.76-11.2-11.54-19.38-16.86-20.36c-5.4-0.99-14.68,4.23-23.09,13.01c-0.88-5.11-2.43-10.75-4.78-16.99
					c-7.92-20.99-23.07-34.23-31.39-40.24c-12.09-8.74-24.31-13.07-30.4-10.77c-6.19,2.33-12.54,13.67-15.81,28.21
					c-2.24,9.98-4.82,29.86,3.12,50.9c1.9,5.03,3.93,9.42,6.08,13.25c-8.63,0.31-15.34,2.44-17.92,5.71
					c-3.35,4.25-3.03,14.87,0.79,26.42c2.61,7.9,9.13,22.82,23.41,34.07c1.94,1.53,3.82,2.89,5.65,4.1
					c-4.18,1.79-7.16,4.03-8.32,6.46c-2.43,5.08,1.16,15.14,5.8,22.85c3.61,6.02,11.54,16.85,24.86,23.86
					c-3.75,2.38-6.8,5.26-7.48,8.27c-1.16,5.15,4.25,13.03,9.23,18.22c4.36,4.54,13.68,12.61,27.12,15.64
					c9.17,2.07,16.79,1.98,22.72-0.26c1.03-0.39,2.01-0.84,2.94-1.36c5.55-3.1,9.2-8.42,10.87-15.81c0.19-0.84,0.34-1.67,0.46-2.48
					c0.63,0.53,1.28,1.06,1.98,1.56c6.13,4.45,12.39,6.02,18.6,4.69c1.04-0.22,2.08-0.53,3.11-0.92
					c5.93-2.24,11.72-7.21,17.23-14.81c13.53-18.66,11.6-44.6,4.92-49.44c-2.13-1.55-6.17-1.95-11.11-1.2
					c5.4-14.09,4.19-27.49,2.93-34.41c-1.62-8.86-5.57-18.78-10.75-20.99C3396.05,527.87,3392.34,528.15,3388.02,529.57z
					 M3403.7,550.94c1.2,6.58,2.36,19.58-3.27,32.95c2.22,1.34,3.56,4.02,3.5,6.62c5.05-1.29,8.96-1.29,10.2-0.39
					c3.17,2.3,6.12,24.55-6.18,41.52c-5.63,7.76-11.34,12.32-16.94,13.52c-4.64,1-9.24-0.22-14.08-3.73
					c-2.31-1.67-4.09-3.46-5.39-5.38c-0.03-0.16-0.05-0.31-0.08-0.47l-0.18,0.07c-0.06-0.09-0.12-0.18-0.18-0.27
					c-1.81,0.54-3.58,1.32-5.32,2.12c0.11,0.2,0.23,0.4,0.35,0.6c0.29,2.3,0.13,4.82-0.5,7.6c-1.31,5.83-3.97,9.79-8.1,12.11
					c-5.01,2.8-12.29,3.15-21.65,1.04c-11.99-2.7-20.36-9.96-24.28-14.04c-6.06-6.32-8.09-11.69-7.79-13.05
					c0.28-1.25,3.42-4.44,9.75-7.31c-1.74-1.43-2.77-3.75-2.73-6.01c-0.22-0.1-0.44-0.2-0.67-0.31
					c-13.17-6.3-20.95-16.91-24.4-22.67c-5.47-9.11-6.31-15.89-5.54-17.49c0.53-1.11,2.82-2.74,6.65-4.19
					c1.19-0.45,2.54-0.87,4.02-1.26c-1.03-1.78-1.37-3.99-0.76-5.94c-2.84-1.65-5.78-3.67-8.84-6.08
					c-22.92-18.05-26.73-48.12-23.26-52.53c0.46-0.59,1.4-1.16,2.73-1.66c2.98-1.13,7.96-1.91,14-1.81c0.7-1.04,1.76-1.92,3.24-2.48
					c0.64-0.24,1.25-0.38,1.85-0.44c-3.36-4.85-6.4-10.87-9.12-18.08c-12.94-34.29,1.9-68.99,9.38-71.81
					c2.96-1.12,12.97,1.31,25.07,10.06c7.81,5.65,22.01,18.04,29.41,37.65c2.97,7.86,4.71,14.9,5.24,21.16
					c2.32-0.63,4.34-0.01,5.81,1.26c1.13-1.36,2.19-2.53,3.12-3.51c5.76-6.01,11.13-9.42,14.65-10.75c1.46-0.55,2.6-0.74,3.32-0.61
					c5.52,1.02,22.52,26.11,17.24,54.8c-0.68,3.69-1.52,7.02-2.51,10.04c1.72,0.84,2.98,2.46,3.59,4.29
					c0.36,0.09,0.7,0.21,1.02,0.36c0.86-0.4,1.7-0.75,2.48-1.05c3.83-1.45,6.63-1.73,7.76-1.25
					C3397.94,534.84,3401.79,540.48,3403.7,550.94z"/>
				<path class="st1" d="M3320.14,600.59c-2.23-0.58-4.03-1.57-5.74-2.67c-1.68-1.12-3.2-2.39-4.59-3.79
					c-1.39-1.4-2.63-2.95-3.72-4.65c-1.07-1.72-2.03-3.54-2.56-5.79c2.23,0.57,4.04,1.56,5.74,2.66c1.68,1.12,3.2,2.39,4.58,3.8
					c1.38,1.41,2.63,2.96,3.71,4.65C3318.64,596.53,3319.6,598.35,3320.14,600.59z"/>
				<path class="st1" d="M3330.01,553.25c-2.2-0.67-3.96-1.74-5.62-2.91c-1.63-1.19-3.1-2.52-4.42-3.99
					c-1.33-1.46-2.5-3.06-3.52-4.8c-0.99-1.76-1.87-3.63-2.31-5.89c2.21,0.67,3.97,1.73,5.62,2.9c1.63,1.19,3.1,2.52,4.42,3.99
					c1.32,1.47,2.5,3.06,3.51,4.81C3328.68,549.12,3329.57,550.99,3330.01,553.25z"/>
				<path class="st1" d="M3376.91,573.59c-0.61-2.22-0.65-4.28-0.55-6.3c0.13-2.01,0.47-3.97,1-5.87c0.53-1.9,1.24-3.75,2.18-5.54
					c0.96-1.78,2.06-3.52,3.74-5.1c0.62,2.22,0.66,4.28,0.56,6.3c-0.13,2.01-0.47,3.97-1.01,5.87c-0.53,1.9-1.25,3.75-2.18,5.54
					C3379.68,570.26,3378.58,572.01,3376.91,573.59z"/>
				<path class="st1" d="M3308.6,558.43c-2.3-0.13-4.27-0.74-6.15-1.48c-1.87-0.76-3.61-1.71-5.25-2.81
					c-1.64-1.1-3.16-2.37-4.56-3.82c-1.39-1.47-2.69-3.07-3.65-5.17c2.3,0.12,4.27,0.73,6.15,1.48c1.87,0.76,3.61,1.71,5.24,2.82
					c1.63,1.11,3.16,2.38,4.56,3.83C3306.33,554.75,3307.63,556.34,3308.6,558.43z"/>
				<path class="st1" d="M3350.75,650.79c-2.3-0.13-4.27-0.74-6.15-1.48c-1.87-0.76-3.61-1.71-5.25-2.81
					c-1.64-1.1-3.16-2.37-4.56-3.82c-1.39-1.47-2.69-3.07-3.65-5.17c2.3,0.12,4.27,0.73,6.15,1.48c1.87,0.76,3.61,1.71,5.24,2.82
					c1.63,1.11,3.16,2.38,4.56,3.83C3348.48,647.11,3349.78,648.7,3350.75,650.79z"/>
				<path class="st1" d="M3320.07,511.25c-2.14-0.85-3.81-2.06-5.36-3.36c-1.53-1.32-2.88-2.77-4.08-4.33
					c-1.2-1.57-2.25-3.25-3.11-5.07c-0.85-1.84-1.57-3.77-1.82-6.06c2.15,0.85,3.82,2.05,5.37,3.35c1.53,1.32,2.88,2.77,4.08,4.34
					c1.2,1.57,2.24,3.26,3.11,5.08C3319.09,507.03,3319.81,508.96,3320.07,511.25z"/>
				<path class="st1" d="M3355.72,530.31c-0.39-2.27-0.23-4.32,0.08-6.32c0.33-1.99,0.86-3.9,1.58-5.74
					c0.71-1.84,1.61-3.61,2.71-5.3c1.13-1.68,2.4-3.3,4.23-4.71c0.39,2.27,0.23,4.33-0.07,6.33c-0.33,1.99-0.86,3.9-1.58,5.74
					c-0.72,1.84-1.62,3.61-2.72,5.3C3358.81,527.28,3357.54,528.9,3355.72,530.31z"/>
				<path class="st1" d="M3354.71,573.67c-1.31-1.89-2.04-3.82-2.61-5.76c-0.54-1.94-0.87-3.9-1.01-5.87
					c-0.14-1.97-0.07-3.95,0.21-5.95c0.31-2,0.77-4.01,1.83-6.06c1.32,1.89,2.05,3.82,2.62,5.76c0.55,1.94,0.87,3.9,1,5.87
					c0.13,1.97,0.06,3.95-0.22,5.95C3356.22,569.61,3355.76,571.62,3354.71,573.67z"/>
				<path class="st1" d="M3318.88,482.15c-1.31-1.89-2.04-3.82-2.61-5.76c-0.54-1.94-0.87-3.9-1.01-5.87
					c-0.14-1.97-0.07-3.95,0.21-5.95c0.31-2,0.77-4.01,1.83-6.06c1.32,1.89,2.05,3.82,2.62,5.76c0.55,1.94,0.87,3.9,1,5.87
					c0.13,1.97,0.06,3.95-0.22,5.95C3320.39,478.09,3319.93,480.1,3318.88,482.15z"/>
				<path class="st1" d="M3348.79,505.12c0.38-2.27,1.21-4.16,2.16-5.94c0.97-1.77,2.1-3.4,3.38-4.9c1.28-1.5,2.71-2.88,4.31-4.11
					c1.62-1.21,3.35-2.33,5.54-3.05c-0.38,2.27-1.21,4.16-2.15,5.95c-0.97,1.77-2.1,3.4-3.39,4.89c-1.28,1.5-2.72,2.87-4.31,4.1
					C3352.7,503.28,3350.97,504.39,3348.79,505.12z"/>
				<path class="st1" d="M3287.62,526.78c-2.29,0.27-4.33-0.01-6.31-0.41c-1.97-0.44-3.85-1.07-5.65-1.88
					c-1.8-0.81-3.52-1.8-5.15-2.99c-1.62-1.22-3.17-2.57-4.48-4.47c2.29-0.27,4.33,0,6.31,0.41c1.97,0.43,3.85,1.07,5.65,1.89
					c1.8,0.81,3.52,1.81,5.14,3C3284.76,523.54,3286.31,524.89,3287.62,526.78z"/>
				<path class="st1" d="M3286.21,470.25c-2.04-1.07-3.57-2.45-4.98-3.9c-1.38-1.47-2.58-3.05-3.6-4.74
					c-1.03-1.68-1.89-3.47-2.56-5.37c-0.65-1.92-1.17-3.91-1.18-6.22c2.04,1.07,3.58,2.44,4.99,3.9c1.38,1.47,2.58,3.05,3.6,4.74
					c1.03,1.69,1.88,3.47,2.56,5.38C3285.67,465.95,3286.19,467.94,3286.21,470.25z"/>
				<path class="st1" d="M3299.32,447.36c-1.45-1.79-2.31-3.66-3.03-5.55c-0.69-1.9-1.16-3.82-1.44-5.78
					c-0.28-1.95-0.37-3.94-0.23-5.95c0.16-2.02,0.47-4.05,1.38-6.18c1.46,1.79,2.32,3.66,3.04,5.55c0.69,1.9,1.16,3.82,1.43,5.78
					c0.28,1.95,0.36,3.94,0.23,5.95C3300.53,443.2,3300.22,445.24,3299.32,447.36z"/>
				<path class="st1" d="M3394.6,627.94c-0.83-2.15-1.08-4.19-1.18-6.21c-0.07-2.02,0.07-3.99,0.4-5.94
					c0.33-1.95,0.86-3.86,1.6-5.73c0.77-1.87,1.69-3.71,3.2-5.46c0.84,2.15,1.09,4.19,1.19,6.21c0.07,2.02-0.07,3.99-0.41,5.94
					c-0.34,1.95-0.87,3.86-1.61,5.73C3397.03,624.36,3396.11,626.2,3394.6,627.94z"/>
			</g>
			<g>
				<path class="st0" d="M3374.51,528.93c-5.18,2.21-9.13,12.13-10.75,20.99c-1.26,6.91-2.47,20.32,2.93,34.41
					c-4.94-0.76-8.97-0.35-11.11,1.2c-6.67,4.84-8.61,30.78,4.92,49.44c5.52,7.61,11.3,12.58,17.23,14.81
					c1.03,0.39,2.07,0.7,3.11,0.92c6.21,1.34,12.47-0.24,18.6-4.69c0.7-0.51,1.35-1.03,1.98-1.56c0.12,0.81,0.27,1.64,0.46,2.48
					c1.67,7.39,5.32,12.71,10.87,15.81c0.93,0.52,1.91,0.97,2.94,1.36c5.93,2.24,13.56,2.33,22.72,0.26
					c13.44-3.03,22.76-11.1,27.12-15.64c4.98-5.19,10.39-13.07,9.23-18.22c-0.68-3.02-3.73-5.89-7.48-8.27
					c13.31-7.01,21.24-17.85,24.86-23.86c4.64-7.72,8.22-17.78,5.8-22.85c-1.16-2.43-4.14-4.67-8.32-6.46
					c1.83-1.22,3.71-2.58,5.65-4.1c14.28-11.25,20.8-26.18,23.41-34.07c3.82-11.55,4.14-22.17,0.79-26.42
					c-2.57-3.27-9.28-5.4-17.92-5.71c2.14-3.83,4.18-8.22,6.08-13.25c7.94-21.04,5.36-40.93,3.12-50.9
					c-3.27-14.54-9.62-25.88-15.81-28.21c-6.09-2.3-18.31,2.03-30.4,10.77c-8.32,6.02-23.47,19.25-31.39,40.24
					c-2.35,6.23-3.9,11.87-4.78,16.99c-8.41-8.78-17.69-14.01-23.09-13.01c-5.32,0.98-12.1,9.16-16.86,20.36
					c-3.25,7.65-8.22,23.16-4.93,41.04c0.45,2.42,0.95,4.68,1.52,6.8C3380.7,528.15,3376.99,527.87,3374.51,528.93z"/>
				<path class="st1" d="M3374.51,528.93c-5.18,2.21-9.13,12.13-10.75,20.99c-1.26,6.91-2.47,20.32,2.93,34.41
					c-4.94-0.76-8.97-0.35-11.11,1.2c-6.67,4.84-8.61,30.78,4.92,49.44c5.52,7.61,11.3,12.58,17.23,14.81
					c1.03,0.39,2.07,0.7,3.11,0.92c6.21,1.34,12.47-0.24,18.6-4.69c0.7-0.51,1.35-1.03,1.98-1.56c0.12,0.81,0.27,1.64,0.46,2.48
					c1.67,7.39,5.32,12.71,10.87,15.81c0.93,0.52,1.91,0.97,2.94,1.36c5.93,2.24,13.56,2.33,22.72,0.26
					c13.44-3.03,22.76-11.1,27.12-15.64c4.98-5.19,10.39-13.07,9.23-18.22c-0.68-3.02-3.73-5.89-7.48-8.27
					c13.31-7.01,21.24-17.85,24.86-23.86c4.64-7.72,8.22-17.78,5.8-22.85c-1.16-2.43-4.14-4.67-8.32-6.46
					c1.83-1.22,3.71-2.58,5.65-4.1c14.28-11.25,20.8-26.18,23.41-34.07c3.82-11.55,4.14-22.17,0.79-26.42
					c-2.57-3.27-9.28-5.4-17.92-5.71c2.14-3.83,4.18-8.22,6.08-13.25c7.94-21.04,5.36-40.93,3.12-50.9
					c-3.27-14.54-9.62-25.88-15.81-28.21c-6.09-2.3-18.31,2.03-30.4,10.77c-8.32,6.02-23.47,19.25-31.39,40.24
					c-2.35,6.23-3.9,11.87-4.78,16.99c-8.41-8.78-17.69-14.01-23.09-13.01c-5.32,0.98-12.1,9.16-16.86,20.36
					c-3.25,7.65-8.22,23.16-4.93,41.04c0.45,2.42,0.95,4.68,1.52,6.8C3380.7,528.15,3376.99,527.87,3374.51,528.93z M3376.73,534.14
					c1.13-0.48,3.93-0.2,7.76,1.25c0.78,0.3,1.62,0.65,2.48,1.05c0.33-0.15,0.67-0.27,1.02-0.36c0.6-1.83,1.86-3.46,3.59-4.29
					c-0.99-3.02-1.83-6.36-2.51-10.04c-5.28-28.69,11.72-53.78,17.24-54.8c0.71-0.13,1.86,0.06,3.32,0.61
					c3.52,1.33,8.9,4.74,14.65,10.75c0.93,0.97,1.99,2.15,3.12,3.51c1.48-1.27,3.49-1.9,5.81-1.26c0.54-6.25,2.28-13.29,5.24-21.16
					c7.4-19.61,21.6-32,29.41-37.65c12.1-8.75,22.12-11.18,25.07-10.06c7.48,2.82,22.32,37.52,9.38,71.81
					c-2.72,7.22-5.76,13.23-9.12,18.08c0.59,0.06,1.21,0.2,1.85,0.44c1.49,0.56,2.54,1.44,3.24,2.48c6.04-0.1,11.01,0.68,14,1.81
					c1.33,0.5,2.26,1.07,2.73,1.66c3.48,4.41-0.34,34.48-23.26,52.53c-3.06,2.41-6,4.42-8.84,6.08c0.61,1.94,0.28,4.15-0.76,5.94
					c1.48,0.39,2.83,0.82,4.02,1.26c3.83,1.45,6.12,3.08,6.65,4.19c0.77,1.6-0.07,8.38-5.54,17.49
					c-3.46,5.76-11.23,16.37-24.4,22.67c-0.22,0.11-0.45,0.21-0.67,0.31c0.04,2.26-0.99,4.58-2.73,6.01
					c6.34,2.87,9.47,6.06,9.75,7.31c0.3,1.35-1.72,6.73-7.79,13.05c-3.92,4.08-12.29,11.34-24.28,14.04
					c-9.36,2.11-16.64,1.76-21.65-1.04c-4.14-2.31-6.79-6.27-8.1-12.11c-0.63-2.78-0.79-5.3-0.5-7.6c0.12-0.2,0.24-0.4,0.35-0.6
					c-1.75-0.8-3.51-1.58-5.32-2.12c-0.06,0.09-0.12,0.18-0.18,0.27l-0.18-0.07c-0.03,0.15-0.05,0.31-0.08,0.47
					c-1.3,1.92-3.09,3.71-5.39,5.38c-4.84,3.51-9.45,4.73-14.08,3.73c-5.61-1.2-11.31-5.75-16.94-13.52
					c-12.3-16.96-9.36-39.22-6.18-41.52c1.24-0.9,5.15-0.9,10.2,0.39c-0.07-2.6,1.28-5.28,3.5-6.62
					c-5.63-13.37-4.47-26.37-3.27-32.95C3371.25,540.48,3375.1,534.84,3376.73,534.14z"/>
				<path class="st1" d="M3452.9,600.59c2.23-0.58,4.03-1.57,5.74-2.67c1.68-1.12,3.2-2.39,4.59-3.79c1.39-1.4,2.63-2.95,3.72-4.65
					c1.07-1.72,2.03-3.54,2.56-5.79c-2.23,0.57-4.04,1.56-5.74,2.66c-1.68,1.12-3.2,2.39-4.58,3.8c-1.38,1.41-2.62,2.96-3.71,4.65
					C3454.4,596.53,3453.44,598.35,3452.9,600.59z"/>
				<path class="st1" d="M3410.74,609.89c2.2-0.67,3.96-1.74,5.62-2.91c1.63-1.19,3.1-2.52,4.42-3.99c1.33-1.46,2.5-3.06,3.52-4.8
					c0.99-1.76,1.87-3.63,2.31-5.89c-2.21,0.67-3.97,1.73-5.62,2.9c-1.63,1.19-3.1,2.52-4.42,3.99c-1.32,1.47-2.5,3.06-3.51,4.81
					C3412.07,605.77,3411.19,607.63,3410.74,609.89z"/>
				<path class="st1" d="M3443.03,553.25c2.2-0.67,3.96-1.74,5.62-2.91c1.63-1.19,3.1-2.52,4.42-3.99c1.33-1.46,2.5-3.06,3.52-4.8
					c0.99-1.76,1.87-3.63,2.31-5.89c-2.21,0.67-3.97,1.73-5.62,2.9c-1.63,1.19-3.1,2.52-4.42,3.99c-1.32,1.47-2.5,3.06-3.51,4.81
					C3444.35,549.12,3443.47,550.99,3443.03,553.25z"/>
				<path class="st1" d="M3396.13,573.59c0.61-2.22,0.65-4.28,0.55-6.3c-0.13-2.01-0.47-3.97-1-5.87c-0.53-1.9-1.24-3.75-2.18-5.54
					c-0.96-1.78-2.06-3.52-3.74-5.1c-0.62,2.22-0.66,4.28-0.56,6.3c0.13,2.01,0.47,3.97,1.01,5.87c0.53,1.9,1.25,3.75,2.18,5.54
					C3393.35,570.26,3394.45,572.01,3396.13,573.59z"/>
				<path class="st1" d="M3464.43,558.43c2.3-0.13,4.27-0.74,6.15-1.48c1.87-0.76,3.61-1.71,5.25-2.81c1.64-1.1,3.16-2.37,4.56-3.82
					c1.39-1.47,2.69-3.07,3.65-5.17c-2.3,0.12-4.27,0.73-6.15,1.48c-1.87,0.76-3.61,1.71-5.24,2.82c-1.63,1.11-3.16,2.38-4.56,3.83
					C3466.7,554.75,3465.4,556.34,3464.43,558.43z"/>
				<path class="st1" d="M3422.28,650.79c2.3-0.13,4.27-0.74,6.15-1.48c1.87-0.76,3.61-1.71,5.25-2.81c1.64-1.1,3.16-2.37,4.56-3.82
					c1.39-1.47,2.69-3.07,3.65-5.17c-2.3,0.12-4.27,0.73-6.15,1.48c-1.87,0.76-3.61,1.71-5.24,2.82c-1.63,1.11-3.16,2.38-4.56,3.83
					C3424.56,647.11,3423.25,648.7,3422.28,650.79z"/>
				<path class="st1" d="M3452.97,511.25c2.14-0.85,3.81-2.06,5.36-3.36c1.53-1.32,2.88-2.77,4.08-4.33
					c1.2-1.57,2.25-3.25,3.11-5.07c0.85-1.84,1.57-3.77,1.82-6.06c-2.15,0.85-3.82,2.05-5.37,3.35c-1.53,1.32-2.88,2.77-4.08,4.34
					c-1.2,1.57-2.24,3.26-3.11,5.08C3453.95,507.03,3453.22,508.96,3452.97,511.25z"/>
				<path class="st1" d="M3417.32,530.31c0.39-2.27,0.23-4.32-0.08-6.32c-0.33-1.99-0.86-3.9-1.58-5.74
					c-0.71-1.84-1.61-3.61-2.71-5.3c-1.13-1.68-2.4-3.3-4.23-4.71c-0.39,2.27-0.23,4.33,0.07,6.33c0.33,1.99,0.86,3.9,1.58,5.74
					c0.72,1.84,1.62,3.61,2.72,5.3C3414.23,527.28,3415.5,528.9,3417.32,530.31z"/>
				<path class="st1" d="M3418.33,573.67c1.31-1.89,2.04-3.82,2.61-5.76c0.54-1.94,0.87-3.9,1.01-5.87
					c0.14-1.97,0.07-3.95-0.21-5.95c-0.31-2-0.77-4.01-1.83-6.06c-1.32,1.89-2.05,3.82-2.62,5.76c-0.55,1.94-0.87,3.9-1,5.87
					c-0.13,1.97-0.06,3.95,0.22,5.95C3416.81,569.61,3417.28,571.62,3418.33,573.67z"/>
				<path class="st1" d="M3454.16,482.15c1.31-1.89,2.04-3.82,2.61-5.76c0.55-1.94,0.87-3.9,1.01-5.87
					c0.14-1.97,0.07-3.95-0.21-5.95c-0.31-2-0.77-4.01-1.83-6.06c-1.32,1.89-2.05,3.82-2.62,5.76c-0.55,1.94-0.87,3.9-1,5.87
					c-0.13,1.97-0.06,3.95,0.22,5.95C3452.65,478.09,3453.11,480.1,3454.16,482.15z"/>
				<path class="st1" d="M3424.25,505.12c-0.38-2.27-1.21-4.16-2.16-5.94c-0.97-1.77-2.1-3.4-3.38-4.9
					c-1.28-1.5-2.71-2.88-4.31-4.11c-1.62-1.21-3.35-2.33-5.54-3.05c0.38,2.27,1.21,4.16,2.15,5.95c0.97,1.77,2.1,3.4,3.39,4.89
					c1.28,1.5,2.72,2.87,4.31,4.1C3420.33,503.28,3422.07,504.39,3424.25,505.12z"/>
				<path class="st1" d="M3485.41,526.78c2.29,0.27,4.33-0.01,6.31-0.41c1.97-0.44,3.85-1.07,5.65-1.88c1.8-0.81,3.52-1.8,5.15-2.99
					c1.62-1.22,3.17-2.57,4.48-4.47c-2.29-0.27-4.33,0-6.31,0.41c-1.97,0.43-3.85,1.07-5.65,1.89c-1.8,0.81-3.52,1.81-5.14,3
					C3488.28,523.54,3486.72,524.89,3485.41,526.78z"/>
				<path class="st1" d="M3486.83,470.25c2.04-1.07,3.57-2.45,4.98-3.9c1.38-1.47,2.58-3.05,3.6-4.74c1.03-1.68,1.89-3.47,2.56-5.37
					c0.65-1.92,1.17-3.91,1.18-6.22c-2.04,1.07-3.58,2.44-4.99,3.9c-1.38,1.47-2.58,3.05-3.6,4.74c-1.03,1.69-1.88,3.47-2.56,5.38
					C3487.37,465.95,3486.85,467.94,3486.83,470.25z"/>
				<path class="st1" d="M3473.71,447.36c1.45-1.79,2.31-3.66,3.03-5.55c0.69-1.9,1.16-3.82,1.44-5.78
					c0.28-1.95,0.37-3.94,0.23-5.95c-0.16-2.02-0.47-4.05-1.38-6.18c-1.46,1.79-2.32,3.66-3.04,5.55c-0.69,1.9-1.16,3.82-1.43,5.78
					c-0.28,1.95-0.36,3.94-0.23,5.95C3472.51,443.2,3472.82,445.24,3473.71,447.36z"/>
				<path class="st1" d="M3378.43,627.94c0.83-2.15,1.08-4.19,1.18-6.21c0.07-2.02-0.07-3.99-0.4-5.94
					c-0.33-1.95-0.86-3.86-1.6-5.73c-0.77-1.87-1.69-3.71-3.2-5.46c-0.84,2.15-1.09,4.19-1.19,6.21c-0.07,2.02,0.07,3.99,0.41,5.94
					c0.34,1.95,0.87,3.86,1.61,5.73C3376.01,624.36,3376.93,626.2,3378.43,627.94z"/>
			</g>
		</g>
	</g>
</g>
</svg>
