<?xml version="1.0" encoding="utf-8"?>
<!-- Generator: Adobe Illustrator 25.4.1, SVG Export Plug-In . SVG Version: 6.00 Build 0)  -->
<svg version="1.0" id="Layer_1" xmlns="http://www.w3.org/2000/svg" xmlns:xlink="http://www.w3.org/1999/xlink" x="0px" y="0px"
	 viewBox="0 0 309 172" style="enable-background:new 0 0 309 172;" xml:space="preserve">
<g>
	<path d="M195.21,136.92h-9.29V89.64h-55.54v47.11h-9.52V35.14h9.07v44.9h55.73V35.08h9.55L195.21,136.92z"/>
	<path d="M29.15,47.22c-0.15-10.02-2.27-8.35,8.42-11.48c14.69-4.3,29.4-4.34,42.9,3.79c18.07,10.88,23.84,28.18,23.22,48.19
		c-0.72,23-13.45,41.26-33.76,48.4c-12.48,4.39-25.13,3.63-37.74,0.05c-2.63-0.74-3.48-2.03-3.26-4.59
		c0.17-1.98,0.03-3.98,0.03-5.51c7.51,1.34,14.84,3.59,22.24,3.8c22.33,0.65,38.04-12.66,41.59-34.72
		c2.03-12.62,1.03-25.02-5.98-36.11C77.63,44.51,63.69,40.27,47.5,42.48C41.36,43.32,35.4,45.56,29.15,47.22z"/>
	<path d="M241.2,43.83h-29.25v-8.64h68.18v8.59H250.9v93.04h-9.7V43.83z"/>
</g>
</svg>
