<svg id="svg" version="1.1" xmlns="http://www.w3.org/2000/svg" xmlns:xlink="http://www.w3.org/1999/xlink" width="400" height="245.64564564564563" viewBox="0, 0, 400,245.64564564564563"><g id="svgg"><path id="path0" d="M144.717 62.071 L 144.717 93.429 148.464 93.263 C 177.726 91.962,202.472 79.074,215.718 58.237 C 220.227 51.143,223.833 39.511,223.833 32.055 L 223.833 30.713 184.275 30.713 L 144.717 30.713 144.717 62.071 M259.888 30.897 C 259.837 30.998,259.774 31.800,259.748 32.678 C 258.768 65.914,211.099 92.904,149.693 94.991 L 144.717 95.160 144.750 120.983 C 144.778 143.431,144.823 146.446,145.098 144.050 C 146.847 128.838,155.884 115.990,172.482 105.123 C 193.152 91.588,221.006 83.791,253.256 82.512 L 260.688 82.217 260.688 56.465 C 260.688 34.206,260.640 30.713,260.334 30.713 C 260.139 30.713,259.938 30.795,259.888 30.897 M254.791 84.204 C 214.563 86.708,184.467 111.593,181.680 144.656 L 181.509 146.683 221.098 146.683 L 260.688 146.683 260.688 115.356 L 260.688 84.029 258.415 84.075 C 257.165 84.100,255.534 84.158,254.791 84.204 M135.872 167.690 L 135.872 169.656 137.899 169.616 L 139.926 169.577 139.926 167.690 L 139.926 165.804 137.899 165.764 L 135.872 165.725 135.872 167.690 M347.482 165.796 L 345.455 165.868 345.455 185.145 L 345.455 204.423 347.604 204.423 L 349.754 204.423 349.693 191.831 C 349.659 184.905,349.603 176.198,349.570 172.482 L 349.509 165.725 347.482 165.796 M91.892 185.135 L 91.892 204.423 93.966 204.423 L 96.041 204.423 96.116 195.393 C 96.202 185.162,96.192 185.218,98.292 182.939 C 102.947 177.889,114.765 176.797,118.744 181.050 C 120.693 183.135,120.885 184.406,120.885 195.287 L 120.885 204.423 122.973 204.423 L 125.061 204.423 125.058 194.410 C 125.054 183.708,124.939 182.431,123.801 180.437 C 122.815 178.710,120.507 176.968,118.499 176.436 C 110.694 174.366,102.057 175.989,97.423 180.395 C 96.884 180.907,96.358 181.327,96.256 181.327 C 96.153 181.327,96.069 177.844,96.069 173.587 L 96.069 165.848 93.980 165.848 L 91.892 165.848 91.892 185.135 M61.671 175.430 C 54.518 176.755,51.106 179.334,51.106 183.415 C 51.106 187.814,54.588 190.013,63.145 191.020 C 64.834 191.219,68.151 191.610,70.516 191.889 C 77.049 192.659,79.255 193.603,79.871 195.892 C 80.632 198.719,77.600 201.260,72.648 201.945 C 63.036 203.275,54.545 200.482,54.545 195.991 C 54.545 195.633,54.242 195.577,52.303 195.577 L 50.061 195.577 50.198 196.259 C 51.449 202.514,56.701 205.275,67.322 205.260 C 78.212 205.245,83.863 202.570,84.424 197.165 C 84.988 191.721,81.943 189.951,69.414 188.441 C 57.491 187.003,55.608 186.237,55.677 182.848 C 55.743 179.638,60.537 177.866,68.182 178.228 C 73.951 178.501,77.085 179.925,78.379 182.862 L 78.893 184.029 81.001 184.029 L 83.109 184.029 82.943 182.985 C 82.436 179.819,79.461 177.297,74.693 175.993 C 72.181 175.306,64.203 174.961,61.671 175.430 M313.268 175.349 C 307.038 176.569,302.916 179.158,300.187 183.563 C 297.389 188.079,298.432 195.849,302.374 199.858 C 308.028 205.608,319.919 207.191,328.193 203.296 C 331.495 201.742,334.521 198.884,335.537 196.362 C 335.738 195.863,336.087 195.068,336.312 194.595 C 337.110 192.919,336.888 187.255,335.940 185.084 C 333.961 180.555,330.219 177.522,324.694 175.969 C 322.524 175.359,315.235 174.963,313.268 175.349 M165.890 175.949 C 161.878 176.616,158.821 178.044,156.350 180.407 C 154.971 181.726,154.791 181.519,154.791 178.610 L 154.791 176.167 152.829 176.167 L 150.868 176.167 150.802 190.295 L 150.737 204.423 152.887 204.423 L 155.037 204.423 155.037 196.237 C 155.037 185.839,155.179 184.962,157.209 182.871 C 161.770 178.171,172.862 176.854,177.129 180.506 C 179.508 182.542,179.913 184.965,179.805 196.499 L 179.730 204.423 181.746 204.423 L 183.762 204.423 183.834 195.025 C 183.915 184.475,183.802 185.156,185.868 182.857 C 190.317 177.910,202.269 176.814,206.107 181.001 C 208.139 183.218,208.354 184.626,208.354 195.722 L 208.354 204.423 210.454 204.423 L 212.554 204.423 212.481 193.550 L 212.408 182.678 211.594 181.086 C 208.974 175.962,201.825 174.269,192.015 176.450 C 191.339 176.600,190.676 176.809,190.541 176.914 C 190.405 177.020,189.797 177.305,189.189 177.547 C 187.807 178.098,186.168 179.183,184.889 180.392 C 183.668 181.547,183.716 181.550,182.820 180.249 C 180.150 176.369,173.512 174.682,165.890 175.949 M268.825 175.965 C 265.403 176.601,262.792 177.913,260.231 180.283 C 259.134 181.297,258.968 181.063,258.968 178.501 L 258.968 176.167 256.880 176.167 L 254.791 176.167 254.791 195.455 L 254.791 214.742 256.880 214.742 L 258.968 214.742 258.968 207.248 C 258.968 199.277,259.004 199.058,260.097 200.276 C 267.348 208.351,286.329 205.909,291.207 196.273 C 297.230 184.375,284.710 173.015,268.825 175.965 M135.815 190.295 L 135.749 204.423 137.899 204.423 L 140.049 204.423 140.049 190.295 L 140.049 176.167 137.965 176.167 L 135.880 176.167 135.815 190.295 M275.676 178.626 C 291.594 180.226,292.693 199.209,277.014 201.738 C 266.989 203.355,258.979 198.287,258.970 190.321 C 258.963 184.000,263.724 179.422,271.130 178.629 C 272.076 178.528,272.961 178.433,273.096 178.418 C 273.231 178.403,274.392 178.497,275.676 178.626 M321.650 178.628 C 335.510 181.240,336.219 198.390,322.604 201.754 C 320.817 202.196,314.578 202.199,312.776 201.758 C 299.239 198.448,299.786 181.306,313.514 178.646 C 315.079 178.343,320.078 178.332,321.650 178.628 M221.622 190.295 L 221.622 191.892 233.415 191.892 L 245.209 191.892 245.209 190.295 L 245.209 188.698 233.415 188.698 L 221.622 188.698 221.622 190.295 " stroke="none" fill="#a1171d" fill-rule="evenodd"></path></g></svg>