<svg height="512" viewBox="0 0 57 58" width="512" xmlns="http://www.w3.org/2000/svg"><g id="Page-1" fill="none" fill-rule="evenodd"><g id="028---Growing-Plant" fill-rule="nonzero"><path id="Rectangle-path" d="m8 20h4v8.55h-4z" fill="#7f8284"/><path id="Shape" d="m40 33c-.5522847 0-1-.4477153-1-1v-11c0-.5522847.4477153-1 1-1s1 .4477153 1 1v11c0 .5522847-.4477153 1-1 1z" fill="#81ccb8"/><path id="Shape" d="m56 21c-2.4274507-1.4009658-5.1988537-2.0938166-8-2-.8831505-.0025395-1.7653673.0576117-2.64.18 1.1862668-.7182545 2.2809427-1.5778772 3.26-2.56 2.4248584-2.2714079 3.9750473-5.3222363 4.38-8.62-3.2977637.4049527-6.3485921 1.95514159-8.62 4.38-.6217412.6170569-1.1935359 1.2824788-1.71 1.99.2191674-1.2783563.3295627-2.5729923.33-3.87 0-4.29-1.18-8.11-3-10.5-1.82 2.39-3 6.21-3 10.5.0004373 1.2970077.1108326 2.5916437.33 3.87-.5164641-.7075212-1.0882588-1.3729431-1.71-1.99-2.2714079-2.42485841-5.3222363-3.9750473-8.62-4.38.4049527 3.2977637 1.9551416 6.3485921 4.38 8.62.9790573.9821228 2.0737332 1.8417455 3.26 2.56-.8746327-.1223883-1.7568495-.1825395-2.64-.18-2.8011463-.0938166-5.5725493.5990342-8 2 2.4274507 1.4009658 5.1988537 2.0938166 8 2 1.1877421.0013534 2.3729732-.1091342 3.54-.33-.15.1333333-.3.2733333-.45.42-1.339523 1.2814918-2.0949551 3.0562151-2.09 4.91 1.8580654.0117342 3.6384539-.7445691 4.92-2.09 1.2654664-1.2207641 2.0106309-2.8830543 2.08-4.64.0688085 1.7591239.8181611 3.4227584 2.09 4.64 1.2788126 1.3433924 3.0552835 2.0995684 4.91 2.09.0095684-1.8547165-.7466076-3.6311874-2.09-4.91-.15-.15-.3-.29-.45-.42 1.1670268.2208658 2.3522579.3313534 3.54.33 2.8011463.0938166 5.5725493-.5990342 8-2zm-16.01 0v-.01h.01v.01z" fill="#4fba6f"/><path id="Shape" d="m53.238 41-3.86 15.484c-.2222319.8910181-1.0226862 1.5162055-1.941 1.516h-14.874c-.9183138.0002055-1.7187681-.6249819-1.941-1.516l-3.86-15.484z" fill="#d25627"/><path id="Shape" d="m56.725 33.22-1.581 7c-.1028134.4558841-.5076662.7797664-.975.78h-28.338c-.4673338-.0002336-.8721866-.3241159-.975-.78l-1.581-7c-.066871-.2965121.0047493-.607343.194631-.8446952.1898818-.2373522.4774099-.3754568.781369-.3753048h31.5c.3036083.0004553.5905682.1388172.7799937.3760853.1894256.2372682.2608006.5477445.1940063.8439147z" fill="#e57e25"/><path id="Shape" d="m30 37h-2c-.5522847 0-1-.4477153-1-1s.4477153-1 1-1h2c.5522847 0 1 .4477153 1 1s-.4477153 1-1 1z" fill="#f3d55b"/><path id="Shape" d="m41 37h-7c-.5522847 0-1-.4477153-1-1s.4477153-1 1-1h7c.5522847 0 1 .4477153 1 1s-.4477153 1-1 1z" fill="#f3d55b"/><path id="Shape" d="m20 35.857c0 7.343-5 22.143-10 22.143s-10-14.8-10-22.143 4.477-8.857 10-8.857 10 1.52 10 8.857z" fill="#3f5c6c"/><path id="Shape" d="m10 27v31c-5 0-10-14.81-10-22.14s4.48-8.86 10-8.86z" fill="#547580"/><path id="Shape" d="m10 0c-2.209139 0-4 1.790861-4 4v14c0 2.209139 1.790861 4 4 4s4-1.790861 4-4v-14c0-2.209139-1.790861-4-4-4zm0 5c-.55228475 0-1-.44771525-1-1s.44771525-1 1-1c.5522847 0 1 .44771525 1 1s-.4477153 1-1 1z" fill="#805333"/><path id="Shape" d="m12.9 27.18v.03c-1.24 13.08-4.57 13.07-5.8 0v-.03c.96129244-.127491 1.93032028-.1876375 2.9-.18.9696797-.0076375 1.9387076.052509 2.9.18z" fill="#2c3e50"/></g></g></svg>