<svg id="Layer_1" enable-background="new 0 0 512 512" height="512" viewBox="0 0 512 512" width="512" xmlns="http://www.w3.org/2000/svg"><g><path d="m256 21.996c-135.311 0-245.002 109.691-245.002 245.002l74.069 175.498c44.144 43.002 104.439 69.504 170.933 69.504 135.311 0 245.002-109.691 245.002-245.002s-109.691-245.002-245.002-245.002z" fill="#1c2e7a"/><path d="m472.904 328.526c-7.65-8.902-18.909-8.634-30.188-2.352-26.41 14.71-83.724 40.959-83.724 40.959h-.002c1.822-2.928 2.892-6.536 2.892-10.978 0-14.376-21.448-22.13-46.03-26.3-18.897-5.18-39.058-6.042-61.875-21.28-26.444-17.661-54.78-13.865-74.795-7.912-21.492 6.392-37.346 3.951-53.322 4.481v3.843 105.796c8.825.777 18.95-.706 32.929 4.979 24.55 9.982 90.98 32.254 136.49 32.254 37.465 0 130.225-53.18 172.819-89.769 11.197-9.618 14.379-22.581 4.806-33.721z" fill="#f9ba8f"/><path d="m358.993 367.133c-5.47 6.816-14.61 10.49-23.348 9.266l-81.426-11.328c-4.189-.584-8.061 2.341-8.644 6.532s2.341 8.06 6.532 8.644l81.426 11.328c14.306 1.988 29.291-3.721 39.011-17.378.693-1.022 1.595-2.964 7.496-14.043.545-1.033.822-2.133.871-3.227-12.721 5.993-21.918 10.206-21.918 10.206z" fill="#fd995b"/><g><path d="m197.541 296.621c-19.043 2.613-25.36 8.523-49.995 8.523h-21.685v109.639c8.825.777 18.95-.706 32.929 4.979 8.219 3.342 21.137 8.062 36.388 12.862-45.421-34.707-43.936-103.096 2.363-136.003z" fill="#fd995b"/></g><path d="m118.858 276.227h-46.283v153.172c4.003 4.518 8.17 8.887 12.493 13.097h33.791c4.996 0 9.045-4.05 9.045-9.045v-148.179c0-4.995-4.05-9.045-9.046-9.045z" fill="#e9efff"/><path d="m81.059 360.037c-2.513-1.771-5.547-2.428-8.484-2.026v71.388c4.003 4.518 8.17 8.887 12.493 13.097h33.791c4.996 0 9.045-4.05 9.045-9.045v-78.882s-22.351 22.732-46.845 5.468z" fill="#bec8f7"/><path d="m74.618 431.701c0-37.319 0-139.583 0-156.117 0-4.992-4.047-9.039-9.039-9.039h-54.575c0 .152-.006.302-.006.454 0 63.411 24.091 121.196 63.62 164.702z" fill="#73c3f9"/><path d="m67.796 359.699c-7.93 4.792-22.038 9.925-38.359.677 10.897 26.411 26.266 50.506 45.182 71.325 0-16.354 0-45.181 0-73.799-2.35-.074-4.728.531-6.823 1.797z" fill="#1e9ef4"/><g><path d="m478.289 208.071c-2.523-1.632-8.09-4.676-16.488-6.26-.944-.178-1.472-1.193-1.059-2.061.413-.869-.112-1.89-1.058-2.061-2.913-.528-9.161-1.375-18.043-1.045-1.015.038-1.719-.929-1.458-1.911.297-1.122-.523-2.238-1.691-2.276-4.254-.14-13.752-.09-23.375 2.402-1.048.271-2.082-.478-2.142-1.558l-.025-.448c-.076-1.364-1.243-2.333-2.599-2.159-3.825.49-10.872 1.837-19.302 5.518-.936.409-2.046-.209-2.103-1.228-.085-1.532-1.805-2.39-3.077-1.531-6.607 4.457-23.791 15.035-43.246 18.958-1.305.263-2.095-1.41-1.067-2.256 20.155-16.601 45.616-25.083 55.676-27.972 1.868-.537 2.455-2.875 1.098-4.236-.957-.96-.755-2.547.459-3.15 10.61-5.276 17.766-11.118 21.407-14.483 1.283-1.185 1.281-3.141.007-4.335l-.421-.395c-1.018-.954-.896-2.593.239-3.404 10.407-7.428 18.303-16.749 21.681-21.058.94-1.199.495-2.96-.899-3.573-1.176-.517-1.493-2.033-.632-2.987 7.669-8.487 11.999-15.35 13.887-18.66.613-1.075.04-2.436-1.158-2.747-1.197-.311-1.762-1.67-1.157-2.748 5.372-9.575 6.975-17.571 7.453-21.414.159-1.275-.971-2.334-2.233-2.093-3.804.725-11.68 2.842-20.887 8.822-1.037.674-2.429.198-2.817-.977s-1.783-1.659-2.816-.978c-3.18 2.097-9.749 6.863-17.722 15.064-.896.921-2.429.704-3.021-.436-.702-1.352-2.488-1.682-3.624-.667-4.082 3.649-12.872 12.132-19.612 22.997-.735 1.185-2.363 1.412-3.381.459l-.422-.395c-1.274-1.194-3.226-1.07-4.326.287-3.122 3.851-8.49 11.37-13.068 22.299-.524 1.25-2.094 1.555-3.114.662-1.445-1.266-3.741-.529-4.156 1.37-2.313 10.594-9.547 38.071-25.994 59.637-.803 1.053-2.486.346-2.301-.966 4.127-29.409 18.088-55.973 24.019-66.22 1.142-1.974-.241-4.475-2.47-4.473-1.479.001-2.467-1.606-1.95-3.035 4.667-12.927 6.051-23.587 6.453-29.343.141-2.027-1.37-3.687-3.342-3.687h-.652c-1.575 0-2.74-1.489-2.431-3.081 2.837-14.592 2.146-28.792 1.601-35.141-.153-1.781-1.907-2.927-3.541-2.303-1.342.513-2.757-.57-2.784-2.046-.236-13.314-1.967-22.59-2.967-26.904-.325-1.401-1.848-2.1-3.074-1.411-1.226.688-2.74-.016-3.074-1.413-2.97-12.42-7.829-20.49-10.4-24.129-.84-1.189-2.601-1.189-3.44 0-2.571 3.639-7.43 11.709-10.4 24.129-.334 1.397-1.848 2.101-3.074 1.413-1.227-.689-2.75.011-3.074 1.411-1 4.313-2.732 13.59-2.967 26.904-.026 1.476-1.441 2.559-2.784 2.046-1.634-.624-3.388.521-3.541 2.303-.545 6.348-1.237 20.549 1.601 35.141.309 1.592-.856 3.081-2.431 3.081h-.652c-1.971 0-3.483 1.66-3.342 3.687.402 5.756 1.786 16.416 6.453 29.343.516 1.43-.471 3.036-1.95 3.035-2.23-.001-3.613 2.5-2.47 4.473 5.931 10.247 19.892 36.811 24.019 66.22.184 1.312-1.498 2.019-2.301.966-16.447-21.566-23.681-49.043-25.994-59.637-.415-1.899-2.711-2.636-4.156-1.37-1.02.893-2.59.588-3.114-.662-4.578-10.929-9.946-18.448-13.068-22.299-1.1-1.357-3.052-1.481-4.326-.287l-.421.395c-1.017.954-2.646.727-3.381-.459-6.739-10.866-15.53-19.348-19.611-22.997-1.136-1.015-2.922-.685-3.624.667-.592 1.14-2.126 1.358-3.021.436-7.973-8.201-14.542-12.967-17.722-15.064-1.033-.681-2.428-.197-2.816.978-.388 1.174-1.78 1.65-2.817.977-9.208-5.98-17.083-8.097-20.887-8.822-1.262-.241-2.392.818-2.233 2.093.478 3.843 2.081 11.839 7.453 21.414.605 1.078.04 2.437-1.157 2.748-1.198.311-1.771 1.672-1.158 2.747 1.887 3.31 6.218 10.172 13.887 18.66.862.954.545 2.469-.632 2.987-1.394.613-1.839 2.374-.899 3.573 3.378 4.309 11.274 13.63 21.681 21.058 1.135.81 1.257 2.45.239 3.404l-.421.395c-1.274 1.194-1.276 3.15.007 4.335 3.641 3.365 10.797 9.207 21.407 14.483 1.214.604 1.417 2.191.459 3.15-1.357 1.361-.77 3.699 1.098 4.236 10.06 2.889 35.521 11.371 55.676 27.972 1.027.846.238 2.519-1.067 2.256-19.455-3.923-36.639-14.501-43.246-18.958-1.272-.858-2.992-.001-3.077 1.531-.056 1.02-1.167 1.637-2.102 1.228-8.431-3.681-15.477-5.028-19.302-5.518-1.355-.174-2.523.795-2.598 2.159l-.021.376c-.064 1.153-1.098 1.902-2.146 1.631-9.623-2.491-19.12-2.541-23.375-2.402-1.168.038-1.989 1.154-1.691 2.276.26.982-.443 1.949-1.458 1.911-8.881-.329-15.129.517-18.043 1.045-.946.172-1.471 1.193-1.058 2.061.412.868-.115 1.883-1.059 2.061-8.398 1.583-13.965 4.627-16.488 6.26-.836.541-.902 1.731-.131 2.361 2.327 1.902 7.523 5.543 15.694 8.045.919.281 1.331 1.348.825 2.166s-.098 1.891.824 2.166c2.837.847 8.953 2.38 17.816 3.035 1.013.075 1.606 1.113 1.238 2.06-.42 1.082.272 2.282 1.429 2.45 4.213.609 13.658 1.61 23.497.198 1.071-.154 2.016.706 1.956 1.786l-.025.448c-.076 1.365.978 2.456 2.344 2.434 3.856-.064 11.008-.623 19.794-3.349.975-.303 2.01.434 1.954 1.453-.085 1.532 1.53 2.575 2.889 1.862 7.044-3.691 25.232-12.276 44.953-14.048 1.782-.16 2.452 2.276.834 3.038-8.427 3.969-16.916 5.697-20.79 6.33-.944.154-1.292 1.298-.624 2.046.443.496.249 1.264-.342 1.48-5.338 1.953-9.002 4.39-10.878 5.822-.66.504-.714 1.463-.124 2.124l.195.218c.471.528.366 1.324-.212 1.654-5.298 3.02-9.421 7.116-11.193 9.026-.497.536-.322 1.436.358 1.814.558.311.652 1.08.209 1.49-3.989 3.702-6.299 6.807-7.314 8.317-.33.49-.087 1.191.49 1.415s.815.923.489 1.415c-2.898 4.376-3.904 8.202-4.244 10.054-.116.631.39 1.197 1.03 1.153 1.879-.128 5.794-.695 10.469-3.079.526-.268 1.194.048 1.351.646.157.599.826.919 1.351.647 1.615-.838 4.961-2.783 9.091-6.327.458-.393 1.212-.213 1.457.377.299.718 1.173.994 1.762.561 2.099-1.545 6.635-5.177 10.235-10.1.393-.537 1.196-.551 1.667-.023l.195.219c.59.661 1.549.716 2.124.117 1.635-1.701 4.471-5.066 7.015-10.149.281-.562 1.067-.668 1.509-.172.667.748 1.843.531 2.103-.389 1.408-4.989 5.623-17.754 14.051-27.303 1.916-2.171 4.703-3.373 7.598-3.373 2.896 0 5.682 1.202 7.599 3.373 8.428 9.549 12.643 22.314 14.051 27.303.26.92 1.436 1.137 2.103.389.443-.496 1.228-.39 1.509.172 2.544 5.083 5.38 8.448 7.015 10.149.576.599 1.534.544 2.124-.117l.195-.219c.471-.528 1.274-.514 1.667.023 3.6 4.923 8.136 8.555 10.235 10.1.589.434 1.463.157 1.762-.561.245-.59.999-.769 1.457-.377 4.13 3.544 7.476 5.488 9.091 6.327.524.272 1.193-.048 1.351-.647.157-.598.825-.914 1.351-.646 4.676 2.384 8.59 2.951 10.469 3.079.64.044 1.145-.523 1.03-1.154-.34-1.852-1.346-5.678-4.243-10.054-.326-.492-.088-1.192.489-1.415.577-.224.82-.925.49-1.415-1.016-1.509-3.326-4.614-7.314-8.317-.442-.41-.349-1.18.209-1.49.679-.378.855-1.278.358-1.814-1.772-1.91-5.895-6.007-11.193-9.026-.578-.329-.683-1.126-.212-1.654l.195-.218c.59-.661.536-1.62-.124-2.124-1.875-1.432-5.539-3.869-10.878-5.822-.59-.216-.785-.984-.342-1.48.668-.747.319-1.892-.624-2.046-3.875-.632-12.363-2.36-20.79-6.33-1.618-.762-.948-3.198.834-3.038 19.722 1.772 37.909 10.356 44.954 14.048 1.359.712 2.973-.33 2.889-1.862-.057-1.019.979-1.756 1.954-1.453 8.786 2.726 15.938 3.285 19.794 3.349 1.366.023 2.42-1.069 2.344-2.434l-.025-.448c-.06-1.081.885-1.94 1.956-1.786 9.84 1.412 19.284.411 23.497-.198 1.157-.167 1.849-1.367 1.429-2.45-.367-.947.225-1.985 1.238-2.06 8.863-.655 14.979-2.187 17.816-3.035.922-.275 1.33-1.348.824-2.166-.506-.817-.094-1.884.825-2.166 8.171-2.502 13.367-6.143 15.694-8.045.764-.629.698-1.82-.138-2.361z" fill="#168c80"/><path d="m328.324 220.848c-.01-2.892-2.5-5.197-5.45-4.911-2.568.249-4.453 2.555-4.462 5.136-.228 59.392-4.363 82.927-5.942 89.774-.273 1.185.633 2.311 1.849 2.311h9.05 9.05c1.217 0 2.122-1.125 1.849-2.311-1.582-6.855-5.725-30.441-5.944-89.999z" fill="#9ed369"/><g fill="#68c37d"><path d="m329.458 266.261c-.902 2.751-3.616 4.681-6.728 4.379-2.613-.253-4.672-2.155-5.44-4.579-1.398 27.231-3.724 40.034-4.819 44.785-.273 1.185.633 2.311 1.849 2.311h9.05 9.05c1.217 0 2.122-1.125 1.849-2.311-1.095-4.739-3.412-17.487-4.811-44.585z"/><path d="m333.537 185.695c5.91-21.662 15.524-39.787 20.184-47.838 1.142-1.974-.241-4.475-2.47-4.473-1.479.001-2.467-1.606-1.95-3.035 4.667-12.927 6.051-23.587 6.453-29.343.141-2.027-1.37-3.687-3.342-3.687h-.652c-1.575 0-2.74-1.489-2.431-3.081 2.837-14.592 2.145-28.792 1.601-35.141-.153-1.781-1.907-2.927-3.541-2.303-1.342.513-2.757-.57-2.784-2.046-.236-13.314-1.967-22.59-2.967-26.904-.325-1.401-1.848-2.1-3.074-1.411-1.226.688-2.74-.016-3.074-1.413-.408-1.708-.855-3.326-1.324-4.869-5.533 1.927-10.796 6.454-10.796 16.725v135.674s-.212 12.062 10.167 13.145z"/><path d="m201.889 91.723c9.237 9.237 80.352 85.431 91.262 97.125 1.638 1.756 3.935 2.818 6.334 2.717 1.642-.069 3.479-.658 5.154-2.366-9.467-17.675-14.129-35.683-15.9-43.794-.412-1.889-2.687-2.628-4.134-1.389-1.041.892-2.607.62-3.137-.644-4.576-10.922-9.94-18.439-13.062-22.292-1.105-1.363-3.05-1.494-4.331-.294l-.354.332c-1.081 1.013-2.708.8-3.439-.379-6.741-10.874-15.538-19.363-19.622-23.014-1.124-1.005-2.885-.692-3.602.625-.622 1.143-2.101 1.448-3.008.514-7.99-8.224-14.572-13-17.758-15.101-1.033-.681-2.428-.197-2.816.978-.388 1.174-1.78 1.65-2.817.977-4.872-3.165-9.364-5.24-13.085-6.607-.497 4.02.287 8.584 4.315 12.612z"/><path d="m452.9 103.153c-1.197-.311-1.762-1.67-1.157-2.748 1.551-2.765 2.78-5.393 3.767-7.833-5.16-.117-10.806 1.113-15.259 5.566-9.264 9.264-65.287 68.503-83.284 87.547-3.181 3.366-3.357 8.569-.417 12.148l1.008 1.227c16.064-9.445 32.162-14.723 39.674-16.88 1.858-.534 2.449-2.851 1.119-4.214-.957-.982-.789-2.562.439-3.173 10.604-5.273 17.758-11.111 21.4-14.477 1.289-1.191 1.293-3.141.013-4.34l-.354-.332c-1.081-1.013-.974-2.65.155-3.456 10.415-7.43 18.317-16.758 21.697-21.069.93-1.186.504-2.922-.855-3.553-1.181-.548-1.581-2.006-.707-2.972 7.689-8.504 12.028-15.381 13.918-18.695.614-1.074.041-2.435-1.157-2.746z"/><path d="m260.867 193.451c-1.245-.84-2.918-.037-3.069 1.434-.109 1.059-1.134 1.752-2.11 1.326-8.44-3.685-15.493-5.031-19.315-5.52-1.35-.173-2.51.802-2.586 2.161l-.021.376c-.064 1.153-1.098 1.902-2.146 1.631-9.623-2.492-19.12-2.541-23.375-2.402-1.188.039-2.016 1.191-1.676 2.332.285.955-.563 1.888-1.559 1.852-8.836-.321-15.054.522-17.958 1.049-.946.172-1.471 1.193-1.058 2.061.412.868-.115 1.883-1.059 2.061-3.981.751-7.318 1.83-10.004 2.931 1.942 2.23 5.083 4.276 10.169 5.094 11.158 1.793 73.812 4.742 94.996 5.702 4.189.19 8.03-2.305 9.564-6.208l.366-.931c-13.326-4.838-24.21-11.611-29.159-14.949z"/><path d="m385.87 193.451c1.245-.84 2.918-.037 3.069 1.434.109 1.059 1.134 1.752 2.11 1.326 8.44-3.685 15.493-5.031 19.315-5.52 1.35-.173 2.51.802 2.586 2.161l.021.376c.064 1.153 1.098 1.902 2.146 1.631 9.623-2.492 19.121-2.541 23.375-2.402 1.188.039 2.016 1.191 1.675 2.332-.285.955.563 1.888 1.559 1.852 8.836-.321 15.054.522 17.958 1.049.946.172 1.471 1.193 1.058 2.061-.412.868.115 1.883 1.059 2.061 3.981.751 7.318 1.83 10.004 2.931-1.942 2.23-5.083 4.276-10.17 5.094-11.158 1.793-73.812 4.742-94.996 5.702-4.189.19-8.03-2.305-9.564-6.208l-.366-.931c13.328-4.838 24.212-11.611 29.161-14.949z"/><path d="m363.812 232.55c.668-.747.319-1.892-.624-2.046-3.21-.524-9.589-1.805-16.474-4.484-1.152 2.052-2.216 5.614 1.244 9.074 5.292 5.292 38.73 34.52 38.73 34.52s2.841 2.133 6.994.335c-.448-.846-.949-1.719-1.549-2.624-.326-.492-.087-1.192.489-1.415.577-.224.82-.925.49-1.415-1.016-1.509-3.326-4.614-7.314-8.317-.442-.41-.349-1.18.209-1.49.679-.378.855-1.278.358-1.814-1.772-1.91-5.895-6.007-11.193-9.027-.578-.329-.683-1.126-.212-1.654l.195-.218c.59-.661.536-1.62-.124-2.124-1.875-1.432-5.539-3.869-10.878-5.822-.59-.214-.784-.983-.341-1.479z"/><path d="m298.403 234.293c-5.934 5.934-37.527 34.119-37.527 34.119s-3.711 3.493-1.155 8.025c.694-.291 1.402-.607 2.139-.983.526-.268 1.194.048 1.351.646.157.599.826.919 1.351.647 1.614-.839 4.961-2.783 9.09-6.327.458-.393 1.212-.213 1.457.377.299.718 1.173.994 1.762.561 2.099-1.545 6.635-5.177 10.235-10.1.393-.537 1.196-.551 1.667-.023l.195.218c.59.661 1.549.716 2.125.117 1.634-1.701 4.47-5.066 7.015-10.149.281-.562 1.067-.668 1.509-.172.667.748 1.843.531 2.103-.389.975-3.454 3.298-10.634 7.429-17.894-2.462-1.315-6.798-2.621-10.746 1.327z"/></g><path d="m334.316 76.969v46.187s-1.503 17.088 16.934 10.228c-1.479.001-2.467-1.606-1.95-3.035 4.667-12.927 6.051-23.587 6.453-29.343.141-2.027-1.37-3.687-3.342-3.687h-.652c-1.575 0-2.74-1.489-2.431-3.081 2.837-14.592 2.145-28.792 1.601-35.141 0 0-16.613 3.118-16.613 17.872z" fill="#9ed369"/><path d="m422.29 131.816c-6.351 6.351-22.19 23.559-29.591 31.632-4.252 4.639-.484 12.109 5.766 11.385.107-.012.216-.026.326-.04 10.604-5.273 17.758-11.111 21.4-14.477 1.289-1.191 1.293-3.141.013-4.34l-.354-.332c-1.081-1.013-.974-2.65.155-3.456 10.415-7.43 18.317-16.758 21.697-21.069.93-1.186.504-2.922-.855-3.553 0 0-10.138-4.17-18.557 4.25z" fill="#9ed369"/><path d="m268.288 148.431c5.185 5.211 14.068 3.02 16.199-4.015.04-.131.079-.265.119-.399-1.041.892-2.607.62-3.137-.644-4.576-10.922-9.94-18.439-13.062-22.292-1.105-1.363-3.05-1.494-4.331-.294l-.354.332c-1.081 1.013-2.708.8-3.439-.379-6.74-10.874-15.538-19.363-19.621-23.014-1.124-1.005-2.885-.692-3.601.625-.101.186-.231.34-.371.48-1.462 1.972-6.549 9.676-1.553 15.504 4.249 4.959 23.362 24.258 33.151 34.096z" fill="#9ed369"/></g><g fill="#2a428c"><path d="m14.779 223.903c93.612 45.293 176.042-57.656 152.998-99.683-24.25-44.228 12.25-63.772 53.75-72.272 24.781-5.076 28.336-19.242 27.179-29.834-117.335 3.431-213.975 89.352-233.927 201.789z"/><path d="m445.501 422.289c-24.34-5.068-56.268 17.589-91.307 38.837-48.667 29.512-104.667 29.155-156.653 6.488-31.205-13.606-56.174-3.191-71.155 7.309 37.595 23.492 82.015 37.077 129.614 37.077 76.368 0 144.569-34.945 189.501-89.711z"/></g></g></svg>