<svg id="Layer_1" enable-background="new 0 0 512.001 512.001" height="512" viewBox="0 0 512.001 512.001" width="512" xmlns="http://www.w3.org/2000/svg"><g><g><g><g><path d="m187.698 255.961v-105.539l-90.099-52.77-90.099 52.77v105.539l90.099 52.769z" fill="#57cc62"/><path d="m97.599 97.652-20 11.714 70.099 41.055v105.54l-70.099 41.055 20 11.714 90.099-52.769v-105.54z" fill="#49bf53"/><path d="m97.599 316.23c-1.31 0-2.62-.343-3.791-1.028l-90.099-52.77c-2.297-1.345-3.709-3.809-3.709-6.471v-105.54c0-2.663 1.412-5.126 3.709-6.472l90.099-52.77c2.341-1.371 5.24-1.371 7.581 0l90.099 52.77c2.297 1.346 3.709 3.809 3.709 6.472v105.539c0 2.663-1.412 5.126-3.709 6.472l-90.099 52.77c-1.17.685-2.48 1.028-3.79 1.028zm-82.599-64.568 82.599 48.376 82.599-48.376v-96.942l-82.599-48.376-82.599 48.376zm172.698 4.299h.01z" fill="#11a873"/></g><g><path d="m187.698 466.939 90.099-52.769v-105.539l-90.099-52.77-90.099 52.77v105.539" fill="#9affa3"/><path d="m187.698 255.861-20 11.714 70.099 41.056v105.539l-70.099 41.056 20 11.713 90.099-52.769v-105.539z" fill="#78f583"/><path d="m187.705 474.441c-2.576 0-5.083-1.328-6.479-3.71-2.093-3.574-.893-8.169 2.681-10.262l86.39-50.597v-96.942l-82.599-48.376-82.599 48.376v101.24c0 4.142-3.358 7.5-7.5 7.5s-7.5-3.358-7.5-7.5v-105.539c0-2.663 1.412-5.126 3.709-6.472l90.099-52.77c2.341-1.371 5.24-1.371 7.581 0l90.099 52.77c2.297 1.346 3.709 3.809 3.709 6.472v105.539c0 2.663-1.412 5.126-3.709 6.472l-90.099 52.77c-1.191.697-2.495 1.029-3.783 1.029z" fill="#11a873"/></g><g><path d="m457.995 414.17v-105.539l-90.099-52.77-90.099 52.77v105.539l90.099 52.769z" fill="#70e07a"/><path d="m367.896 255.861-20 11.714 70.099 41.056v105.539l-70.099 41.056 20 11.713 90.099-52.769v-105.539z" fill="#56d661"/><path d="m367.896 474.44c-1.31 0-2.62-.343-3.791-1.028l-90.099-52.77c-2.297-1.346-3.709-3.809-3.709-6.472v-105.539c0-2.663 1.412-5.126 3.709-6.472l90.099-52.77c2.341-1.371 5.24-1.371 7.581 0l90.099 52.77c2.297 1.346 3.709 3.809 3.709 6.472v105.539c0 2.663-1.412 5.126-3.709 6.472l-90.099 52.77c-1.169.685-2.479 1.028-3.79 1.028zm-82.599-64.569 82.599 48.376 82.599-48.376v-96.941l-82.599-48.376-82.599 48.376zm172.698 4.299h.01z" fill="#11a873"/></g><g fill="#11a873"><path d="m504.493 448.056c-1.288 0-2.592-.332-3.784-1.029l-45.05-26.385c-3.574-2.093-4.774-6.688-2.681-10.262 2.093-3.575 6.688-4.773 10.262-2.681l45.05 26.385c3.574 2.093 4.774 6.688 2.681 10.262-1.395 2.382-3.903 3.71-6.478 3.71z"/><path d="m97.599 105.152c-4.142 0-7.5-3.358-7.5-7.5v-52.591c0-4.142 3.358-7.5 7.5-7.5s7.5 3.358 7.5 7.5v52.591c0 4.142-3.358 7.5-7.5 7.5z"/><path d="m367.896 263.918c-4.142 0-7.5-3.358-7.5-7.5v-52.591c0-4.142 3.358-7.5 7.5-7.5s7.5 3.358 7.5 7.5v52.591c0 4.142-3.357 7.5-7.5 7.5z"/><path d="m73.496 466.882c-1.19 0-2.397-.284-3.521-.883-3.655-1.948-5.039-6.491-3.091-10.146l18.22-34.183h-33.979c-4.142 0-7.5-3.358-7.5-7.5s3.358-7.5 7.5-7.5h46.474c2.634 0 5.075 1.382 6.431 3.641 1.355 2.258 1.427 5.063.188 7.387l-24.097 45.211c-1.35 2.531-3.944 3.973-6.625 3.973z"/></g><path d="" style="fill:none;stroke:#000;stroke-width:15;stroke-linecap:round;stroke-linejoin:round;stroke-miterlimit:10"/><g fill="#fff"><path d="m164.525 365.939c-1.983 0-3.885-.785-5.292-2.185-1.414-1.408-2.208-3.32-2.208-5.315v-35.223c0-4.142 3.358-7.5 7.5-7.5h22.056c13.77 0 24.972 11.248 24.972 25.072 0 13.825-11.202 25.073-24.972 25.073-4.778 0-22.022.078-22.022.078-.011 0-.022 0-.034 0zm7.5-35.223v20.191c5.289-.021 11.876-.046 14.556-.046 5.499 0 9.972-4.519 9.972-10.073s-4.473-10.072-9.972-10.072z"/><path d="m164.525 407.085c-1.983 0-3.886-.785-5.292-2.185-1.414-1.407-2.208-3.32-2.208-5.315v-41.204c0-4.142 3.358-7.5 7.5-7.5h25.908c15.405 0 27.938 12.586 27.938 28.057 0 15.47-12.533 28.056-27.938 28.056-5.591 0-25.874.091-25.874.091-.011 0-.022 0-.034 0zm7.5-41.204v26.171c6.393-.026 15.047-.059 18.408-.059 7.134 0 12.938-5.857 12.938-13.056s-5.804-13.057-12.938-13.057h-18.408z"/></g><g><path d="m104.623 248.876c-25.069 0-45.464-20.494-45.464-45.685s20.395-45.685 45.464-45.685c9.117 0 17.915 2.704 25.442 7.818 3.426 2.328 4.316 6.992 1.988 10.418s-6.991 4.316-10.418 1.988c-5.03-3.418-10.913-5.225-17.011-5.225-16.798 0-30.464 13.765-30.464 30.685s13.666 30.685 30.464 30.685c6.307 0 11.633-1.907 15.833-5.668.818-.733 1.6-1.545 2.325-2.414 2.653-3.182 7.383-3.61 10.563-.957 3.181 2.653 3.609 7.382.957 10.563-1.189 1.426-2.48 2.765-3.837 3.981-6.937 6.212-15.872 9.496-25.842 9.496z" fill="#fff"/></g></g></g><g><g><g><g><g><g><ellipse cx="207.053" cy="117.865" fill="#f2f2f2" rx="64.327" ry="65"/><path d="m207.053 190.365c-39.605 0-71.827-32.523-71.827-72.5s32.221-72.5 71.827-72.5c39.605 0 71.826 32.523 71.826 72.5s-32.221 72.5-71.826 72.5zm0-130c-31.334 0-56.827 25.794-56.827 57.5s25.492 57.5 56.827 57.5c31.334 0 56.826-25.794 56.826-57.5s-25.492-57.5-56.826-57.5z" fill="#ffdb0d"/></g></g></g></g><path d="m231.824 110.365h-17.271v-17.53c0-4.142-3.358-7.5-7.5-7.5s-7.5 3.358-7.5 7.5v17.53h-17.271c-4.142 0-7.5 3.358-7.5 7.5s3.358 7.5 7.5 7.5h17.271v17.531c0 4.142 3.358 7.5 7.5 7.5s7.5-3.358 7.5-7.5v-17.531h17.271c4.142 0 7.5-3.358 7.5-7.5s-3.358-7.5-7.5-7.5z" fill="#57cc62"/></g><g><path d="m252.398 72.045-90.691 91.64" fill="#359db6"/><path d="m161.708 171.185c-1.907 0-3.813-.722-5.275-2.169-2.944-2.914-2.969-7.663-.056-10.606l90.69-91.64c2.914-2.943 7.663-2.969 10.606-.056 2.944 2.914 2.969 7.663.056 10.606l-90.69 91.64c-1.467 1.483-3.399 2.225-5.331 2.225z" fill="#ffdb0d"/></g></g></g><path d="m343.824 405.956c-1.979 0-3.878-.782-5.284-2.177-1.412-1.401-2.209-3.307-2.216-5.296 0 0-.096-26.863-.096-37.164 0-8.451-.053-36.959-.053-36.959-.004-1.992.785-3.903 2.192-5.313s3.316-2.202 5.308-2.202h20.869c22.284 0 37.255 17.905 37.255 44.555 0 25.35-15.356 44.019-36.513 44.391-5.934.104-20.803.162-21.433.165-.01 0-.02 0-.029 0zm7.364-74.111c.016 9.065.04 23.794.04 29.474 0 6.811.042 20.875.071 29.6 4.762-.027 10.596-.07 13.723-.125 14.962-.263 21.777-15.42 21.777-29.393 0-14.288-5.847-29.555-22.255-29.555h-13.356z" fill="#fff"/></svg>