<svg height="512" viewBox="0 0 57 58" width="512" xmlns="http://www.w3.org/2000/svg"><g id="Page-1" fill="none" fill-rule="evenodd"><g id="021---CBD-Oil" fill-rule="nonzero" transform="translate(0 -1)"><path id="Shape" d="m0 21.594v11.814c-.00010202.3651669.19885062.7013547.519.877l9.946 5.453c.298555.1629135.659445.1629135.958 0l10.054-5.456c.3216949-.17459.522303-.5109825.523-.877v-11.811c.0000677-.3659502-.1997635-.7027099-.521-.878l-10-5.455c-.298555-.1629135-.659445-.1629135-.958 0l-10 5.455c-.32123654.1752901-.52106773.5120498-.521.878z" fill="#894b9d"/><path id="Shape" d="m11 40.594v11.814c-.000102.3651669.1988506.7013547.519.877l9.946 5.453c.298555.1629135.659445.1629135.958 0l10.054-5.456c.3216949-.17459.522303-.5109825.523-.877v-11.811c.0000677-.3659502-.1997635-.7027099-.521-.878l-10-5.455c-.298555-.1629135-.659445-.1629135-.958 0l-10 5.455c-.3212365.1752901-.5210677.5120498-.521.878z" fill="#4fba6f"/><path id="Shape" d="m47.02 35.65 7.46 4.07c.3198971.1725556.5195149.5065315.52.87v11.81c.0023192.3668113-.1975703.7050858-.52.88l-10.06 5.46c-.2964514.1600189-.6535486.1600189-.95 0l-9.95-5.46c-.3198971-.1725556-.5195149-.5065315-.52-.87v-11.82c.0004851-.3634685.2001029-.6974444.52-.87l7.46-4.07" fill="#894b9d"/><g fill="#fff"><path id="Shape" d="m22 47h-3c-.5522847 0-1-.4477153-1-1v-5c0-1.1045695.8954305-2 2-2h2c2.209139 0 4 1.790861 4 4s-1.790861 4-4 4zm-2-2h2c1.1045695 0 2-.8954305 2-2s-.8954305-2-2-2h-2z"/><path id="Shape" d="m22 53h-2c-1.1045695 0-2-.8954305-2-2v-5c0-.5522847.4477153-1 1-1h3c2.209139 0 4 1.790861 4 4s-1.790861 4-4 4zm-2-6v4h2c1.1045695 0 2-.8954305 2-2s-.8954305-2-2-2z"/><path id="Shape" d="m11 34c-2.209139 0-4-1.790861-4-4v-6c0-2.209139 1.790861-4 4-4s4 1.790861 4 4c0 .5522847-.4477153 1-1 1s-1-.4477153-1-1c0-1.1045695-.8954305-2-2-2s-2 .8954305-2 2v6c0 1.1045695.8954305 2 2 2s2-.8954305 2-2c0-.5522847.4477153-1 1-1s1 .4477153 1 1c0 2.209139-1.790861 4-4 4z"/><path id="Shape" d="m44 53h-2c-1.1045695 0-2-.8954305-2-2v-10c0-1.1045695.8954305-2 2-2h2c2.209139 0 4 1.790861 4 4v6c0 2.209139-1.790861 4-4 4zm-2-12v10h2c1.1045695 0 2-.8954305 2-2v-6c0-1.1045695-.8954305-2-2-2z"/></g><path id="Shape" d="m57 23c-.0000002 7.1797016-5.8202984 12.9999997-13 12.9999997s-12.9999998-5.8202981-13-12.9999997c0-8.283 9.565-18.885 12.286-21.7.1868181-.19409535.4446044-.30377005.714-.30377005s.5271819.1096747.714.30377005c2.721 2.815 12.286 13.417 12.286 21.7z" fill="#7ed09e"/><path id="Shape" d="m57 23c0 7.1797017-5.8202983 13-13 13-1.8269074.0043722-3.6337472-.3808597-5.3-1.13 5.8505853-.1917169 10.8522001-4.2683195 12.22-9.96 1.93-8.01-4.82-20.46-6.85-23.9.2430475.00925761.4727965.1133626.64.29 2.72 2.81 12.29 13.42 12.29 21.7z" fill="#71c285"/><path id="Shape" d="m44 33c-5.5203344-.0060624-9.9939376-4.4796656-10-10 0-.5522847.4477153-1 1-1s1 .4477153 1 1c.0049599 4.4162219 3.5837781 7.9950401 8 8 .5522847 0 1 .4477153 1 1s-.4477153 1-1 1z" fill="#fff"/></g></g></svg>