<svg id="Capa_1" enable-background="new 0 0 512 512" height="512" viewBox="0 0 512 512" width="512" xmlns="http://www.w3.org/2000/svg"><g><g><path d="m256 22c-115.683 0-212.626 80.183-238.319 188l1.319 1h235.921v30h-240.921l-1.74 1c-.833 8.221-1.26 16.56-1.26 25 0 39.959 9.579 77.676 26.548 111l1.452 1h154.39c4.011 12.311 10.512 23.41 19.333 33l2.278 1h237.755c30.306-40.775 48.244-91.291 48.244-146 0-135.31-109.69-245-245-245z" fill="#9facba"/><g fill="#7a8c98"><path d="m410.753 293.907c0 2.804.741 5.571 2.144 8l47.103 81.587v-122.494c0-5.523-4.477-10-10-10h-39.247z"/><path d="m301.079 261.416c0 2.622 1.683 4.917 4.188 5.711 23.455 7.434 42.008 23.835 52.432 44.742l5.751-9.961c1.402-2.427 2.144-5.194 2.144-8v-42.908h-64.516v10.416z"/></g><path d="m226 241v39.18c7.646-5.607 16.29-10.06 25.733-13.053 2.505-.794 4.188-3.089 4.188-5.71v-20.417z" fill="#ffbd86"/><g><g><path d="m66.5 184h48v27h-48z" fill="#fff"/><path d="m66.5 184h16.5v27h-16.5z" fill="#eaf6ff"/><path d="m66.5 241v102c0 13.255 10.745 24 24 24s24-10.745 24-24v-102z" fill="#fff"/><path d="m83 343v-102h-16.5v102c0 13.255 10.745 24 24 24 2.899 0 5.677-.514 8.25-1.456-9.191-3.364-15.75-12.188-15.75-22.544z" fill="#eaf6ff"/></g><g><path d="m81.5 241v102c0 4.962 4.037 9 9 9s9-4.038 9-9v-102z" fill="#60b7ff"/></g><g><path d="m81.5 241h18v21h-18z" fill="#8ac9fe"/></g><path d="m115 185h-49c-5.523 0-10-4.477-10-10v-12c0-5.523 4.477-10 10-10h49c5.523 0 10 4.477 10 10v12c0 5.523-4.477 10-10 10z" fill="#d8ecfe"/><path d="m80 175v-12c0-5.523 4.477-10 10-10h-24c-5.523 0-10 4.477-10 10v12c0 5.523 4.477 10 10 10h24c-5.523 0-10-4.477-10-10z" fill="#c4e2ff"/></g><g><g><path d="m149.5 184h48v27h-48z" fill="#fff"/><path d="m149.5 184h16.5v27h-16.5z" fill="#eaf6ff"/><path d="m149.5 241v102c0 13.255 10.745 24 24 24s24-10.745 24-24v-102z" fill="#fff"/><path d="m166 343v-102h-16.5v102c0 13.255 10.745 24 24 24 2.899 0 5.677-.514 8.25-1.456-9.191-3.364-15.75-12.188-15.75-22.544z" fill="#eaf6ff"/></g><g><path d="m164.5 241v102c0 4.962 4.037 9 9 9s9-4.038 9-9v-102z" fill="#97d729"/></g><g><path d="m164.5 241h18v21h-18z" fill="#bbec6c"/></g><path d="m198 185h-49c-5.523 0-10-4.477-10-10v-12c0-5.523 4.477-10 10-10h49c5.523 0 10 4.477 10 10v12c0 5.523-4.477 10-10 10z" fill="#d8ecfe"/><path d="m163 175v-12c0-5.523 4.477-10 10-10h-24c-5.523 0-10 4.477-10 10v12c0 5.523 4.477 10 10 10h24c-5.523 0-10-4.477-10-10z" fill="#c4e2ff"/></g><path d="m255.921 210h-238.24c-2.484 10.426-4.316 21.105-5.421 32h243.66v-32z" fill="#ffbd86"/><path d="m255.921 225h-195.921c-2.761 0-5-2.239-5-5v-10h-37.319c-2.484 10.426-4.316 21.105-5.421 32h243.66v-17z" fill="#f6a96c"/><path d="m215.001 413-1.542-1.677c-8.925-9.703-15.461-21.083-19.34-33.323h-156.571c6.264 12.3 13.526 24.007 21.696 35z" fill="#ffbd86"/><path d="m202.725 397h-104.377c-3.248 0-6.293-1.577-8.173-4.225-3.405-4.799-6.638-9.729-9.7-14.775h-42.927c6.264 12.3 13.526 24.007 21.696 35h155.757l-1.542-1.677c-4.09-4.447-7.673-9.25-10.734-14.323z" fill="#f6a96c"/><g><path d="m413.762 301.407c-1.317-2.28-2.01-4.867-2.01-7.5v-77.141c-.514.091-1.039.148-1.579.148h-44c-.54 0-1.065-.056-1.579-.148v77.141c0 2.633-.693 5.22-2.01 7.5l-64.427 111.593h180.034z" fill="#eaf6ff"/><path d="m366.174 216.914c-.54 0-1.065-.056-1.579-.148v77.141c0 2.633-.693 5.22-2.01 7.5l-4.862 8.422c2.867 5.439 5.181 11.212 6.889 17.241l14.817-25.663c1.317-2.28 2.01-4.867 2.01-7.5v-76.993z" fill="#d8ecfe"/><path d="m450.189 394.5-30.65-53.086c-.893-1.547-2.544-2.5-4.33-2.5h-14.026c-1.879-5.195-6.841-8.914-12.684-8.914s-10.804 3.719-12.684 8.914h-9.717c.583 4.123.901 8.323.901 12.586 0 18.244-5.55 35.762-15.818 50.5h94.677c3.85 0 6.256-4.167 4.331-7.5z" fill="#fea613"/><path d="m305.569 266.174c-2.077-.658-3.49-2.579-3.49-4.758v-98.649c-.514.091-1.039.148-1.579.148h-44c-.54 0-1.065-.056-1.579-.148v98.649c0 2.178-1.413 4.099-3.49 4.757-36.201 11.474-62.438 45.341-62.432 85.341.004 23.692 9.373 45.387 24.627 61.486h129.892c15.175-16.036 24.482-37.68 24.482-61.5 0-39.993-26.234-73.854-62.431-85.326z" fill="#fff"/><g><path d="m205 359.748c-.006-40 26.23-73.867 62.431-85.341 2.077-.658 3.49-2.579 3.49-4.758v-106.735h-14.421c-.54 0-1.065-.056-1.579-.148v98.649c0 2.178-1.413 4.099-3.49 4.757-36.201 11.474-62.438 45.341-62.432 85.341.004 23.692 9.373 45.387 24.627 61.486h9.105c-11.121-14.935-17.728-33.384-17.731-53.251z" fill="#eaf6ff"/></g><g><path d="m271 162.914h15v151.086h-15z" fill="#c4e2ff"/><g><g><path d="m271 103.914h15v24.086h-15z" fill="#c4e2ff"/><g><path d="m380 84h15v-22c0-34.508-28.338-62.521-62.964-61.993-34.019.52-61.036 28.911-61.036 62.934v6.059h15v-6.211c0-25.736 20.36-47.292 46.092-47.78 26.33-.5 47.908 20.773 47.908 46.991z" fill="#c4e2ff"/><path d="m380 162h15v20h-15z" fill="#fff"/></g></g><path d="m380 216.914v36.286c0 1.108.611 2.126 1.588 2.647l9 4.8c1.998 1.066 4.412-.382 4.412-2.647v-41.086z" fill="#fff"/></g></g><path d="m300.5 163.914h-44c-5.523 0-10-4.477-10-10v-16.914c0-5.523 4.477-10 10-10h44c5.523 0 10 4.477 10 10v16.914c0 5.523-4.477 10-10 10z" fill="#eaf6ff"/><path d="m271 153.914v-16.914c0-5.523 4.477-10 10-10h-24.5c-5.523 0-10 4.477-10 10v16.914c0 5.523 4.477 10 10 10h24.5c-5.523 0-10-4.477-10-10z" fill="#d8ecfe"/><path d="m264 99.914v-26.914c0-2.761 2.239-5 5-5h19c2.761 0 5 2.239 5 5v26.914c0 2.761-2.239 5-5 5h-19c-2.761 0-5-2.238-5-5z" fill="#eaf6ff"/><path d="m276 99.914v-26.914c0-2.761 2.239-5 5-5h-12c-2.761 0-5 2.239-5 5v26.914c0 2.761 2.239 5 5 5h12c-2.761 0-5-2.238-5-5z" fill="#d8ecfe"/><path d="m236.607 413h83.86c19.621-13.432 32.533-35.979 32.533-61.5 0-13.01-3.354-25.25-9.24-35.905-.884-1.599-2.565-2.595-4.392-2.595h-121.736c-1.828 0-3.509.997-4.393 2.597-6.298 11.402-9.697 24.619-9.189 38.652.881 24.341 13.628 45.788 32.557 58.751z" fill="#fe76a8"/><path d="m229.05 354.249c-.508-14.033 2.891-27.25 9.189-38.652.884-1.6 2.565-2.597 4.393-2.597h-25c-1.828 0-3.509.997-4.393 2.597-6.298 11.402-9.697 24.619-9.189 38.652.881 24.342 13.628 45.788 32.557 58.751h25c-18.929-12.963-31.676-34.41-32.557-58.751z" fill="#fe5694"/><path d="m405.047 103.5c0-2.782-1.519-5.205-3.769-6.5 2.25-1.295 3.769-3.718 3.769-6.5 0-4.142-3.357-7.5-7.5-7.5h-21.094c-4.143 0-7.5 3.358-7.5 7.5 0 2.782 1.519 5.205 3.769 6.5-2.25 1.295-3.769 3.718-3.769 6.5s1.519 5.205 3.769 6.5c-2.25 1.295-3.769 3.718-3.769 6.5s1.519 5.205 3.769 6.5c-2.25 1.295-3.769 3.718-3.769 6.5s1.519 5.205 3.769 6.5c-2.25 1.295-3.769 3.718-3.769 6.5s1.519 5.205 3.769 6.5c-2.25 1.295-3.769 3.718-3.769 6.5 0 4.142 3.357 7.5 7.5 7.5h21.094c4.143 0 7.5-3.358 7.5-7.5 0-2.782-1.519-5.205-3.769-6.5 2.25-1.295 3.769-3.718 3.769-6.5s-1.519-5.205-3.769-6.5c2.25-1.295 3.769-3.718 3.769-6.5s-1.519-5.205-3.769-6.5c2.25-1.295 3.769-3.718 3.769-6.5s-1.519-5.205-3.769-6.5c2.25-1.295 3.769-3.718 3.769-6.5z" fill="#eaf6ff"/><path d="m383.906 155.5c0-1.992.779-3.801 2.047-5.142.721-.762.721-1.954 0-2.716-1.268-1.342-2.047-3.15-2.047-5.142s.779-3.801 2.047-5.142c.721-.762.721-1.954 0-2.716-1.268-1.342-2.047-3.15-2.047-5.142s.779-3.801 2.047-5.142c.721-.762.721-1.954 0-2.716-1.268-1.342-2.047-3.15-2.047-5.142s.779-3.801 2.047-5.142c.721-.762.721-1.954 0-2.716-1.268-1.342-2.047-3.15-2.047-5.142s.779-3.801 2.047-5.142c.721-.762.721-1.954 0-2.716-1.268-1.342-2.047-3.15-2.047-5.142 0-4.142 3.357-7.5 7.5-7.5h-14.703c-3.89 0-7.324 2.856-7.712 6.727-.311 3.102 1.274 5.86 3.73 7.273-2.25 1.295-3.769 3.718-3.769 6.5s1.519 5.205 3.769 6.5c-2.25 1.295-3.769 3.718-3.769 6.5s1.519 5.205 3.769 6.5c-2.25 1.295-3.769 3.718-3.769 6.5s1.519 5.205 3.769 6.5c-2.25 1.295-3.769 3.718-3.769 6.5s1.519 5.205 3.769 6.5c-2.456 1.413-4.041 4.171-3.73 7.273.388 3.871 3.822 6.727 7.712 6.727h14.703c-4.142 0-7.5-3.358-7.5-7.5z" fill="#d8ecfe"/></g><path d="m84.559 442c44.187 43.296 104.691 70 171.441 70s127.254-26.704 171.441-70z" fill="#60b7ff"/><path d="m480.75 443h-449.5c-3.866 0-7-3.134-7-7v-17c0-3.866 3.134-7 7-7h449.5c3.866 0 7 3.134 7 7v17c0 3.866-3.134 7-7 7z" fill="#b3dafe"/><path d="m70.75 427c-3.866 0-7-3.134-7-7v-8h-32.5c-3.866 0-7 3.134-7 7v17c0 3.866 3.134 7 7 7h449.5c3.866 0 7-3.134 7-7v-9z" fill="#8ac9fe"/><circle cx="174" cy="127" fill="#fff" r="10"/><circle cx="166" cy="77" fill="#fff" r="10"/><circle cx="202" cy="95" fill="#c5d3dd" r="10"/></g><path d="m410.174 217.914h-44c-5.523 0-10-4.477-10-10v-16.914c0-5.523 4.477-10 10-10h44c5.523 0 10 4.477 10 10v16.914c0 5.523-4.477 10-10 10z" fill="#d8ecfe"/><path d="m381 207.914v-16.914c0-5.523 4.477-10 10-10h-24.826c-5.523 0-10 4.477-10 10v16.914c0 5.523 4.477 10 10 10h24.826c-5.523 0-10-4.477-10-10z" fill="#c4e2ff"/><circle cx="386.5" cy="280.5" fill="#fe9901" r="7.5"/><circle cx="397.5" cy="310.5" fill="#fe9901" r="7.5"/><circle cx="415.5" cy="378.5" fill="#fed2a4" r="7.5"/><circle cx="386.5" cy="360.5" fill="#fff" r="7.5"/><circle cx="306.5" cy="345.5" fill="#fe5694" r="7.5"/><circle cx="309.5" cy="385.5" fill="#fe93bb" r="7.5"/><circle cx="272.5" cy="371.5" fill="#fe5694" r="7.5"/><circle cx="239.5" cy="352.5" fill="#fe93bb" r="7.5"/></g></svg>