<svg height="512pt" viewBox="-94 0 512 512" width="512pt" xmlns="http://www.w3.org/2000/svg"><path d="m96.675781 175.914062c34.871094 22.726563 73.042969.003907 73.050781 0v-139.34375h-146.097656v139.34375s38.171875-22.726562 73.046875 0zm0 0" fill="#dde4f7"/><path d="m54.535156 36.570312h-30.90625v139.34375s13.074219-7.777343 30.90625-9.679687zm0 0" fill="#ccd7f2"/><path d="m96.675781 173.855469c-34.875-22.726563-73.046875 0-73.046875 0v265.097656c0 40.34375 32.703125 73.046875 73.046875 73.046875s73.050781-32.703125 73.050781-73.046875c0-12.425781 0-254.710937 0-265.097656 0 0-38.175781 22.722656-73.050781 0zm0 0" fill="#adea6c"/><path d="m54.128906 438.953125v-274.738281c-17.625 1.976562-30.5 9.640625-30.5 9.640625v265.097656c0 40.34375 32.703125 73.046875 73.046875 73.046875 5.230469 0 10.332031-.5625 15.25-1.605469-33.019531-7.015625-57.796875-36.332031-57.796875-71.441406zm0 0" fill="#8ae058"/><path d="m180.367188 0h-167.382813c-7.140625 0-12.984375 5.84375-12.984375 12.984375v13.691406c0 7.140625 5.84375 12.984375 12.984375 12.984375h167.382813c7.140624 0 12.984374-5.84375 12.984374-12.984375v-13.691406c0-7.140625-5.84375-12.984375-12.984374-12.984375zm0 0" fill="#ccd7f2"/><path d="m180.367188 13.90625h-167.382813c-4.964844 0-9.296875-2.832031-11.480469-6.953125-.957031 1.804687-1.503906 3.855469-1.503906 6.03125v13.691406c0 7.140625 5.84375 12.984375 12.984375 12.984375h167.382813c7.140624 0 12.984374-5.84375 12.984374-12.984375v-13.691406c0-2.175781-.546874-4.226563-1.503906-6.03125-2.183594 4.121094-6.515625 6.953125-11.480468 6.953125zm0 0" fill="#bccced"/><path d="m185.085938 253.878906c-2.796876-2.386718-6.855469-2.382812-9.648438 0-17.914062 15.261719-29.777344 37.875-30.734375 63.851563 20.222656 16.84375 32.0625 41.714843 31.058594 69.675781 2.792969 1.78125 5.589843 2.175781 9 0-1-27.835938 10.742187-52.753906 31.058593-69.675781-.957031-25.949219-12.804687-48.574219-30.734374-63.851563zm0 0" fill="#d665d3"/><path d="m186.546875 298.804688c-3.5 3.441406-9.066406 3.441406-12.570313 0-.019531-.023438-.042968-.046876-.066406-.066407-6.304687-6.191406-13.207031-11.601562-20.5625-16.183593-5.101562 10.617187-8.175781 22.496093-8.644531 35.175781 20.222656 16.84375 32.066406 41.714843 31.0625 69.675781 2.789063 1.78125 5.585937 2.175781 8.996094 0-1-27.835938 10.742187-52.753906 31.058593-69.675781-.464843-12.675781-3.539062-24.554688-8.644531-35.175781-7.351562 4.578124-14.25 9.980468-20.550781 16.171874-.023438.023438-.050781.050782-.078125.078126zm0 0" fill="#c64ac6"/><path d="m284.617188 303.414062c-.261719-3.660156-3.105469-6.554687-6.761719-6.882812-53.722657-4.773438-98.875 39.652344-95.066407 93.386719.261719 3.664062 3.105469 6.558593 6.761719 6.882812.839844.074219 1.675781.132813 2.515625.183594l.65625.042969.324219-.570313c15.683594-27.507812 45.789063-45.019531 80.027344-42.945312 9.175781-16.121094 12.746093-33.074219 11.542969-50.097657zm0 0" fill="#e274e2"/><path d="m273.074219 353.511719c6.035156-10.605469 9.632812-21.570313 11.054687-32.679688-13.308594-1.902343-26.992187-1.5625-40.496094 1.167969-19.96875 4.039062-38.273437 13.03125-53.429687 25.890625-5.710937 12.699219-8.476563 26.996094-7.414063 42.027344.261719 3.664062 3.105469 6.558593 6.761719 6.882812.839844.074219 1.675781.132813 2.515625.183594l.65625.039063.324219-.566407c15.683594-27.507812 45.789063-45.019531 80.027344-42.945312zm0 0" fill="#d665d3"/><path d="m82.671875 296.53125c-3.660156.328125-6.503906 3.222656-6.765625 6.882812-1.203125 17 2.355469 33.957032 11.542969 50.097657 34.277343-2.074219 64.363281 15.472656 80.03125 42.945312l.324219.566407.652343-.039063c.839844-.050781 1.679688-.109375 2.515625-.183594 3.660156-.324219 6.503906-3.222656 6.761719-6.882812 3.8125-53.804688-41.40625-98.152344-95.0625-93.386719zm0 0" fill="#e274e2"/><path d="m116.902344 322.003906c-13.507813-2.734375-27.191406-3.070312-40.503906-1.167968 1.417968 11.097656 5.011718 22.0625 11.050781 32.675781 34.28125-2.074219 64.363281 15.472656 80.03125 42.945312l.324219.570313.652343-.042969c.839844-.046875 1.679688-.109375 2.515625-.183594 3.660156-.324219 6.503906-3.21875 6.761719-6.882812 1.066406-15.035157-1.699219-29.332031-7.40625-42.027344-15.15625-12.855469-33.460937-21.851563-53.425781-25.886719zm0 0" fill="#d665d3"/><path d="m321.300781 369.921875c-42.433593-33.304687-104.496093-20.699219-130.613281 26.417969-1.78125 3.210937-.976562 7.1875 1.910156 9.457031 42.316406 33.214844 104.433594 20.816406 130.617188-26.417969 1.777344-3.210937.972656-7.191406-1.914063-9.457031zm0 0" fill="#8ae058"/><path d="m39.222656 369.921875c-2.886718 2.265625-3.691406 6.246094-1.910156 9.457031 26.144531 47.164063 88.226562 59.6875 130.613281 26.417969 2.890625-2.269531 3.691407-6.246094 1.914063-9.457031-26.152344-47.175782-88.242188-59.679688-130.617188-26.417969zm0 0" fill="#8ae058"/><g fill="#7cce46"><path d="m321.300781 369.921875c-3.351562-2.632813-6.824219-4.972656-10.394531-7.035156-27.386719 29.6875-72.410156 36.914062-107.910156 16.402343-4.65625 5.046876-8.808594 10.734376-12.308594 17.050782-1.78125 3.214844-.976562 7.191406 1.910156 9.457031 42.316406 33.214844 104.433594 20.816406 130.617188-26.417969 1.777344-3.210937.972656-7.191406-1.914063-9.457031zm0 0"/><path d="m157.53125 379.289062c-35.539062 20.539063-80.542969 13.257813-107.914062-16.402343-3.566407 2.0625-7.042969 4.40625-10.394532 7.035156-2.886718 2.269531-3.691406 6.246094-1.914062 9.457031 26.148437 47.164063 88.226562 59.691406 130.617187 26.417969 2.886719-2.265625 3.691407-6.242187 1.914063-9.457031-3.503906-6.316406-7.652344-12.003906-12.308594-17.050782zm0 0"/></g></svg>