<svg id="Capa_1" enable-background="new 0 0 512 512" height="512" viewBox="0 0 512 512" width="512" xmlns="http://www.w3.org/2000/svg"><g><g><path d="m461.063 140.841h-64.65v-30.305c0-5.579 4.523-10.102 10.102-10.102h44.447c5.579 0 10.102 4.523 10.102 10.102v30.305z" fill="#bed8fb"/></g><g><path d="m450.961 100.435h-19.193c5.579 0 10.102 4.523 10.102 10.102v30.305h19.193v-30.305c0-5.579-4.523-10.102-10.102-10.102z" fill="#9dc6fb"/></g><g><path d="m105.486 100.435h-19.193c5.579 0 10.102 4.523 10.102 10.102v30.305h19.193v-30.305c-.001-5.579-4.523-10.102-10.102-10.102z" fill="#9dc6fb"/></g><g><path d="m50.937 140.841h64.65v-30.305c0-5.579-4.523-10.102-10.102-10.102h-44.446c-5.579 0-10.102 4.523-10.102 10.102z" fill="#bed8fb"/></g><g><g><path d="m7.5 140.841h151.524v44.447h-151.524z" fill="#f4fbff"/></g><g><path d="m83.262 504.5c-33.474 0-60.61-27.136-60.61-60.61v-258.601h121.22v258.601c0 33.474-27.136 60.61-60.61 60.61z" fill="#f4fbff"/></g><g><path d="m22.652 185.289v26.264h85.864c5.579 0 10.102 4.523 10.102 10.102v222.235c0 29.143-20.571 53.473-47.983 59.283 4.074.864 8.296 1.326 12.627 1.326 33.474 0 60.61-27.136 60.61-60.61v-258.6z" fill="#e4f6ff"/></g><g><path d="m83.262 504.5c-33.474 0-60.61-27.136-60.61-60.61v-141.423h121.22v141.423c0 33.474-27.136 60.61-60.61 60.61z" fill="#95d6a4"/></g><g><path d="m118.618 302.467v141.423c0 29.143-20.571 53.473-47.983 59.283 4.074.864 8.296 1.326 12.627 1.326 33.474 0 60.61-27.136 60.61-60.61v-141.422z" fill="#78c2a4"/></g></g><g><g><path d="m352.976 140.841h151.524v44.447h-151.524z" fill="#f4fbff"/></g><g><path d="m428.738 504.5c-33.474 0-60.61-27.136-60.61-60.61v-258.601h121.22v258.601c0 33.474-27.136 60.61-60.61 60.61z" fill="#f4fbff"/></g><g><path d="m368.128 185.289v26.264h85.864c5.579 0 10.102 4.523 10.102 10.102v222.235c0 29.143-20.571 53.473-47.983 59.283 4.074.864 8.296 1.326 12.627 1.326 33.474 0 60.61-27.136 60.61-60.61v-258.6z" fill="#e4f6ff"/></g><g><path d="m428.738 504.5c-33.474 0-60.61-27.136-60.61-60.61v-141.423h121.22v141.423c0 33.474-27.136 60.61-60.61 60.61z" fill="#ffe07d"/></g><g><path d="m464.094 302.467v141.423c0 29.143-20.571 53.473-47.983 59.283 4.074.864 8.296 1.326 12.627 1.326 33.474 0 60.61-27.136 60.61-60.61v-141.422z" fill="#ffd064"/></g></g><g><g><g><path d="m256 259.03s-19.289 23.109-19.289 54.92c0 5.083.496 10.009 1.324 14.703-1.914-2.5-4.013-4.944-6.338-7.268-20.564-20.564-48.433-22.571-48.433-22.571s2.008 27.869 22.571 48.433c3.912 3.912 8.152 7.212 12.452 9.996-1.399-.104-2.817-.16-4.253-.16-23.177 0-40.013 14.467-40.013 14.467s16.836 14.467 40.013 14.467c2.739 0 5.414-.208 8.007-.564-5.258 10.308-3.012 23.068-3.012 23.068s16.07.808 26.522-9.645c5.551-5.551 8.841-13.054 10.448-17.682 1.607 4.627 4.897 12.131 10.448 17.682 10.452 10.452 26.522 9.645 26.522 9.645s2.246-12.759-3.012-23.068c2.593.356 5.267.564 8.007.564 23.177 0 40.013-14.467 40.013-14.467s-16.836-14.467-40.013-14.467c-1.436 0-2.854.056-4.253.16 4.3-2.784 8.54-6.084 12.452-9.996 20.564-20.564 22.571-48.433 22.571-48.433s-27.869 2.008-48.433 22.571c-2.325 2.325-4.424 4.768-6.338 7.268.827-4.694 1.324-9.62 1.324-14.703.002-31.811-19.287-54.92-19.287-54.92z" fill="#b3e59f"/></g></g></g><g><path d="m504.5 133.342h-35.937v-22.806c0-9.705-7.896-17.602-17.602-17.602h-14.724v-65.231c.001-15.275-12.427-27.703-27.702-27.703h-67.681c-15.275 0-27.703 12.428-27.703 27.703v175.769c0 7.562-6.152 13.713-13.713 13.713h-1.01c-7.562 0-13.713-6.151-13.713-13.713v-174.253c-.002-16.112-13.109-29.219-29.22-29.219s-29.219 13.107-29.219 29.219v174.253c0 7.562-6.152 13.713-13.713 13.713s-13.713-6.151-13.713-13.713v-175.769c0-15.275-12.428-27.703-27.704-27.703h-67.681c-15.275 0-27.703 12.428-27.703 27.703v65.231h-14.723c-9.706 0-17.602 7.896-17.602 17.602v22.804h-35.937c-4.142 0-7.5 3.357-7.5 7.5v44.45c0 4.143 3.358 7.5 7.5 7.5h7.65v147.68c0 4.143 3.358 7.5 7.5 7.5s7.5-3.357 7.5-7.5v-30.502h106.22v133.922c0 29.285-23.825 53.11-53.11 53.11-14.188 0-27.526-5.523-37.554-15.551-10.031-10.04-15.556-23.379-15.556-37.56v-68.42c0-4.143-3.358-7.5-7.5-7.5s-7.5 3.357-7.5 7.5v68.42c0 18.185 7.083 35.288 19.947 48.164 12.863 12.863 29.967 19.947 48.163 19.947 37.556 0 68.11-30.554 68.11-68.11v-251.1h7.65c4.142 0 7.5-3.357 7.5-7.5v-44.45c0-4.143-3.358-7.5-7.5-7.5h-35.933v-22.804c0-9.705-7.896-17.602-17.602-17.602h-14.723v-65.231c0-7.005 5.699-12.703 12.703-12.703h67.681c7.004 0 12.703 5.698 12.703 12.703v175.769c0 15.832 12.881 28.713 28.713 28.713s28.713-12.881 28.713-28.713v-174.253c0-7.84 6.378-14.219 14.219-14.219 7.84 0 14.218 6.379 14.218 14.219v174.253c0 15.832 12.881 28.713 28.713 28.713h1.01c15.833 0 28.713-12.881 28.713-28.713v-175.769c0-7.005 5.699-12.703 12.703-12.703h67.681c7.004 0 12.703 5.698 12.703 12.703v65.231h-14.724c-9.706 0-17.602 7.896-17.602 17.602v22.806h-35.937c-4.142 0-7.5 3.357-7.5 7.5v44.447c0 4.143 3.358 7.5 7.5 7.5h7.654v251.101c0 18.196 7.084 35.301 19.947 48.164 12.867 12.862 29.972 19.946 48.167 19.946 37.556 0 68.11-30.554 68.11-68.11v-191.89c0-4.143-3.358-7.5-7.5-7.5s-7.5 3.357-7.5 7.5v42.968h-106.22v-102.179h106.22v24.211c0 4.143 3.358 7.5 7.5 7.5s7.5-3.357 7.5-7.5v-24.211h7.65c4.142 0 7.5-3.357 7.5-7.5v-44.447c0-4.143-3.358-7.5-7.5-7.5zm-352.98 44.448h-26.77c-4.142 0-7.5 3.357-7.5 7.5s3.358 7.5 7.5 7.5h11.62v102.178h-106.22v-102.178h59.6c4.142 0 7.5-3.357 7.5-7.5s-3.358-7.5-7.5-7.5h-74.75v-29.45h136.52zm-43.433-67.254v22.804h-49.65v-22.804c0-1.435 1.167-2.602 2.602-2.602h44.447c1.434.001 2.601 1.168 2.601 2.602zm373.763 199.432v133.922c0 29.285-23.825 53.11-53.11 53.11-14.189 0-27.527-5.523-37.557-15.554-10.03-10.029-15.553-23.367-15.553-37.557v-133.921zm-77.937-199.432c0-1.435 1.167-2.602 2.602-2.602h44.447c1.435 0 2.602 1.167 2.602 2.602v22.806h-49.65v-22.806zm93.087 67.253h-136.524v-29.447h136.524z"/><path d="m342.866 365.861c-.615-.529-12.429-10.52-30.156-14.582 21.129-22.124 23.417-50.698 23.506-51.926.157-2.171-.638-4.303-2.177-5.843-1.539-1.539-3.674-2.33-5.842-2.177-1.112.08-24.66 1.963-45.529 18.021-1.673-31.726-20.09-54.148-20.91-55.13-1.425-1.707-3.534-2.694-5.758-2.694s-4.333.987-5.758 2.694c-.82.981-19.237 23.404-20.91 55.13-20.869-16.058-44.417-17.94-45.529-18.021-2.175-.152-4.303.638-5.842 2.177-1.539 1.54-2.334 3.672-2.177 5.843.088 1.228 2.376 29.802 23.506 51.926-17.727 4.062-29.541 14.053-30.156 14.582-1.658 1.425-2.612 3.502-2.612 5.688s.954 4.264 2.612 5.688c.75.645 18.129 15.338 42.569 16.235-1.37 8.254-.25 15.271-.061 16.347.606 3.446 3.515 6.015 7.01 6.19.746.042 17.341.737 29.847-9.685v10.29c0 4.143 3.358 7.5 7.5 7.5s7.5-3.357 7.5-7.5v-10.293c10.808 9.006 24.673 9.71 28.718 9.71.635 0 1.028-.017 1.129-.022 3.495-.176 6.403-2.744 7.01-6.19.189-1.076 1.31-8.093-.061-16.347 24.44-.897 41.82-15.591 42.569-16.235 1.658-1.425 2.612-3.502 2.612-5.688s-.952-4.263-2.61-5.688zm-44.901 12.656c-2.248 0-4.598-.166-6.985-.494-2.772-.388-5.517.809-7.135 3.085-1.618 2.277-1.837 5.265-.568 7.753 1.907 3.738 2.525 8.054 2.647 11.562-4.35-.803-9.968-2.645-14.173-6.849-4.683-4.683-7.44-11.308-8.667-14.84-1.048-3.017-3.891-5.039-7.084-5.039s-6.037 2.022-7.084 5.039c-1.228 3.532-3.985 10.157-8.667 14.839-4.206 4.207-9.828 6.049-14.173 6.851.122-3.51.74-7.825 2.647-11.562 1.269-2.488 1.05-5.476-.568-7.753-1.418-1.995-3.706-3.155-6.112-3.155-.339 0-.681.022-1.023.07-2.387.328-4.737.494-6.985.494-10.721 0-20.021-3.619-26.354-6.987 6.299-3.355 15.56-6.946 26.354-6.946 1.214 0 2.457.047 3.694.14 3.413.243 6.574-1.839 7.667-5.088 1.093-3.248-.155-6.824-3.032-8.688-4.181-2.706-7.957-5.735-11.225-9.003-11.083-11.084-16.22-24.745-18.55-33.806 9.065 2.331 22.725 7.469 33.805 18.549 1.958 1.958 3.871 4.153 5.686 6.524 2.101 2.745 5.806 3.699 8.972 2.308 3.165-1.39 4.97-4.764 4.37-8.168-.803-4.554-1.21-9.062-1.21-13.401 0-17.706 6.686-32.649 11.807-41.497 5.114 8.808 11.771 23.693 11.771 41.497 0 4.339-.407 8.848-1.21 13.401-.6 3.404 1.205 6.778 4.37 8.168 3.166 1.394 6.871.438 8.972-2.308 1.815-2.371 3.728-4.566 5.685-6.523 11.083-11.083 24.744-16.221 33.805-18.55-2.331 9.064-7.469 22.725-18.549 33.805-3.268 3.269-7.044 6.298-11.225 9.004-2.877 1.863-4.125 5.439-3.032 8.688 1.093 3.248 4.252 5.333 7.667 5.088 1.237-.093 2.48-.14 3.694-.14 10.721 0 20.021 3.619 26.354 6.987-6.3 3.354-15.562 6.945-26.356 6.945z"/></g></g></svg>