<svg id="Capa_1" enable-background="new 0 0 512 512" height="512" viewBox="0 0 512 512" width="512" xmlns="http://www.w3.org/2000/svg"><g><g><path d="m73.767 135.033v212.901c0 15.892 2.858 31.655 8.438 46.535l32.536 86.763c5.248 13.996 18.628 23.268 33.575 23.268 14.948 0 28.327-9.272 33.575-23.268l32.536-86.763c5.58-14.88 8.438-30.643 8.438-46.535v-212.901z" fill="#e6ffff"/><path d="m199.867 135.033v212.901c0 15.892-2.858 31.655-8.439 46.535l-32.536 86.763c-3.848 10.26-12.073 17.964-22.075 21.354 3.641 1.234 7.511 1.913 11.5 1.913 14.948 0 28.327-9.272 33.576-23.268l32.536-86.763c5.58-14.88 8.439-30.643 8.439-46.535v-212.9z" fill="#b3f2ff"/><path d="m73.767 135.033h149.1v28h-149.1z" fill="#b3f2ff"/><path d="m73.2 40.633h150.233c8.837 0 16-7.163 16-16v-1.133c0-8.837-7.163-16-16-16h-150.233c-8.837 0-16 7.163-16 16v1.133c0 8.837 7.163 16 16 16z" fill="#e6ffff"/><path d="m206.3 65.483v-30.263h-115.967v30.263c0 4.575 3.709 8.283 8.283 8.283h99.4c4.575.001 8.284-3.708 8.284-8.283z" fill="#e6ffff"/><g><ellipse cx="347.117" cy="396.817" fill="#80d4ff" rx="107.683" ry="107.683" transform="matrix(.707 -.707 .707 .707 -178.924 361.674)"/><path d="m347.117 289.133c-3.885 0-7.721.211-11.5.612 54.064 5.74 96.183 51.485 96.183 107.071s-42.119 101.331-96.183 107.071c3.779.401 7.615.612 11.5.612 59.472 0 107.683-48.211 107.683-107.683 0-59.471-48.211-107.683-107.683-107.683z" fill="#4da6ff"/></g><path d="m148.317 454.8c4.873 0 9.235-3.023 10.946-7.585l24.142-64.379c4.185-11.16 6.329-22.983 6.329-34.902v-83.651c0-4.575-3.709-8.283-8.283-8.283h-66.266c-4.575 0-8.283 3.709-8.283 8.283v83.651c0 11.919 2.144 23.742 6.329 34.902l24.142 64.379c1.709 4.562 6.071 7.585 10.944 7.585z" fill="#2ee6a8"/><path d="m223.433 7.5h-23c8.837 0 16 7.163 16 16v1.133c0 8.837-7.163 16-16 16h23c8.837 0 16-7.163 16-16v-1.133c0-8.837-7.163-16-16-16z" fill="#b3f2ff"/><path d="m183.3 35.22v30.263c0 4.575-3.708 8.283-8.283 8.283h23c4.575 0 8.283-3.709 8.283-8.283v-30.263z" fill="#e6ffff"/><path d="m181.45 256h-23c4.575 0 8.283 3.708 8.283 8.283v83.651c0 11.919-2.144 23.741-6.329 34.902l-23.587 62.901.554 1.479c1.711 4.562 6.073 7.585 10.945 7.585 4.873 0 9.234-3.023 10.945-7.585l24.142-64.379c4.185-11.16 6.329-22.982 6.329-34.902v-83.651c.001-4.576-3.707-8.284-8.282-8.284z" fill="#24b3b3"/><path d="m73.2 140.033h150.233c8.837 0 16-7.163 16-16v-1.133c0-8.837-7.163-16-16-16h-150.233c-8.837 0-16 7.163-16 16v1.133c0 8.837 7.163 16 16 16z" fill="#e6ffff"/><path d="m223.433 106.9h-23c8.837 0 16 7.164 16 16v1.133c0 8.837-7.163 16-16 16h23c8.837 0 16-7.163 16-16v-1.133c0-8.837-7.163-16-16-16z" fill="#b3f2ff"/></g><g><path d="m388.533 323.05c-4.142 0-7.5 3.357-7.5 7.5v9.939c0 2.484-.181 4.961-.503 7.411h-66.827c-.322-2.45-.502-4.927-.502-7.411v-9.939c0-4.143-3.358-7.5-7.5-7.5s-7.5 3.357-7.5 7.5v9.939c0 4.911.504 9.819 1.497 14.586 3.887 18.659 15.134 34.178 30.156 41.741-15.021 7.562-26.268 23.082-30.156 41.741-.994 4.768-1.497 9.676-1.497 14.586v9.939c0 4.143 3.358 7.5 7.5 7.5s7.5-3.357 7.5-7.5v-9.939c0-2.483.18-4.96.502-7.41h66.827c.322 2.45.503 4.927.503 7.41v9.939c0 4.143 3.358 7.5 7.5 7.5s7.5-3.357 7.5-7.5v-9.939c0-4.91-.503-9.818-1.497-14.586-3.887-18.659-15.134-34.179-30.156-41.741 15.022-7.563 26.269-23.082 30.156-41.74.993-4.768 1.497-9.676 1.497-14.587v-9.939c0-4.143-3.358-7.5-7.5-7.5zm-12.203 107.683h-58.427c4.213-9.397 10.985-16.848 19.243-20.811l9.971-4.786 9.971 4.786c8.257 3.963 15.029 11.414 19.242 20.811zm-19.243-47.022-9.971 4.786-9.971-4.786c-8.257-3.963-15.029-11.413-19.242-20.811h58.425c-4.211 9.397-10.984 16.848-19.241 20.811z"/><path d="m347.117 281.634c-63.512 0-115.184 51.671-115.184 115.183 0 63.513 51.671 115.184 115.184 115.184s115.183-51.672 115.183-115.185c0-63.511-51.671-115.182-115.183-115.182zm0 215.366c-55.241 0-100.184-44.942-100.184-100.184s44.942-100.183 100.184-100.183 100.183 44.942 100.183 100.183-44.942 100.184-100.183 100.184z"/><path d="m245.888 130.967h26.679c31.54 0 57.2-25.66 57.2-57.2s-25.66-57.2-57.2-57.2h-26.679c-2.965-9.585-11.909-16.567-22.455-16.567h-150.233c-12.958 0-23.5 10.542-23.5 23.5v1.134c0 12.958 10.542 23.5 23.5 23.5h9.633v17.35c0 8.703 7.08 15.783 15.783 15.783h99.4c8.703 0 15.783-7.08 15.783-15.783v-17.35h9.633c10.546 0 19.49-6.983 22.455-16.567h26.678c23.269 0 42.2 18.931 42.2 42.2s-18.931 42.2-42.2 42.2h-26.679c-2.965-9.584-11.91-16.566-22.455-16.566h-150.231c-12.958 0-23.5 10.542-23.5 23.5v1.133c0 10.546 6.983 19.49 16.567 22.455v29.862c0 4.143 3.358 7.5 7.5 7.5s7.5-3.357 7.5-7.5v-28.817h134.099v18.134h-17.35c-4.142 0-7.5 3.357-7.5 7.5s3.358 7.5 7.5 7.5h17.35v34.699h-17.35c-4.142 0-7.5 3.357-7.5 7.5s3.358 7.5 7.5 7.5h17.35v117.567c0 15.046-2.678 29.816-7.96 43.901l-32.536 86.764c-4.128 11.006-14.799 18.401-26.553 18.401-11.755 0-22.426-7.395-26.553-18.401l-32.536-86.763c-5.283-14.086-7.961-28.856-7.961-43.902v-136.583c0-4.143-3.358-7.5-7.5-7.5s-7.5 3.357-7.5 7.5v136.583c0 16.851 3 33.393 8.916 49.17l32.536 86.763c6.311 16.826 22.626 28.133 40.598 28.133s34.287-11.307 40.598-28.134l32.536-86.764c5.916-15.775 8.915-32.318 8.915-49.169v-201.445c7.392-2.286 13.235-8.13 15.522-15.521zm-47.088-65.484c0 .432-.352.783-.783.783h-99.4c-.432 0-.783-.352-.783-.783v-17.35h100.966zm33.133-40.849c0 4.686-3.813 8.5-8.5 8.5h-150.233c-4.687 0-8.5-3.814-8.5-8.5v-1.134c0-4.687 3.813-8.5 8.5-8.5h150.233c4.687 0 8.5 3.813 8.5 8.5zm-158.166 107.899h-.567c-4.687 0-8.5-3.814-8.5-8.5v-1.133c0-4.687 3.813-8.5 8.5-8.5h150.233c4.687 0 8.5 3.813 8.5 8.5v1.133c0 4.686-3.813 8.5-8.5 8.5h-.567z"/><path d="m106.9 308.754c-4.142 0-7.5 3.357-7.5 7.5v31.68c0 12.863 2.29 25.492 6.806 37.536l24.142 64.379c2.793 7.447 10.014 12.451 17.968 12.451s15.175-5.004 17.968-12.451l24.142-64.379c4.516-12.044 6.806-24.673 6.806-37.536v-83.65c0-8.703-7.08-15.783-15.783-15.783h-66.266c-8.703 0-15.783 7.08-15.783 15.783v16.971c0 4.143 3.358 7.5 7.5 7.5s7.5-3.357 7.5-7.5v-16.971c0-.432.352-.783.783-.783h66.266c.432 0 .783.352.783.783v83.65c0 11.059-1.969 21.916-5.851 32.268l-24.142 64.379c-.61 1.626-2.186 2.719-3.923 2.719s-3.313-1.093-3.923-2.719l-24.142-64.379c-3.882-10.352-5.851-21.21-5.851-32.268v-31.68c0-4.143-3.357-7.5-7.5-7.5z"/></g></g></svg>