<svg height="512pt" viewBox="0 0 512 512.001" width="512pt" xmlns="http://www.w3.org/2000/svg"><path d="m288.300781 214.101562c-3 2.097657 5.699219 84.597657-97.5 30.296876-2.402343-1.5-4.800781-2.699219-7.5-4.199219-3-1.800781-7.199219-11.699219-86.101562-35.097657l18.601562-41.402343v-88.699219h150v88.699219zm0 0" fill="#e0f4ff"/><path d="m331.800781 496.398438c0 7.5-5.101562 13.199218-12.300781 14.402343-4.199219.898438-8.699219 1.199219-12.902344 1.199219h-231.597656c-27.300781 0-52.5-15-65.699219-39s-12.300781-53.101562 2.398438-76.199219c3.898437-8.402343 80.699219-180.601562 85.5-191.699219 30.300781-10.5 63.601562-9.300781 93.601562 5.097657 2.398438.898437 5.097657 2.101562 7.5 3.601562 28.199219 16.199219 62.398438 15.898438 90 .300781 1.199219 2.996094 21.300781 48.296876 31.5 70.796876l3.898438 9c.601562 1.203124 1.199219 2.101562 1.5 3.003906 2.101562 4.496094 1.800781 9.597656-.597657 13.796875-25.203124-15.597657-53.402343-23.699219-82.5-23.699219h-25.203124v25.199219c0 3 .300781 6 .601562 9 2.101562 42.902343 22.199219 83.402343 55.199219 111.601562l6 5.101563-.898438 7.5c-1.203125 15.296875-.601562 30 2.097657 46.5 0 .898437.300781 2.699218.902343 5.097656h36.300781c4.796876 0 9.898438-.300781 14.699219-.601562zm0 0" fill="#64e1dc"/><path d="m288.300781 214.101562c-3 2.097657 5.699219 84.597657-97.5 30.296876v-169.398438h75v88.699219zm0 0" fill="#bbdcff"/><g fill="#00c8c8"><path d="m331.800781 496.398438c0 7.5-5.101562 13.199218-12.300781 14.402343-4.199219.898438-8.699219 1.199219-12.902344 1.199219h-115.796875v-301.800781c2.398438.898437 5.097657 2.101562 7.5 3.601562 28.199219 16.199219 62.398438 15.898438 90 .300781 1.199219 2.996094 21.300781 48.296876 31.5 70.796876 1.5 3.601562 3 6.601562 3.898438 9 .601562 1.203124 1.199219 2.101562 1.5 3.003906 2.101562 4.496094 1.800781 9.597656-.597657 13.796875-25.203124-15.597657-53.402343-23.699219-82.5-23.699219h-25.203124v25.199219c0 3 .300781 6 .601562 9 2.101562 42.902343 22.199219 83.402343 55.199219 111.601562l6 5.101563-.898438 7.5c-1.203125 15.296875-.601562 30 2.097657 46.5 0 .898437.300781 2.699218.902343 5.097656h36.300781c4.796876 0 9.898438-.300781 14.699219-.601562zm0 0"/><path d="m136.800781 452c-24.816406 0-45-20.1875-45-45s20.183594-45 45-45c24.8125 0 45 20.1875 45 45s-20.1875 45-45 45zm0 0"/><path d="m145.800781 317c0 8.285156-6.714843 15-15 15-8.285156 0-15-6.714844-15-15s6.714844-15 15-15c8.285157 0 15 6.714844 15 15zm0 0"/></g><path d="m278.351562 452.71875c-3.207031 0-6.445312-1.027344-9.183593-3.148438-42.773438-33.238281-67.296875-83.292968-67.296875-137.332031v-25.238281c0-8.289062 6.710937-15 15-15h25.242187c40.675781 0 80.167969 14.28125 111.195313 40.226562 6.355468 5.316407 6.496094 14.257813 1.890625 21.136719l-64.980469 113.554688zm0 0" fill="#6b0"/><path d="m302.964844 384.164062c-3.839844 0-7.679688-1.464843-10.605469-4.394531l-22.164063-22.164062c-5.859374-5.859375-5.859374-15.351563 0-21.210938 5.859376-5.859375 15.351563-5.859375 21.210938 0l22.164062 22.164063c5.859376 5.855468 5.859376 15.351562 0 21.210937-2.933593 2.929688-6.769531 4.394531-10.605468 4.394531zm0 0" fill="#c3ea21"/><path d="m496.800781 272h-40.203125c-57.296875 0-110.699218 25.5-146.699218 69.902344-34.199219 42.597656-48.300782 96.898437-39 150 0 2.699218.601562 5.398437 1.203124 8.097656 1.5 7.203125 7.5 12 14.699219 12h36.300781c58.496094 0 111.597657-23.699219 145.796876-64.796875 27.902343-33.902344 42.902343-75.601563 42.902343-120v-40.203125c0-8.402344-6.601562-15-15-15zm0 0" fill="#9cdd05"/><path d="m387.300781 417.5c-34.800781 35.101562-62.101562 62.398438-94.5 94.5h-6c-7.199219 0-13.199219-4.800781-14.699219-12-.601562-2.699219-1.203124-5.402344-1.203124-8.101562 32.101562-32.398438 59.703124-60 95.402343-95.398438 5.699219-6 15.296875-6 21 0 6 5.699219 6 15.300781 0 21zm0 0" fill="#c3ea21"/><path d="m265.800781 0c-4.839843 0-159.558593 0-150 0-24.902343 0-45 20.097656-45 45s20.097657 45 45 45c4.835938 0 159.558594 0 150 0 24.898438 0 45-20.097656 45-45s-20.101562-45-45-45zm0 0" fill="#e0f4ff"/><path d="m310.800781 45c0 24.902344-20.101562 45-45 45h-75v-90h75c24.898438 0 45 20.097656 45 45zm0 0" fill="#bbdcff"/></svg>