<svg id="Layer_1" enable-background="new 0 0 512 512" height="512" viewBox="0 0 512 512" width="512" xmlns="http://www.w3.org/2000/svg"><g><path d="m256 21.996c-135.311 0-245.002 109.691-245.002 245.002 0 64.234 24.732 122.684 65.177 166.377l278.88 57.758c85.963-38.047 145.947-124.08 145.947-224.135 0-135.311-109.691-245.002-245.002-245.002z" fill="#da2f3c"/><ellipse cx="229.353" cy="94.766" fill="#9bd8f9" rx="54.565" ry="17.369"/><path d="m229.353 112.134c-21.276 0-39.695-3.879-48.693-9.533v171.877l.001.001c30.796 14.708 66.589 14.709 97.385.003v-171.881c-8.999 5.655-27.417 9.533-48.693 9.533z" fill="#c0ecff"/><path d="m229.353 112.134c-21.276 0-39.695-3.879-48.693-9.533v171.877l.001.001c13.385 6.392 27.714 10.003 42.166 10.839.66-.599 1.047-.919 1.047-.919s0-82.316 0-106.434 24.842-26.148 24.842-26.148l8.047-42.044c-8.057 1.496-17.409 2.361-27.41 2.361z" fill="#9bd8f9"/><path d="m229.353 403.038c79.053 56.544 144.947-3.03 154.488-12.392-7.549-55.005-50.237-100.159-107.133-116.559-30.046 13.87-64.661 13.869-94.706-.001-61.085 17.606-105.791 68.357-108.22 128.859 2.944-2.506 71.88-59.768 155.571.093z" fill="#d9f3fc"/><path d="m182.002 274.085c-61.085 17.606-105.791 68.357-108.22 128.859 2.33-1.983 46.011-38.26 105.624-23.617.768-1.009 1.253-1.539 1.253-1.539-2.341-11.962 7.382-18.258 7.382-18.258l12.143-31.608c2.184-25.828 23.69-43.522 23.69-43.522s0-.022 0-.05c-14.325-.696-28.548-4.114-41.872-10.265z" fill="#c0ecff"/><path d="m229.353 402.116c77.548 55.467 142.419-.792 153.869-11.794l.38-1.289s-75.767-57.062-158.675 10.025c1.471.987 2.945 1.999 4.426 3.058z" fill="#168c80"/><path d="m302.072 366.702c-23.306 1.635-49.837 10.259-77.145 32.356 1.471.986 2.945 1.999 4.425 3.057 28.735 20.553 55.725 25.758 78.906 23.617-.309-.278-.611-.554-.942-.836-30.807-26.254-7.968-54.981-5.244-58.194z" fill="#1ba552"/><g><path d="m188.671 113.638c-17.192-5.472-20.801-13.283-20.801-18.872s3.609-13.4 20.801-18.872c22.681-7.22 58.669-7.224 81.363 0 17.192 5.472 20.801 13.283 20.801 18.872s-3.609 13.4-20.801 18.872c-22.674 7.218-58.669 7.224-81.363 0zm-6.819-18.872c2.307 3.275 18.338 10.452 47.501 10.452s45.193-7.177 47.501-10.452c-2.307-3.276-18.337-10.453-47.501-10.453s-45.194 7.178-47.501 10.453zm95.205.355h.009z" fill="#d9f3fc"/></g><path d="m229.353 401.194c-82.869-59.273-151.283-3.704-155.477-.174-.13 2.358-.204 4.729-.204 7.115 0 8.617.861 17.051 2.503 25.24 44.753 48.347 108.749 78.625 179.825 78.625 35.256 0 68.765-7.461 99.055-20.867 18.844-23.267 29.978-51.955 29.978-82.997 0-6.48-.492-12.855-1.431-19.102-10.338 10.058-75.814 68.262-154.249 12.16z" fill="#68c37d"/><path d="m175.742 445.764-2.506-16.027c-11.993-30.708 7.351-51.869 7.421-51.945-59.514-15.274-103.446 20.422-106.78 23.229-.13 2.358-.204 4.729-.204 7.115 0 8.617.861 17.051 2.503 25.24 26.117 28.214 58.794 50.258 95.599 63.738-10.677-29.143 3.967-51.35 3.967-51.35z" fill="#168c80"/><ellipse cx="200.184" cy="346.059" fill="#68c37d" rx="18.137" ry="18.137" transform="matrix(.159 -.987 .987 .159 -173.343 488.566)"/><g fill="#9ed369"><circle cx="203.35" cy="342.657" r="9.069"/><ellipse cx="181.104" cy="436.715" rx="10.529" ry="10.529" transform="matrix(.925 -.38 .38 .925 -152.453 101.665)"/><ellipse cx="223.873" cy="469.608" rx="22.364" ry="22.365" transform="matrix(.161 -.987 .987 .161 -275.697 614.8)"/></g><circle cx="228.207" cy="465.164" fill="#cbed74" r="9.753"/><path d="m144 138.25c-31.5-51.5 22.5-75.5 57.5-90 16.797-6.959 23.884-16.565 26.715-24.677-122.226 13.8-217.217 117.511-217.217 243.425 0 40.826 10.003 79.308 27.669 113.157 5.003-31.092 24.101-62.13 58.833-84.905 62.783-41.169 78-105.5 46.5-157z" fill="#e04955"/><path d="m501.002 266.998c0-13.159-1.05-26.072-3.048-38.67-54.544 11.599-133.645 35.766-105.954 74.932 37.852 53.538 29.697 91.659 27.46 99.357-.761 2.62-1.347 5.292-1.644 8.01-.864 7.913-.529 21.435 9.097 31.893 45.702-44.5 74.089-106.693 74.089-175.522z" fill="#e04955"/><g><ellipse cx="349.298" cy="122.612" fill="#8a58bb" rx="122.612" ry="122.612" transform="matrix(.707 -.707 .707 .707 15.608 282.904)"/><path d="m471.666 114.962c-3.039-49.354-35.268-90.807-79.641-107.306l-.977 9.796c-.908 9.103 3.21 18.004 10.794 23.121 13.379 9.027 33.775 27.214 41.225 57.5 2.444 9.937 11.409 16.889 21.642 16.889z" fill="#af7fdf"/><path d="m407.376 169.443-17.498-27.118c-3.029-.863-1.928-4.209-1.928-4.209l-15.429-28.033c-3.981.271-3.516-3.852-3.516-3.852l-4.764-.931-17.983-37.209-14.852-12.996c-42.98 6.628-53.68-32.04-53.68-32.04-30.91 22.261-51.038 58.556-51.038 99.557 0 67.716 54.895 122.612 122.612 122.612 33.239 0 63.384-13.233 85.468-34.71-35.923-7.714-27.392-41.071-27.392-41.071z" fill="#5c45bf"/><path d="m449.881 151.817c-1.638-1.06-5.253-3.036-10.705-4.064-.613-.116-.955-.775-.688-1.338.268-.564-.073-1.227-.687-1.338-1.891-.343-5.948-.893-11.714-.679-.659.025-1.116-.603-.947-1.241.193-.729-.34-1.453-1.098-1.478-2.762-.091-8.928-.058-15.176 1.559-.68.176-1.352-.311-1.391-1.012l-.016-.291c-.049-.886-.807-1.515-1.687-1.402-2.483.318-7.059 1.193-12.532 3.583-.608.265-1.328-.135-1.365-.797-.055-.995-1.172-1.551-1.998-.994-4.289 2.894-15.446 9.761-28.078 12.309-.847.171-1.36-.915-.693-1.465 13.086-10.778 29.616-16.285 36.148-18.161 1.213-.348 1.594-1.867.713-2.75-.622-.623-.49-1.654.298-2.045 6.889-3.425 11.535-7.219 13.899-9.403.833-.77.832-2.039.004-2.815l-.274-.256c-.661-.619-.582-1.684.155-2.21 6.757-4.823 11.883-10.874 14.076-13.672.61-.778.321-1.922-.584-2.32-.764-.336-.969-1.32-.41-1.939 4.979-5.51 7.79-9.966 9.016-12.115.398-.698.026-1.581-.752-1.784-.777-.202-1.144-1.084-.751-1.784 3.488-6.217 4.529-11.408 4.839-13.903.103-.828-.63-1.515-1.45-1.359-2.469.471-7.583 1.845-13.561 5.728-.673.437-1.577.128-1.829-.634-.252-.763-1.158-1.077-1.829-.635-2.065 1.362-6.329 4.456-11.506 9.781-.582.598-1.577.457-1.962-.283-.456-.878-1.615-1.092-2.353-.433-2.65 2.369-8.357 7.877-12.733 14.931-.477.77-1.534.917-2.195.298l-.274-.257c-.827-.775-2.094-.695-2.809.186-2.027 2.5-5.512 7.382-8.484 14.478-.34.812-1.36 1.01-2.022.43-.938-.822-2.429-.343-2.698.889-1.502 6.878-6.199 24.718-16.877 38.719-.522.684-1.614.225-1.494-.627 2.68-19.094 11.743-36.341 15.594-42.993.742-1.281-.156-2.905-1.604-2.904-.961.001-1.601-1.042-1.266-1.971 3.03-8.393 3.928-15.314 4.189-19.051.092-1.316-.89-2.394-2.17-2.394h-.423c-1.022 0-1.779-.967-1.578-2 1.842-9.474 1.393-18.694 1.039-22.815-.099-1.156-1.238-1.9-2.299-1.495-.871.333-1.79-.37-1.807-1.328-.153-8.644-1.277-14.667-1.927-17.467-.211-.909-1.2-1.364-1.996-.916-.796.447-1.779-.01-1.996-.917-1.928-8.064-5.083-13.303-6.752-15.666-.545-.772-1.689-.772-2.234 0-1.669 2.362-4.824 7.602-6.752 15.666-.217.907-1.2 1.364-1.996.917s-1.785.007-1.996.916c-.65 2.8-1.774 8.823-1.927 17.467-.017.958-.936 1.661-1.807 1.328-1.061-.405-2.2.338-2.299 1.495-.354 4.122-.803 13.341 1.039 22.815.201 1.034-.556 2-1.578 2h-.423c-1.28 0-2.261 1.078-2.17 2.394.261 3.737 1.159 10.658 4.189 19.051.335.928-.306 1.971-1.266 1.971-1.448-.001-2.346 1.623-1.604 2.904 3.851 6.653 12.915 23.899 15.594 42.993.12.852-.973 1.311-1.494.627-10.678-14.002-15.375-31.841-16.877-38.719-.269-1.233-1.76-1.711-2.698-.889-.662.58-1.682.382-2.022-.43-2.973-7.096-6.457-11.978-8.484-14.478-.714-.881-1.981-.962-2.809-.186l-.274.257c-.661.619-1.718.472-2.195-.298-4.376-7.055-10.083-12.562-12.733-14.931-.737-.659-1.897-.445-2.353.433-.384.74-1.38.881-1.962.283-5.177-5.325-9.441-8.419-11.506-9.781-.671-.442-1.576-.128-1.828.635-.252.762-1.156 1.071-1.829.634-5.978-3.883-11.091-5.257-13.561-5.728-.82-.156-1.553.531-1.45 1.359.31 2.495 1.351 7.686 4.839 13.903.393.7.026 1.582-.751 1.784-.778.202-1.15 1.086-.752 1.784 1.225 2.149 4.037 6.604 9.016 12.115.559.619.354 1.603-.41 1.939-.905.398-1.194 1.541-.584 2.32 2.193 2.798 7.32 8.849 14.076 13.672.737.526.816 1.591.155 2.21l-.274.256c-.827.775-.828 2.045.004 2.815 2.364 2.185 7.01 5.978 13.899 9.403.788.392.92 1.422.298 2.045-.881.883-.5 2.402.713 2.75 6.531 1.876 23.062 7.383 36.148 18.161.667.549.154 1.636-.693 1.465-12.631-2.547-23.788-9.415-28.078-12.309-.826-.557-1.942-.001-1.998.994-.037.662-.757 1.063-1.365.797-5.474-2.39-10.049-3.264-12.532-3.583-.88-.113-1.638.516-1.687 1.402l-.014.244c-.042.749-.713 1.235-1.393 1.059-6.248-1.618-12.414-1.65-15.176-1.559-.758.025-1.291.749-1.098 1.478.169.638-.288 1.265-.947 1.241-5.766-.214-9.823.336-11.714.679-.614.111-.955.774-.687 1.338s-.075 1.223-.688 1.338c-5.452 1.028-9.067 3.004-10.705 4.064-.543.351-.585 1.124-.085 1.533 1.511 1.234 4.884 3.598 10.189 5.223.597.183.864.876.536 1.406-.329.531-.064 1.228.535 1.406 1.842.55 5.813 1.545 11.567 1.97.658.049 1.043.723.804 1.338-.273.703.177 1.482.928 1.59 2.735.396 8.867 1.046 15.256.129.695-.1 1.309.458 1.27 1.16l-.016.291c-.049.886.635 1.595 1.522 1.58 2.503-.042 7.147-.404 12.851-2.174.633-.196 1.305.282 1.269.944-.055.995.993 1.671 1.875 1.209 4.574-2.397 16.382-7.97 29.186-9.121 1.157-.104 1.592 1.477.542 1.972-5.471 2.577-10.983 3.699-13.498 4.11-.613.1-.839.843-.406 1.328.288.322.162.821-.222.961-3.466 1.268-5.845 2.85-7.062 3.78-.429.327-.464.95-.081 1.379l.127.142c.306.343.238.86-.137 1.074-3.44 1.96-6.116 4.62-7.267 5.86-.323.348-.209.932.232 1.178.362.202.423.701.136.968-2.59 2.404-4.09 4.42-4.749 5.4-.214.318-.057.773.318.919.375.145.529.599.318.919-1.881 2.841-2.535 5.325-2.755 6.528-.075.41.253.777.668.749 1.22-.083 3.762-.451 6.797-1.999.341-.174.775.031.877.42s.536.597.877.42c1.048-.544 3.221-1.806 5.902-4.108.297-.255.787-.138.946.245.194.466.762.645 1.144.364 1.363-1.003 4.308-3.361 6.645-6.557.255-.349.776-.358 1.082-.015l.127.142c.383.429 1.005.465 1.379.076 1.061-1.104 2.902-3.289 4.554-6.589.183-.365.693-.434.98-.112.433.486 1.197.345 1.365-.253.914-3.239 3.651-11.527 9.123-17.727 1.244-1.409 3.053-2.19 4.933-2.19s3.689.78 4.933 2.19c5.472 6.2 8.208 14.488 9.123 17.727.169.597.932.738 1.366.253.287-.322.797-.253.98.112 1.652 3.3 3.493 5.485 4.554 6.589.374.389.996.353 1.379-.076l.127-.142c.306-.343.827-.333 1.082.015 2.337 3.196 5.282 5.554 6.645 6.557.382.281.95.102 1.144-.364.159-.383.649-.5.946-.245 2.681 2.301 4.854 3.563 5.902 4.108.34.177.775-.031.877-.42.102-.388.535-.594.877-.42 3.036 1.548 5.577 1.916 6.797 1.999.415.028.744-.339.668-.749-.221-1.203-.874-3.686-2.755-6.527-.212-.32-.057-.774.318-.919s.532-.601.318-.919c-.659-.98-2.159-2.996-4.749-5.4-.287-.266-.227-.766.136-.968.441-.245.555-.83.232-1.178-1.151-1.24-3.827-3.9-7.267-5.86-.375-.214-.443-.731-.137-1.074l.127-.142c.383-.429.348-1.052-.081-1.379-1.217-.93-3.596-2.512-7.062-3.78-.383-.14-.509-.639-.222-.961.434-.485.207-1.228-.405-1.328-2.516-.411-8.027-1.533-13.498-4.11-1.051-.495-.615-2.076.541-1.972 12.805 1.151 24.613 6.724 29.186 9.121.882.462 1.931-.214 1.875-1.209-.037-.662.635-1.14 1.268-.944 5.704 1.77 10.348 2.133 12.851 2.174.887.015 1.571-.694 1.522-1.58l-.016-.291c-.039-.701.575-1.259 1.27-1.16 6.388.917 12.52.267 15.256-.129.751-.109 1.2-.888.928-1.59-.239-.615.146-1.289.804-1.338 5.755-.425 9.725-1.42 11.567-1.97.598-.179.863-.875.535-1.406s-.061-1.223.536-1.406c5.305-1.624 8.679-3.988 10.189-5.223.51-.409.467-1.182-.076-1.534z" fill="#168c80"/><path d="m352.516 160.113c-.007-1.877-1.623-3.374-3.539-3.189-1.668.162-2.891 1.659-2.897 3.334-.148 38.56-2.833 53.84-3.858 58.286-.177.769.411 1.501 1.2 1.501h5.876 5.876c.79 0 1.378-.731 1.2-1.5-1.026-4.451-3.716-19.764-3.858-58.432z" fill="#9ed369"/><g fill="#68c37d"><path d="m353.252 189.597c-.586 1.786-2.348 3.039-4.368 2.843-1.696-.164-3.033-1.399-3.532-2.973-.907 17.68-2.417 25.992-3.129 29.077-.177.769.411 1.501 1.2 1.501h5.876 5.876c.79 0 1.378-.731 1.201-1.5-.711-3.078-2.216-11.354-3.124-28.948z"/><path d="m355.9 137.289c3.837-14.064 10.079-25.832 13.104-31.059.742-1.281-.156-2.905-1.604-2.904-.961.001-1.602-1.042-1.266-1.971 3.03-8.393 3.929-15.314 4.189-19.051.092-1.316-.89-2.394-2.17-2.394h-.423c-1.022 0-1.779-.967-1.578-2 1.842-9.474 1.393-18.694 1.039-22.815-.099-1.156-1.238-1.9-2.299-1.495-.871.333-1.79-.37-1.807-1.328-.153-8.644-1.277-14.667-1.927-17.467-.211-.909-1.2-1.364-1.996-.916-.796.447-1.779-.01-1.996-.917-.265-1.109-.555-2.159-.86-3.161-3.592 1.251-7.009 4.19-7.009 10.859v88.087s-.136 7.83 6.603 8.532z"/><path d="m270.427 76.278c5.997 5.997 52.169 55.466 59.252 63.058 1.064 1.14 2.555 1.83 4.112 1.764 1.066-.045 2.259-.427 3.346-1.536-6.146-11.475-9.173-23.167-10.323-28.433-.268-1.227-1.745-1.706-2.684-.902-.676.579-1.693.403-2.037-.418-2.971-7.091-6.453-11.971-8.481-14.473-.717-.885-1.98-.97-2.812-.191l-.23.215c-.702.658-1.758.52-2.233-.246-4.376-7.06-10.088-12.571-12.739-14.942-.73-.652-1.873-.449-2.338.406-.404.742-1.364.94-1.953.334-5.187-5.339-9.461-8.44-11.529-9.804-.671-.442-1.576-.128-1.828.635-.252.762-1.156 1.071-1.829.634-3.163-2.055-6.08-3.402-8.495-4.29-.322 2.61.186 5.574 2.801 8.189z"/><path d="m433.397 83.699c-.777-.202-1.144-1.084-.751-1.784 1.007-1.795 1.805-3.501 2.445-5.085-3.35-.076-7.016.723-9.907 3.614-6.015 6.015-42.388 44.476-54.072 56.84-2.065 2.186-2.18 5.564-.271 7.887l.655.797c10.43-6.132 20.881-9.559 25.758-10.959 1.206-.346 1.59-1.851.727-2.736-.622-.638-.512-1.663.285-2.06 6.884-3.423 11.529-7.214 13.894-9.399.837-.773.84-2.039.008-2.818l-.23-.215c-.702-.658-.632-1.721.101-2.244 6.762-4.824 11.893-10.88 14.087-13.679.604-.77.327-1.897-.555-2.307-.767-.356-1.026-1.302-.459-1.929 4.992-5.521 7.81-9.986 9.036-12.138.399-.699.026-1.583-.751-1.785z"/><path d="m308.719 142.325c-.808-.545-1.895-.024-1.993.931-.071.688-.737 1.138-1.37.861-5.48-2.393-10.059-3.266-12.54-3.584-.876-.112-1.63.521-1.679 1.403l-.014.244c-.042.749-.713 1.235-1.393 1.059-6.248-1.618-12.414-1.65-15.176-1.559-.771.025-1.309.774-1.088 1.514.185.62-.366 1.226-1.012 1.202-5.737-.208-9.774.339-11.659.681-.614.111-.955.774-.687 1.338s-.074 1.223-.688 1.338c-2.585.487-4.751 1.188-6.495 1.903 1.261 1.448 3.3 2.776 6.602 3.307 7.245 1.164 47.923 3.079 61.676 3.702 2.72.123 5.213-1.497 6.21-4.03l.238-.605c-8.652-3.141-15.719-7.538-18.932-9.705z"/><path d="m389.878 142.325c.808-.545 1.895-.024 1.993.931.071.688.737 1.138 1.37.861 5.48-2.393 10.059-3.266 12.54-3.584.876-.112 1.63.521 1.679 1.403l.014.244c.042.749.713 1.235 1.393 1.059 6.248-1.618 12.414-1.65 15.176-1.559.771.025 1.309.774 1.088 1.514-.185.62.366 1.226 1.012 1.202 5.737-.208 9.774.339 11.659.681.614.111.955.774.687 1.338s.075 1.223.688 1.338c2.585.487 4.751 1.188 6.495 1.903-1.261 1.448-3.3 2.776-6.603 3.307-7.245 1.164-47.923 3.079-61.676 3.702-2.72.123-5.213-1.497-6.21-4.03l-.238-.605c8.653-3.141 15.72-7.538 18.933-9.705z"/><path d="m375.556 167.711c.434-.485.207-1.228-.405-1.328-2.084-.34-6.226-1.172-10.696-2.911-.748 1.332-1.439 3.645.808 5.892 3.436 3.436 25.145 22.412 25.145 22.412s1.845 1.385 4.541.217c-.291-.549-.617-1.116-1.006-1.704-.212-.32-.057-.774.318-.919s.532-.601.318-.919c-.659-.98-2.159-2.996-4.749-5.4-.287-.266-.227-.766.136-.968.441-.245.555-.83.233-1.178-1.151-1.24-3.827-3.9-7.267-5.86-.375-.214-.443-.731-.137-1.074l.127-.142c.383-.429.348-1.052-.081-1.379-1.217-.93-3.596-2.512-7.062-3.78-.384-.139-.51-.637-.223-.959z"/><path d="m333.089 168.842c-3.853 3.853-24.364 22.152-24.364 22.152s-2.41 2.268-.75 5.21c.451-.189.911-.394 1.389-.638.341-.174.775.031.877.42s.536.597.877.42c1.048-.544 3.221-1.806 5.902-4.108.297-.255.787-.138.946.245.194.466.762.645 1.144.364 1.363-1.003 4.308-3.361 6.645-6.557.255-.349.776-.358 1.082-.015l.127.142c.383.429 1.006.465 1.379.076 1.061-1.104 2.902-3.289 4.554-6.589.183-.365.693-.434.98-.112.433.486 1.197.345 1.365-.253.633-2.242 2.141-6.904 4.824-11.617-1.598-.856-4.413-1.703-6.977.86z"/></g><path d="m356.406 66.699v29.987s-.976 11.095 10.995 6.641c-.961.001-1.602-1.042-1.266-1.971 3.03-8.393 3.929-15.314 4.189-19.051.092-1.316-.89-2.394-2.17-2.394h-.423c-1.022 0-1.779-.967-1.578-2 1.842-9.474 1.393-18.694 1.039-22.815 0-.001-10.786 2.024-10.786 11.603z" fill="#9ed369"/><path d="m413.523 102.308c-4.123 4.123-14.407 15.295-19.212 20.537-2.761 3.012-.314 7.862 3.744 7.392.07-.008.14-.017.212-.026 6.884-3.423 11.529-7.214 13.894-9.399.837-.773.84-2.039.008-2.818l-.23-.215c-.702-.658-.632-1.721.101-2.244 6.762-4.824 11.893-10.88 14.087-13.679.604-.77.327-1.897-.555-2.307-.001 0-6.582-2.707-12.049 2.759z" fill="#9ed369"/><path d="m313.537 113.096c3.366 3.383 9.133 1.961 10.518-2.607.026-.085.052-.172.077-.259-.676.579-1.693.403-2.036-.418-2.971-7.091-6.453-11.971-8.481-14.473-.717-.885-1.98-.97-2.812-.191l-.23.215c-.702.658-1.758.52-2.233-.246-4.376-7.06-10.088-12.571-12.739-14.942-.73-.652-1.873-.449-2.338.406-.066.12-.15.221-.241.312-.949 1.28-4.252 6.282-1.009 10.066 2.76 3.219 15.168 15.749 21.524 22.137z" fill="#9ed369"/></g><path d="m385.033 408.135c0-6.48-.492-12.855-1.431-19.102-6.602 6.423-35.695 32.479-76.286 35.862v.001s-26.018 49.54 14.743 78.063c11.349-3.174 22.374-7.126 32.996-11.827 18.844-23.267 29.978-51.954 29.978-82.997z" fill="#9ed369"/></g></svg>