<svg id="Capa_1" enable-background="new 0 0 512 512" height="512" viewBox="0 0 512 512" width="512" xmlns="http://www.w3.org/2000/svg"><g><path d="m512 500.276v-293.791c0-3.146-1.437-6.119-3.902-8.073l-245.699-194.761c-3.749-2.972-9.05-2.972-12.799 0l-245.698 194.76c-2.465 1.955-3.902 4.928-3.902 8.074v293.792c0 5.69 4.612 10.302 10.302 10.302h491.396c5.69-.001 10.302-4.613 10.302-10.303z" fill="#f4fbff"/><path d="m136.007 510.578h365.691c5.69 0 10.302-4.612 10.302-10.302v-293.791c0-3.146-1.431-6.114-3.896-8.068-10.536-8.352-40.064-31.758-58.897-46.687-29.583 107.559-107.61 269.581-313.2 358.848z" fill="#e4f6ff"/><g><g><g><path d="m141.521 261.302c-2.44-3.78-7.953-3.78-10.392 0-7.122 11.034-19.045 33.692-19.045 61.729 0 6.387.624 12.578 1.663 18.478-2.405-3.142-5.043-6.213-7.965-9.134-17.934-17.934-40.289-24.637-52.292-27.061-4.323-.873-8.142 2.946-7.269 7.269 2.423 12.004 9.127 34.359 27.061 52.293 4.917 4.917 10.245 9.064 15.649 12.563-1.758-.131-3.54-.201-5.345-.201-18.774 0-34.238 7.554-42.859 12.923-3.902 2.43-3.902 8.085 0 10.515 8.621 5.37 24.085 12.923 42.859 12.923 3.442 0 6.804-.261 10.062-.709-4.026 7.892-4.551 16.928-4.347 22.784.125 3.581 3.254 6.307 6.817 5.928 7.019-.746 18.539-3.306 27.077-11.843 6.976-6.976 11.11-16.406 13.131-22.221 2.02 5.815 6.154 15.245 13.131 22.221 8.538 8.538 20.058 11.097 27.077 11.843 3.563.379 6.692-2.348 6.817-5.928.204-5.857-.322-14.892-4.347-22.784 3.258.448 6.62.709 10.062.709 18.774 0 34.238-7.554 42.859-12.923 3.902-2.43 3.902-8.085 0-10.515-8.621-5.37-24.085-12.923-42.859-12.923-1.804 0-3.587.071-5.345.201 5.404-3.499 10.732-7.646 15.649-12.563 17.934-17.934 24.637-40.289 27.061-52.293.873-4.323-2.946-8.142-7.269-7.269-12.004 2.423-34.359 9.127-52.292 27.061-2.922 2.922-5.56 5.992-7.965 9.134 1.04-5.9 1.663-12.09 1.663-18.478-.002-28.037-11.924-50.695-19.047-61.729z" fill="#b3e59f"/></g></g></g><g><g><g><path d="m380.871 261.302c-2.44-3.78-7.953-3.78-10.392 0-7.122 11.034-19.045 33.692-19.045 61.729 0 6.387.624 12.578 1.663 18.478-2.405-3.142-5.043-6.213-7.965-9.134-17.934-17.934-40.289-24.637-52.293-27.061-4.323-.873-8.142 2.946-7.269 7.269 2.423 12.004 9.127 34.359 27.061 52.293 4.917 4.917 10.245 9.064 15.649 12.563-1.758-.131-3.54-.201-5.345-.201-18.774 0-34.238 7.554-42.859 12.923-3.902 2.43-3.902 8.085 0 10.515 8.621 5.37 24.085 12.923 42.859 12.923 3.442 0 6.804-.261 10.062-.709-4.026 7.892-4.551 16.928-4.347 22.784.125 3.581 3.254 6.307 6.817 5.928 7.019-.746 18.539-3.306 27.077-11.843 6.976-6.976 11.11-16.406 13.131-22.221 2.02 5.815 6.154 15.245 13.131 22.221 8.538 8.538 20.058 11.097 27.077 11.843 3.563.379 6.692-2.348 6.817-5.928.204-5.857-.322-14.892-4.347-22.784 3.258.448 6.62.709 10.062.709 18.774 0 34.238-7.554 42.859-12.923 3.902-2.43 3.902-8.085 0-10.515-8.621-5.37-24.085-12.923-42.859-12.923-1.804 0-3.587.071-5.345.201 5.404-3.499 10.732-7.646 15.649-12.563 17.934-17.934 24.637-40.289 27.061-52.293.873-4.323-2.946-8.142-7.269-7.269-12.004 2.423-34.359 9.127-52.293 27.061-2.922 2.922-5.56 5.992-7.965 9.134 1.04-5.9 1.663-12.09 1.663-18.478 0-28.037-11.923-50.695-19.045-61.729z" fill="#b3e59f"/></g></g></g><g fill="#5aa687"><path d="m146.178 380.783-2.127 2.127v-5.853c0-4.268-3.459-7.726-7.726-7.726s-7.726 3.459-7.726 7.726v5.853l-2.127-2.127c-3.018-3.016-7.909-3.016-10.928 0-3.017 3.018-3.017 7.909 0 10.928l13.054 13.054v68.595c0 4.268 3.459 7.726 7.726 7.726s7.726-3.459 7.726-7.726v-68.595l13.054-13.054c3.017-3.018 3.017-7.909 0-10.928-3.016-3.016-7.908-3.016-10.926 0z"/><path d="m396.456 380.783c-3.018-3.016-7.909-3.016-10.928 0l-2.127 2.127v-5.853c0-4.268-3.459-7.726-7.726-7.726s-7.726 3.459-7.726 7.726v5.853l-2.127-2.127c-3.018-3.016-7.909-3.016-10.928 0-3.017 3.018-3.017 7.909 0 10.928l13.054 13.054v68.595c0 4.268 3.459 7.726 7.726 7.726s7.726-3.459 7.726-7.726v-68.595l13.054-13.054c3.019-3.018 3.019-7.91.002-10.928z"/></g><path d="m262.399 3.651c-3.749-2.972-9.05-2.972-12.799 0l-1.327 1.052v118.754c0 4.268 3.459 7.726 7.726 7.726s7.726-3.459 7.726-7.726v-118.754z" fill="#4a80aa"/><g><g><path d="m183.154 253.981c-.891 0-1.797-.155-2.681-.482-4.002-1.482-6.045-5.927-4.564-9.929l.716-1.933c1.481-4.001 5.93-6.046 9.928-4.563 4.002 1.481 6.045 5.926 4.563 9.928l-.715 1.933c-1.154 3.117-4.106 5.046-7.247 5.046z" fill="#9dc6fb"/></g><g><path d="m193.099 227.129c-.891 0-1.797-.155-2.681-.483-4.002-1.481-6.045-5.927-4.563-9.928l.923-2.492c1.481-4.003 5.929-6.047 9.928-4.563 4.002 1.481 6.045 5.927 4.563 9.928l-.923 2.492c-1.155 3.118-4.108 5.046-7.247 5.046z" fill="#9dc6fb"/></g><g><path d="m203.251 199.718c-.892 0-1.8-.156-2.685-.484-4.001-1.484-6.042-5.93-4.558-9.931l.716-1.932c1.483-4.001 5.932-6.039 9.931-4.558 4.001 1.484 6.042 5.93 4.558 9.931l-.716 1.932c-1.156 3.115-4.108 5.042-7.246 5.042z" fill="#9dc6fb"/></g></g><g><g><path d="m328.846 253.981c-3.141 0-6.094-1.929-7.246-5.046l-.715-1.933c-1.482-4.002.561-8.447 4.563-9.928 4.003-1.485 8.447.561 9.928 4.563l.716 1.933c1.481 4.002-.562 8.447-4.564 9.929-.885.327-1.792.482-2.682.482z" fill="#9dc6fb"/></g><g><path d="m318.901 227.129c-3.141 0-6.093-1.929-7.246-5.046l-.923-2.492c-1.482-4.001.561-8.447 4.563-9.928 4.001-1.483 8.446.561 9.928 4.563l.923 2.492c1.482 4.001-.561 8.447-4.563 9.928-.885.328-1.79.483-2.682.483z" fill="#9dc6fb"/></g><g><path d="m308.75 199.718c-3.139 0-6.09-1.927-7.245-5.042l-.716-1.932c-1.484-4.001.557-8.447 4.558-9.931 3.997-1.483 8.446.556 9.931 4.558l.716 1.932c1.484 4.001-.557 8.447-4.558 9.931-.887.328-1.794.484-2.686.484z" fill="#9dc6fb"/></g></g><g><g><path d="m256 199.845c-4.268 0-7.726-3.459-7.726-7.726v-2.06c0-4.268 3.459-7.726 7.726-7.726s7.726 3.459 7.726 7.726v2.06c0 4.267-3.458 7.726-7.726 7.726z" fill="#9dc6fb"/></g><g><path d="m256 227.121c-4.268 0-7.726-3.459-7.726-7.726v-2.48c0-4.268 3.459-7.726 7.726-7.726s7.726 3.459 7.726 7.726v2.48c0 4.268-3.458 7.726-7.726 7.726z" fill="#9dc6fb"/></g><g><path d="m256 253.979c-4.268 0-7.726-3.459-7.726-7.726v-2.06c0-4.268 3.459-7.726 7.726-7.726s7.726 3.459 7.726 7.726v2.06c0 4.268-3.458 7.726-7.726 7.726z" fill="#9dc6fb"/></g></g><path d="m312.258 123.456h-112.516c-3.414 0-6.181 2.767-6.181 6.181v20.939c0 3.414 2.767 6.181 6.181 6.181h112.516c3.414 0 6.181-2.767 6.181-6.181v-20.939c0-3.414-2.767-6.181-6.181-6.181z" fill="#ffe07d"/><g fill="#9d6b6b"><path d="m94.699 510.578c0-22.989 18.637-41.626 41.626-41.626s41.626 18.637 41.626 41.626z"/><path d="m334.049 510.578c0-22.989 18.637-41.626 41.626-41.626s41.626 18.637 41.626 41.626z"/></g></g></svg>