<svg height="512pt" viewBox="0 -31 512.00021 512" width="512pt" xmlns="http://www.w3.org/2000/svg"><path d="m243.371094 177.570312c-42.773438-33.238281-67.296875-83.292968-67.296875-137.332031v-25.238281c0-8.289062 6.710937-15 15-15h25.238281c40.679688 0 80.171875 14.28125 111.195312 40.226562 6.359376 5.316407 6.5 14.257813 1.890626 21.136719l-64.980469 113.554688c-6.578125 1.714843-11.503907 10.050781-21.046875 2.652343zm0 0" fill="#6b0"/><path d="m266.558594 107.769531-22.164063-22.164062c-5.859375-5.859375-5.859375-15.351563 0-21.210938s15.351563-5.859375 21.210938 0l22.164062 22.164063c5.859375 5.859375 5.859375 15.351562 0 21.210937s-15.351562 5.859375-21.210937 0zm0 0" fill="#c3ea21"/><path d="m500.800781 253.5c-12.601562-10.800781-31.5-9.597656-42.898437 2.402344-84.296875 87.875-89.894532 94.292968-92.902344 96.296875-5.398438 5.101562-12.898438 7.800781-20.097656 7.800781h-112.902344c-8.285156 0-15-6.714844-15-15s6.714844-15 15-15h103c16.5 0 30-13.5 30-30s-13.5-30-30-30h-99.332031l-11.308594-9.945312c-21.8125-19.203126-50.828125-28.519532-79.804687-25.636719-26.617188 2.664062-50.273438 15.480469-68.003907 35.582031h-61.554687c-8.28125 0-14.996094 6.714844-14.996094 15v150.03125c0 8.265625 6.703125 14.96875 14.972656 14.96875h357.917969c4.5 0 8.761719-2.019531 11.609375-5.503906l120.800781-147.496094c10.5-13.5 8.398438-32.699219-4.5-43.5zm0 0" fill="#fde4e4"/><path d="m500.800781 253.5c-12.601562-10.800781-31.5-9.597656-42.898437 2.402344-84.296875 87.875-89.894532 94.292968-92.902344 96.296875-5.398438 5.101562-12.898438 7.800781-20.097656 7.800781h-44.902344v90h72.890625c4.5 0 8.761719-2.019531 11.609375-5.503906l120.800781-147.496094c10.5-13.5 8.398438-32.699219-4.5-43.5zm0 0" fill="#fcced3"/><path d="m365 300c0-16.5-13.5-30-30-30h-35v60h35c16.5 0 30-13.5 30-30zm0 0" fill="#fcced3"/><path d="m465 0h-40.199219c-57.300781 0-110.699219 25.5-146.699219 69.902344-34.199218 42.597656-48.300781 96.898437-39.003906 150 0 2.699218.601563 5.398437 1.203125 8.097656 1.5 7.199219 7.5 12 14.699219 12h36.300781c58.5 0 111.601563-23.699219 145.800781-64.800781 27.898438-33.898438 42.898438-75.597657 42.898438-120v-40.199219c0-8.402344-6.597656-15-15-15zm0 0" fill="#9cdd05"/><path d="m355.5 145.5c-34.800781 35.101562-62.097656 62.398438-94.5 94.5h-6c-7.199219 0-13.199219-4.796875-14.699219-12-.601562-2.699219-1.203125-5.402344-1.203125-8.097656 32.101563-32.402344 59.703125-60 95.402344-95.402344 5.703125-6 15.300781-6 21 0 6 5.699219 6 15.300781 0 21zm0 0" fill="#c3ea21"/></svg>