<?xml version="1.0" encoding="iso-8859-1"?>
<!-- Generator: Adobe Illustrator 19.0.0, SVG Export Plug-In . SVG Version: 6.00 Build 0)  -->
<svg version="1.1" id="Layer_1" xmlns="http://www.w3.org/2000/svg" xmlns:xlink="http://www.w3.org/1999/xlink" x="0px" y="0px"
	 viewBox="0 0 512 512" style="enable-background:new 0 0 512 512;" xml:space="preserve">
<circle style="fill:#1E495F;" cx="256" cy="256" r="256"/>
<path style="fill:#1D384E;" d="M319.607,504.031c94.774-24.232,168.368-101.355,187.504-198.064L325.96,125.608
	c1.045,0-95.821,187.077-95.821,187.077l19.272,19.272l-42.358,58.931L319.607,504.031z"/>
<path style="fill:#FFD153;" d="M357.355,201.143c0-59.368-48.54-107.398-108.098-106.569
	c-56.595,0.788-103.125,46.376-105.001,102.945c-1.033,31.179,11.33,59.484,31.774,79.599c8.382,8.247,13.096,19.516,13.096,31.275
	v39.035c0,34.048,27.601,61.649,61.649,61.649l0,0c34.048,0,61.649-27.601,61.649-61.649V308.4c0-11.64,4.524-22.901,12.848-31.038
	C345.068,258.01,357.355,231.012,357.355,201.143z"/>
<path style="fill:#F7CB09;" d="M250.775,94.572v314.506l0,0c34.048,0,61.649-27.601,61.649-61.649V308.4
	c0-11.64,4.524-22.901,12.848-31.038c19.796-19.352,32.083-46.35,32.083-76.219C357.355,142.282,309.637,94.574,250.775,94.572z"/>
<polygon style="fill:#FFB541;" points="297.796,194.873 203.755,194.873 203.755,210.547 213.155,210.547 237.232,325.486 
	246.636,325.486 222.559,210.547 278.992,210.547 254.915,325.486 264.319,325.486 288.396,210.547 297.796,210.547 "/>
<polygon style="fill:#FFA200;" points="250.775,194.873 250.775,210.547 278.992,210.547 254.915,325.486 264.319,325.486 
	288.396,210.547 297.796,210.547 297.796,194.873 "/>
<path style="fill:#CADBE6;" d="M189.127,308.393v39.035c0,34.048,27.601,61.649,61.649,61.649l0,0
	c34.048,0,61.649-27.601,61.649-61.649V308.4L189.127,308.393z"/>
<path style="fill:#B1C9DA;" d="M250.775,308.396v100.681l0,0c34.048,0,61.649-27.601,61.649-61.649V308.4L250.775,308.396z"/>
<g>
</g>
<g>
</g>
<g>
</g>
<g>
</g>
<g>
</g>
<g>
</g>
<g>
</g>
<g>
</g>
<g>
</g>
<g>
</g>
<g>
</g>
<g>
</g>
<g>
</g>
<g>
</g>
<g>
</g>
</svg>
