<svg height="512" viewBox="0 0 58 58" width="512" xmlns="http://www.w3.org/2000/svg"><g id="Page-1" fill="none" fill-rule="evenodd"><g id="013---Cannabis-Store" fill-rule="nonzero"><path id="Rectangle-path" d="m3 22h52v34h-52z" fill="#f9eab0"/><path id="Shape" d="m56.92 23h-55.84c.04925418-.168297.11982648-.3296052.21-.48l5.13-8.55c.36077964-.6005024 1.00945542-.9684647 1.71-.97h41.74c.7005446.0015353 1.3492204.3694976 1.71.97l5.13 8.55c.0901735.1503948.1607458.311703.21.48z" fill="#f29c1f"/><path id="Shape" d="m19.67 29s-.64 1-2.67 1c-1.0905916.0785581-2.139795-.43269-2.75-1.34-.0779279.1011979-.1613884.1980122-.25.29-.6587838.671128-1.55957 1.0494582-2.5 1.05-1.0747511.003449-2.09040423-.4914511-2.75-1.34-.18977513-.2263562-.47185296-.3545889-.76717947-.3487601-.29532652.0058289-.57212483.145092-.75282053.3787601-.82669182 1.0330618-2.16672771 1.5094329-3.46 1.23-.26755154-.0502734-.52673836-.1377911-.77-.26-1.23549267-.6145011-2.01198126-1.8801775-2-3.26v-2.85c.00135001-.1861321.02826841-.3711961.08-.55h13.53c1.1589905 2.3912755 2.8986179 4.4540748 5.06 6z" fill="#e57e25"/><path id="Shape" d="m57 23.55v2.85c.0119813 1.3798225-.7645073 2.6454989-2 3.26-.2432616.1222089-.5024485.2097266-.77.26-1.2932723.2794329-2.6333082-.1969382-3.46-1.23-.1806957-.2336681-.457494-.3729312-.7528205-.3787601-.2953265-.0058288-.5774044.1224039-.7671795.3487601-.6595958.8485489-1.6752489 1.343449-2.75 1.34-.94043-.0005418-1.8412162-.378872-2.5-1.05-.0886116-.0919878-.1720721-.1888021-.25-.29-.610205.90731-1.6594084 1.4185581-2.75 1.34-2.03 0-2.67-1-2.67-1 2.1613821-1.5459252 3.9010095-3.6087245 5.06-6h13.53c.0517316.1788039.07865.3638679.08.55z" fill="#e57e25"/><rect id="Rectangle-path" fill="#24ae5f" height="5" rx="2" width="58" y="53"/><path id="Shape" d="m9 35h8c.5522847 0 1 .4477153 1 1v17h-10v-17c0-.5522847.44771525-1 1-1z" fill="#4c8056"/><rect id="Rectangle-path" fill="#3b97d3" height="12" rx="1" width="27" x="23" y="36"/><circle id="Oval" cx="14" cy="44" fill="#2c3e50" r="1"/><path id="Shape" d="m36 48 7-12h-5l-7 12z" fill="#b0d3f0"/><circle id="Oval" cx="29" cy="16" fill="#7ed09e" r="16"/><path id="Shape" d="m29 29c-.5522847 0-1-.4477153-1-1v-8.125c0-.5522847.4477153-1 1-1s1 .4477153 1 1v8.125c0 .5522847-.4477153 1-1 1z" fill="#33907c"/><path id="Shape" d="m33.86 21.98c1.0900957 1.0610819 1.7034723 2.5187533 1.7 4.04-1.7183705.0142481-3.3737015-.6464481-4.61-1.84-1.172806-1.0377773-1.8761163-2.5057121-1.95-4.07-.0738837 1.5642879-.777194 3.0322227-1.95 4.07-1.2362985 1.1935519-2.8916295 1.8542481-4.61 1.84-.0034723-1.5212467.6099043-2.9789181 1.7-4.04-.3780338.0485191-.7588701.0719038-1.14.07-2.1720893.0649505-4.2972389-.6398908-6-1.99 1.7039643-1.3468357 3.8290972-2.0481295 6-1.98.4984467-.003244.9964569.0301795 1.49.1-.7056399-.4733973-1.3622321-1.0160909-1.96-1.62-1.8236748-1.7217583-2.984586-4.0294234-3.28-6.52 2.4763993.3137 4.7633663 1.4890453 6.46 3.32.464683.4627007.8926424.9608722 1.28 1.49l.01.01c-.1615065-.9650538-.2451095-1.9415372-.25-2.92-.0982598-2.81677393.6886047-5.59353135 2.25-7.94 1.5613953 2.34646865 2.3482598 5.12322607 2.25 7.94-.0048905.9784628-.0884935 1.9549462-.25 2.92l.01-.01c.3873576-.5291278.815317-1.0272993 1.28-1.49 1.6966337-1.8309547 3.9836007-3.0063 6.46-3.32-.295414 2.4905766-1.4563252 4.7982417-3.28 6.52-.5977679.6039091-1.2543601 1.1466027-1.96 1.62.4935431-.0698205.9915533-.103244 1.49-.1 2.1709028-.0681295 4.2960357.6331643 6 1.98-1.7027611 1.3501092-3.8279107 2.0549505-6 1.99-.3809837-.0027766-.7615388-.026144-1.14-.07z" fill="#4c8056"/></g></g></svg>